<svg width="814" height="661" viewBox="0 0 814 661" fill="none" xmlns="http://www.w3.org/2000/svg">
<path d="M811.514 525.318C813.364 528.9 814.063 531.813 810.591 534.394C809.131 532.71 807.71 531.467 805.79 529.516C804.679 529.289 802.919 529.103 800.928 528.782C800.197 527.941 799.658 526.791 798.888 525.508C798.237 525.549 797.167 525.763 795.636 525.71C794.406 524.159 793.176 522.609 791.715 520.926C790.605 520.699 789.074 520.646 787.964 520.419C787.464 519.71 786.924 518.561 786.384 517.412C784.623 517.225 782.862 517.038 781.101 516.852C780.101 515.435 778.911 514.326 777.681 512.776C776.38 512.856 775.27 512.629 773.739 512.576C773.619 511.253 773.73 510.064 773.61 508.74C772.69 508.206 772 507.805 771.309 507.404C770.469 507.752 769.438 508.407 767.797 509.544C767.637 507.779 767.518 506.456 767.318 504.251C764.487 504.278 762.076 504.132 759.895 504.119C759.855 503.678 759.164 503.277 758.855 502.262C757.284 501.767 755.293 501.447 753.452 500.378C751.652 499.751 750.231 498.508 747.47 496.905C748.82 499.778 749.59 501.061 750.4 502.785C751.931 502.838 753.271 503.198 755.032 503.385C755.382 504.842 755.962 506.432 756.351 508.33C758.302 508.209 759.183 508.303 760.904 508.048C761.674 509.331 762.674 510.748 764.134 512.431C765.665 512.485 767.235 512.979 768.766 513.032C770.536 515.731 774.938 516.198 775.708 517.481C777.518 520.621 780.89 521.743 783.69 523.788C783.54 524.536 783.39 525.285 783.24 526.033C783.319 526.915 783.629 527.931 783.899 528.506C775.975 527.665 768.993 522.775 762.781 519.168C756.808 518.207 751.296 517.513 745.513 516.245C746.044 514.881 746.345 513.384 746.875 512.021C745.955 511.487 745.035 510.952 743.845 509.843C742.854 510.939 741.443 512.209 740.262 513.613C739.722 512.464 739.222 511.755 738.491 510.913C735.77 509.751 732.439 509.07 729.678 507.467C726.917 505.864 724.727 503.338 721.926 501.294C720.856 501.508 719.555 501.589 717.183 501.883C718.874 503.701 720.414 506.266 721.984 506.761C725.126 507.749 727.236 509.392 729.577 511.169C731.957 513.388 734.908 514.683 737.329 517.342C740.019 520.576 745.652 522.593 750.713 525.532C748.992 525.787 747.922 526.001 747.081 526.349C747.13 529.302 749.701 531.213 753.572 533.043C754.143 532.121 754.713 531.198 755.284 530.276C756.704 531.519 759.576 531.932 758.474 534.218C758.474 534.218 758.244 534.085 758.434 533.777C757.784 533.817 756.904 533.724 756.253 533.764C756.483 533.898 756.523 534.339 756.753 534.473C757.404 534.432 758.054 534.392 758.895 534.044C762.726 535.433 762.775 538.387 764.315 540.953C765.616 540.873 766.496 540.966 767.797 540.885C770.908 543.945 773.828 547.313 777.669 551.215C772.957 549.732 768.325 549.132 766.634 547.314C764.174 544.214 762.143 543.453 758.662 543.52C757.661 542.104 756.701 541.128 755.471 539.578C753.71 539.392 752.14 538.897 748.419 536.319C747.078 535.958 747.158 536.84 747.578 536.667C748.498 537.201 749.609 537.428 750.719 537.655C749.759 536.679 748.569 535.57 748.379 535.878C750.649 539.285 750.729 540.168 750.848 541.491C748.787 542.801 746.535 544.419 743.633 546.077C742.323 543.644 741.473 541.479 739.624 537.898C738.062 539.916 737.262 540.705 736.311 542.242C738.921 544.594 741.572 547.387 744.452 550.313C746.054 548.736 747.235 547.332 748.836 545.755C749.876 547.612 750.416 548.762 750.956 549.911C751.266 550.927 751.805 552.076 752.885 554.374C754.677 552.49 755.668 551.393 756.849 549.99C754.968 548.48 752.897 547.277 751.247 545.901C751.627 545.286 752.198 544.364 752.578 543.749C757.64 546.688 762.702 549.627 768.454 552.968C767.542 554.946 767.592 557.9 763.229 557.874C763.579 559.331 764.349 560.613 764.699 562.07C766.92 562.524 768.681 562.711 770.441 562.898C777.052 570.915 787.967 573.492 796.449 580.507C794.768 581.203 793.087 581.898 791.406 582.593C787.035 580.055 782.663 577.517 778.292 574.978C777.832 574.711 777.752 573.829 776.942 572.105C775.491 572.934 774.08 574.204 773.85 574.07C769.708 571.665 767.638 570.463 765.797 569.394C763.156 569.114 760.745 568.968 758.333 568.821C758.904 567.899 759.475 566.976 760.426 565.439C757.324 564.892 755.333 564.572 752.692 564.292C753.002 565.307 753.082 566.189 753.622 567.339C752.281 566.978 751.171 566.751 750.25 566.217C750.321 564.586 750.011 563.57 749.922 560.176C748.02 563.25 746.879 565.095 745.357 567.554C743.437 565.603 742.247 564.494 740.556 562.677C738.875 563.372 736.964 563.934 734.443 564.977C736.713 568.385 738.673 570.777 740.943 574.185C742.854 573.623 744.535 572.927 746.256 572.673C747.756 574.798 748.946 575.907 750.407 577.591C751.517 577.818 752.818 577.737 754.119 577.657C756.079 580.049 758.039 582.441 760.499 585.541C762.18 584.845 764.092 584.284 765.582 583.896C768.353 588.012 770.623 591.419 773.123 594.96C767.88 594.841 762.868 594.856 757.855 594.87C757.085 593.587 756.775 592.572 756.005 591.289C753.594 591.142 750.953 590.862 748.542 590.716C748.042 590.008 747.772 589.433 747.692 588.551C746.391 588.631 745.091 588.712 743.79 588.792C743.83 589.233 743.679 589.982 743.909 590.115C746.33 592.775 748.79 595.875 751.211 598.534C749.109 599.403 747.428 600.099 745.747 600.794C741.606 598.389 737.464 595.984 733.323 593.579C731.792 593.526 730.722 593.74 729.001 593.995C729.961 594.97 730.921 595.946 732.341 597.188C731.771 598.111 731.24 599.474 730.329 601.452C728.409 599.501 727.448 598.526 726.758 598.125C721.736 595.627 717.175 593.396 712.383 591.031C711.773 591.513 711.392 592.127 710.592 592.916C718.414 597.459 726.237 602.001 734.289 606.677C734.179 607.867 733.839 608.923 733.728 610.112C735.148 611.355 736.989 612.424 740.02 614.602C736.498 614.228 733.857 613.948 731.446 613.802C733.415 618.706 732.243 622.623 728.66 626.392C725.05 622.624 718.095 625.272 715.546 618.777C714.245 618.857 712.945 618.938 710.573 619.233C714.025 621.237 718.776 623.16 719.356 624.75C720.596 628.813 726.019 626.112 727.489 630.309C728.108 632.34 732.63 634.13 735.621 635.867C738.612 637.604 741.603 639.34 745.974 641.879C736.33 641.293 728.927 636.577 721.494 633.932C713.641 631.461 706.429 626.437 699.107 622.603C698.686 622.777 698.456 622.643 698.496 623.084C698.536 623.526 698.576 623.967 698.806 624.1C704.788 627.574 711 631.181 716.292 634.254C717.562 636.245 718.562 637.662 719.832 639.653C717.23 639.814 714.249 640.59 713.558 640.189C710.448 637.129 704.905 638.507 702.785 634.351C697.082 633.964 692.591 630.103 688.029 627.872C683.216 630.091 689.919 631.894 689.658 633.832C693.87 634.606 697.591 637.185 701.963 639.724C702.202 642.37 702.481 645.457 702.84 649.427C697.778 646.487 693.867 644.216 689.726 641.811C688.204 644.271 686.873 646.423 685.542 648.575C684.201 648.215 683.281 647.68 682.13 647.012C682.241 645.823 682.351 644.633 682.422 643.002C680.511 643.564 678.83 644.26 677.569 644.781C675.839 642.523 674.878 641.547 674.338 640.398C672.348 640.078 670.127 639.624 668.556 639.13C667.786 637.847 667.476 636.831 666.976 636.123C665.255 636.377 663.724 636.324 660.703 636.659C660.543 634.895 660.193 633.438 660.034 631.674C657.022 634.521 650.628 633.734 651.377 639.601C653.978 639.44 656.12 639.012 659.141 638.677C659.54 643.088 659.859 646.616 660.068 651.334C656.617 649.33 654.086 647.86 651.325 646.257C649.763 648.276 648.392 649.987 646.641 652.313C646.631 649.8 646.512 648.477 646.352 646.713C643.711 646.433 641.3 646.286 638.659 646.006C637.389 644.015 636.079 641.583 632.486 642.84C631.986 642.132 631.677 641.116 631.137 639.967C629.367 637.267 625.593 641.344 623.894 637.014C622.544 634.141 618.302 635.439 615.691 633.087C613.54 631.002 610.399 630.014 607.408 628.277C606.838 629.2 606.267 630.122 605.506 631.352C607.037 631.405 608.108 631.191 609.218 631.418C610.068 633.583 610.958 636.189 611.617 638.661C619.651 638.312 621.02 646.21 627.222 647.305C626.541 649.417 626.011 650.78 625.48 652.144C626.63 652.812 627.321 653.212 628.011 653.613C629.272 653.092 630.532 652.57 631.793 652.049C631.953 653.813 632.112 655.577 632.272 657.341C624.658 657.517 616.575 654.912 608.451 651.867C605.5 650.571 603.92 647.564 600.129 646.616C596.797 645.935 593.266 643.049 590.006 640.738C582.793 635.714 573.64 633.323 567.989 626.281C560.795 626.283 556.135 618.144 550.092 618.814C545.871 615.527 542.15 612.948 538.429 610.37C537.208 611.332 536.367 611.68 534.496 612.683C534.297 610.478 533.947 609.021 533.907 608.58C526.045 603.596 521.814 597.797 514.842 595.419C511.47 594.297 508.139 593.616 504.577 592.802C504.307 592.227 503.807 591.519 503.497 590.503C501.967 590.45 500.666 590.531 499.825 590.878C499.755 592.509 499.454 594.006 499.273 596.826C497.733 594.26 497.423 593.244 496.113 590.812C495.932 593.632 495.632 595.129 495.521 596.319C499.623 598.283 502.804 599.712 505.605 601.756C517.078 610.508 517.078 610.508 533.975 616.559C535.775 617.187 537.386 618.122 538.996 619.057C543.978 621.114 545.687 627.957 552.611 627.381C557.672 630.32 562.734 633.259 567.986 635.891C573.047 638.83 578.529 641.596 582.981 645.016C585.781 647.06 588.953 645.977 591.184 648.944C593.104 650.895 595.865 652.498 599.626 655.518C594.033 653.942 590.242 652.994 585.76 651.645C585.999 654.291 586.239 656.937 586.288 659.891C585.217 660.105 583.686 660.052 582.806 659.959C572.802 655.403 564.7 647.773 553.556 645.063C552.816 641.708 548.494 642.123 546.113 639.905C543.503 637.554 540.702 635.509 537.401 632.757C537.171 632.623 536.101 632.837 534.57 632.784C530.41 625.354 523.278 621.212 514.434 619.838C514.743 620.853 515.013 621.428 515.863 623.593C508.421 618.436 500.568 615.965 496.647 611.181C489.665 606.291 481.331 608.137 476.75 600.881C476.02 600.039 473.95 598.836 472.839 598.609C465.296 597.154 458.964 592.224 452.522 588.483C449.761 586.88 447 585.277 444.58 582.617C442.159 579.958 435.386 579.786 432.966 577.127C428.625 572.517 422.572 570.674 419.232 567.48C416.621 565.128 415.351 563.137 413.621 560.879C412.971 560.919 412.09 560.826 410.559 560.773C409.099 559.089 407.179 557.138 404.988 554.612C406.13 552.768 407.461 550.616 408.602 548.771C403.35 546.139 402.789 549.574 401.418 551.285C400.037 550.484 399.117 549.949 397.736 549.148C399.068 546.996 400.209 545.151 401.731 542.691C398.97 541.088 396.629 539.311 392.948 537.173C392.687 539.111 392.577 540.301 392.276 541.798C390.515 541.611 388.104 541.465 385.003 540.917C386.273 542.909 387.313 544.766 388.813 546.891C386.251 547.493 384.11 547.921 381.318 548.39C379.969 545.516 378.659 543.084 377.039 539.636C374.977 540.946 373.336 542.083 372.916 542.257C363.023 536.512 355.01 532.277 347.608 527.56C342.506 524.18 336.033 522.511 332.723 517.246C327.021 516.859 322.41 511.675 316.707 511.288C307.274 505.811 297.611 500.199 288.178 494.722C286.877 494.802 285.616 495.324 284.276 494.963C281.635 494.683 278.953 493.962 276.082 493.548C275.423 491.076 274.993 488.737 274.603 486.839C270.112 482.978 263.078 484.743 260.149 478.863C254.636 478.169 251.716 474.802 249.176 470.82C250.246 470.606 251.127 470.699 252.197 470.485C251.878 466.957 251.789 463.562 251.35 458.71C249.639 461.477 248.688 463.015 247.547 464.859C243.065 463.51 239.604 458.994 235.101 462.229C234.8 463.726 234.58 466.105 234.129 468.351C231.717 468.204 232.438 466.533 231.018 465.291C227.226 464.342 222.744 462.994 218.493 461.778C217.493 460.362 216.493 458.945 215.262 457.395C213.581 458.091 212.321 458.612 211.06 459.134C210.25 457.41 209.44 455.686 208.63 453.962C206.489 454.39 204.388 455.259 201.826 455.861C201.897 454.231 202.007 453.041 201.927 452.159C200.206 452.413 198.485 452.668 195.274 453.31C196.105 450.449 196.406 448.952 197.387 445.344C194.755 447.576 193.574 448.98 191.743 450.424C189.973 447.724 188.703 445.733 186.702 442.9C185.782 442.366 183.632 440.281 182.101 440.228C177.509 440.069 173.337 439.735 167.775 436.088C167.775 436.088 166.965 434.364 165.925 432.507C164.585 432.146 163.054 432.093 161.063 431.773C160.523 430.623 159.943 429.033 158.863 426.734C163.996 428.043 167.827 429.432 171.849 430.514C170.309 427.948 168.579 425.69 167.309 423.698C164.127 422.269 160.946 420.84 156.885 419.317C157.296 416.63 157.556 414.692 157.737 411.872C160.038 413.208 161.419 414.01 162.569 414.678C162.609 415.119 162.459 415.867 162.498 416.308C163.149 416.268 163.989 415.921 164.18 415.613C165.79 416.548 166.71 417.083 167.861 417.751C167.98 419.074 167.87 420.263 168.03 422.028C170.812 419.047 170.812 419.047 169.152 415.158C167.852 415.238 166.551 415.319 163.989 415.921C163.759 415.787 163.069 415.386 162.379 414.985C163.14 413.756 163.9 412.526 164.471 411.603C163.621 409.438 162.351 407.447 162.001 405.991C152.538 402.585 144.706 395.529 135.601 396.093C134.331 394.102 133.601 393.26 132.601 391.843C131.07 391.79 129.5 391.296 127.509 390.976C126.509 389.559 125.318 388.45 124.548 387.167C118.996 386.032 119.186 385.725 111.864 381.891C109.103 380.287 105.24 380.97 103.391 377.388C99.7585 378.204 97.2584 374.663 94.3073 373.367C90.896 371.804 88.2057 368.571 84.1134 369.12C83.4631 369.16 81.2727 366.634 79.6622 365.699C76.6712 363.962 73.7201 362.666 70.3488 361.544C67.6278 360.382 64.7564 359.969 62.2256 358.499C59.4647 356.896 57.0842 354.678 53.3631 352.099C49.9918 350.977 45.2798 349.495 38.7672 347.384C38.4573 346.369 37.8775 344.778 37.3376 343.629C38.3684 342.974 38.9389 342.051 39.3991 342.319C42.7704 343.441 46.2522 343.373 49.7432 345.818C57.1455 350.534 64.8484 353.754 73.1219 356.051C73.7723 356.01 74.6926 356.545 75.1926 357.253C81.4844 361.742 89.0278 363.198 95.6601 366.631C96.1815 362.755 92.0402 360.35 88.9388 359.803C83.8465 358.935 79.475 356.397 75.754 353.818C72.7231 351.64 67.7903 352.537 66.3209 348.34C62.3789 348.141 59.0781 345.388 55.0564 344.307C54.5963 344.039 53.7558 344.387 53.1054 344.427C50.0254 339.296 44.6632 337.853 38.6505 336.451C38.1106 335.302 37.7609 333.845 37.1412 331.814C39.9021 333.417 42.433 334.887 45.4239 336.624C45.5344 335.434 45.6847 334.686 45.4546 334.552C42.3838 331.933 39.1229 329.622 34.9417 326.776C34.6411 328.273 34.3404 329.77 34.0398 331.267C33.8098 331.133 32.6992 330.906 31.3587 330.546C31.3494 328.033 31.1501 325.828 30.8709 322.74C33.5919 323.902 35.6227 324.664 38.3437 325.826C38.6443 324.329 38.5247 323.006 38.8253 321.509C40.8162 321.829 43.2673 322.417 45.9085 322.697C46.6785 323.98 47.4086 324.822 48.1786 326.105C52.2003 327.186 56.4521 328.402 60.934 329.75C61.3941 330.018 61.8941 330.726 62.6641 332.009C69.0265 334.868 75.3888 337.726 83.1316 341.387C83.1316 341.387 83.6715 342.536 84.6317 343.511C91.5646 345.448 98.0773 347.558 105.01 349.495C105.55 350.644 106.05 351.352 106.05 351.352C112.032 354.826 118.916 353.808 123.836 360.009C126.748 360.864 129.889 361.852 133.45 362.666C133.699 367.825 142.755 364.308 143.233 369.601C147.706 368.437 150.976 373.261 155.418 374.169C159.86 375.077 164.271 378.056 169.983 380.955C170.634 380.915 172.164 380.968 174.766 380.807C173.766 379.391 173.456 378.375 170.766 375.141C169.425 374.781 169.505 375.663 169.925 375.489C170.845 376.023 171.956 376.25 173.066 376.477C172.106 375.502 170.916 374.393 170.726 374.7C171.195 377.48 169.704 377.868 168.213 378.256C167.443 376.973 166.713 376.131 165.713 374.715C164.182 374.662 162.882 374.742 161.771 374.515C161.231 373.366 160.691 372.217 159.921 370.934C160.992 370.72 161.872 370.813 163.593 370.559C160.602 368.822 158.262 367.045 156.421 365.976C153.669 366.885 151.758 367.447 149.197 368.049C149.267 366.419 149.608 365.363 149.528 364.481C144.896 363.88 142.126 359.764 137.874 358.549C135.653 358.095 130.131 354.889 125.689 353.981C124.959 353.139 124.419 351.99 123.419 350.573C112.894 349.894 105.624 339.404 95.2488 337.976C93.718 337.923 92.0278 336.105 90.1872 335.037C86.0458 332.632 82.0149 329.037 78.0331 328.397C73.361 327.355 71.9713 324.041 68.5601 322.478C63.0782 319.713 57.7558 318.711 51.0131 316.467C50.8934 315.144 50.7339 313.38 50.6142 312.057C45.9422 311.016 42.8408 310.468 39.4694 309.346C36.2883 307.917 33.4875 305.873 30.3063 304.443C26.8951 302.88 23.9746 299.513 19.6922 300.369C19.0725 298.338 18.6829 296.44 18.4436 293.794C17.2932 293.126 15.6428 291.749 12.842 289.705C17.3239 291.054 20.6952 292.176 24.2568 292.991C24.7568 293.699 25.0667 294.714 25.7968 295.556C26.9073 295.783 28.208 295.703 29.7387 295.756C32.1591 298.415 34.1592 301.248 36.5796 303.907C39.1411 303.305 41.7026 302.703 44.2641 302.101C45.7243 303.785 46.7244 305.201 47.6846 306.177C50.8259 307.165 53.9672 308.154 57.1084 309.142C57.4888 308.527 57.8692 307.912 58.63 306.682C56.5992 305.921 55.0285 305.427 52.5376 304.398C52.5376 304.398 51.8075 303.556 51.0375 302.273C48.5067 300.804 44.304 302.542 43.4849 298.306C40.2332 298.507 36.3925 294.605 34.7114 295.3C30.429 296.157 29.4596 292.669 27.1588 291.333C23.9776 289.903 21.0265 288.607 17.8454 287.178C14.8943 285.882 11.9432 284.586 7.88159 283.064C7.57175 282.048 7.18215 280.15 6.83242 278.693C4.38136 278.106 2.85061 278.053 0.859687 277.733C0.970119 276.543 0.890357 275.661 1.19098 274.164C4.14207 275.46 6.6729 276.929 9.39391 278.091C10.6946 278.011 11.9953 277.93 13.296 277.85C12.7162 276.26 11.7161 274.843 10.9062 273.119C12.5873 272.424 14.2684 271.728 16.5599 270.552C19.1 274.534 21.8302 278.209 24.3702 282.191C23.0695 282.272 22.229 282.619 20.9283 282.7C21.8885 283.675 22.8088 284.21 24.2292 285.452C25.4102 284.049 26.6311 283.086 27.8122 281.683C28.9625 282.351 30.1129 283.019 31.4934 283.82C31.4934 283.82 31.2633 283.687 31.0731 283.994C31.343 284.569 31.613 285.143 31.6928 286.025C31.9229 286.159 32.3431 285.985 32.5732 286.119C32.3032 285.544 31.8032 284.836 31.3032 284.128C31.4933 283.82 31.8737 283.205 31.8338 282.764C31.8338 282.764 32.0639 282.898 31.8737 283.205C32.5241 283.165 33.4045 283.258 34.0548 283.218C33.8248 283.085 33.7849 282.644 33.5548 282.51C32.9045 282.55 32.2541 282.59 31.4136 282.938C29.8031 282.003 28.1925 281.068 28.6527 281.335C26.2323 278.676 25.0021 277.126 24.2322 275.843C26.5237 274.666 28.0146 274.278 30.9564 273.061C26.8949 271.539 24.4438 270.951 21.9528 269.922C21.4129 268.773 20.873 267.624 20.0632 265.9C21.3638 265.819 22.6246 265.298 23.5449 265.832C28.2967 267.756 33.0884 270.12 37.8004 271.603C41.3619 272.417 43.3621 275.25 46.2733 276.105C49.6446 277.227 52.9761 277.908 56.5377 278.722C59.4182 281.649 62.2988 284.575 64.9492 287.368C69.8115 288.102 74.2534 289.01 78.4653 289.784C79.4654 291.201 80.6557 292.31 81.8858 293.86C83.1067 292.897 83.9473 292.549 85.5884 291.413C86.6284 293.271 87.6683 295.128 89.2083 297.694C90.3495 295.849 91.3005 294.312 92.0612 293.082C92.9815 293.617 94.1319 294.285 95.5123 295.086C96.5032 293.99 97.7241 293.028 99.3254 291.45C100.595 293.441 101.405 295.165 102.715 297.597C103.666 296.06 104.427 294.83 105.378 293.293C102.157 291.423 98.126 287.828 94.8343 287.589C90.012 287.296 89.7635 282.137 86.3216 282.645C82.4195 282.887 80.8703 277.808 77.0081 278.491C78.1493 276.646 79.1003 275.109 80.6218 272.649C82.3121 274.467 83.3121 275.883 84.7724 277.567C85.7632 276.471 86.524 275.241 87.705 273.837C83.5637 271.432 80.1125 269.428 76.4313 267.291C76.6123 264.471 76.8332 262.091 76.6736 260.327C64.8693 255.144 53.0342 252.033 43.7024 242.853C41.9415 242.666 39.0702 242.252 36.8492 241.798C35.389 240.115 34.1588 238.565 32.2385 236.614C33.4993 236.092 34.9902 235.704 36.251 235.183C35.5208 234.341 34.6006 233.806 33.4103 232.697C31.9992 233.967 30.5881 235.237 28.7567 236.681C28.9377 233.861 28.9284 231.348 29.1094 228.528C26.1184 226.792 23.5876 225.322 21.0568 223.852C21.247 223.545 21.247 223.545 21.4372 223.237C30.0604 226.991 38.6836 230.745 48.4173 234.726C53.1477 241.233 61.3414 242.648 69.8848 245.52C71.3052 246.763 73.4157 248.406 75.7962 250.624C76.9374 248.78 77.6982 247.55 78.8393 245.705C76.1582 244.984 74.1673 244.664 71.2959 244.25C70.256 242.392 69.1762 240.094 68.0963 237.795C66.3355 237.608 65.4551 237.515 65.225 237.381C64.1452 235.083 62.8752 233.092 61.5254 230.218C61.5254 230.218 62.1358 229.737 62.9763 229.39C65.5777 229.229 68.1791 229.068 71.2007 228.733C70.851 227.276 70.5412 226.26 70.1914 224.804C70.8418 224.763 71.9124 224.549 72.983 224.335C70.7927 221.81 68.6024 219.284 66.1421 216.184C73.1762 214.418 78.6275 219.255 85.2598 222.688C85.5205 220.75 85.8211 219.253 86.0021 216.433C86.8825 216.527 88.9133 217.288 90.714 217.916C90.6741 217.475 90.5944 216.593 90.5545 216.152C93.6252 218.771 96.6561 220.948 100.187 223.835C101.678 223.447 103.399 223.192 105.12 222.938C104.58 221.789 104.73 221.04 104.27 220.773C101.009 218.462 97.3678 216.765 94.4473 213.398C92.0269 210.738 86.8947 209.43 81.873 206.932C82.103 207.065 81.603 206.357 81.103 205.649C76.5414 203.418 71.7895 201.494 66.9979 199.129C67.1389 195.868 67.3199 193.048 67.3107 190.535C71.9429 191.136 75.575 190.32 77.2069 186.671C76.667 185.521 75.897 184.238 75.6271 183.664C71.5348 184.213 67.4426 184.762 64.0007 185.27C59.6292 182.732 55.718 180.461 51.1165 177.789C57.2303 175.488 63.8534 176.409 70.277 175.125C71.0378 173.895 71.9888 172.358 72.7495 171.128C74.7005 171.007 76.0012 170.927 76.0012 170.927C78.802 172.971 80.9126 174.614 83.7134 176.659C84.2441 175.295 84.8146 174.373 84.5447 173.798C83.2746 171.807 81.5445 169.549 79.8143 167.29C83.7164 167.049 86.738 166.714 89.7596 166.379C90.4898 167.221 90.9898 167.929 91.9898 169.346C102.635 171.348 112.378 177.842 121.811 183.319C127.323 184.013 127.734 181.327 129.026 178.733C128.486 177.584 127.946 176.435 127.096 174.27C125.345 176.596 123.593 178.922 122.031 180.94C117.16 177.694 121.133 175.822 120.473 173.349C119.553 172.815 118.632 172.28 117.712 171.746C117.031 173.858 116.54 175.662 115.859 177.774C115.209 177.814 114.749 177.547 114.099 177.587C113.789 176.572 113.019 175.289 113.129 174.099C112.97 172.335 114.111 170.49 113.301 168.766C112.491 167.042 109.96 165.573 108.27 163.756C108.42 163.007 108.571 162.259 108.911 161.203C105.69 159.332 102.699 157.595 99.9381 155.992C98.9073 156.647 97.8766 157.302 96.4256 158.131C95.1955 156.581 94.0052 155.472 93.0052 154.056C91.4744 154.003 89.5234 154.123 87.5723 154.244C87.603 152.172 88.0539 149.927 88.2748 147.548C85.7439 146.078 83.6334 144.435 81.1026 142.965C80.2927 141.241 79.2528 139.384 77.9428 136.951C76.4121 136.898 74.8813 136.845 73.7708 136.618C73.2708 135.91 72.961 134.894 72.4609 134.186C70.74 134.44 68.9791 134.254 67.2582 134.508C66.5281 133.666 65.7581 132.383 64.7979 131.408C63.0371 131.221 61.4664 130.727 58.1748 130.487C58.2055 128.415 58.1963 125.903 57.9969 123.697C57.1164 123.604 56.4661 123.644 55.3955 123.858C56.4661 123.644 57.3465 123.738 59.908 123.136C55.8464 121.613 53.3954 121.025 50.9044 119.997C50.4749 117.658 49.8552 115.627 49.4258 113.288C47.7447 113.983 46.4839 114.505 44.8028 115.2C43.8027 113.783 42.6125 112.674 41.6124 111.258C40.5817 111.913 39.7412 112.261 38.4804 112.782C37.1306 109.909 35.8207 107.477 34.4709 104.604C32.9002 104.109 30.9093 103.789 27.538 102.667C30.7099 101.584 32.2008 101.196 33.0413 100.848C45.5359 106.432 57.3403 111.615 68.9545 117.106C70.5957 115.969 72.2369 114.833 74.4885 113.215C74.329 111.451 67.077 105.986 54.9229 99.3464C52.9719 99.4672 51.0208 99.5879 48.8397 99.575C48.9502 98.3855 49.0606 97.1959 49.0913 95.1243C46.9899 95.9935 45.3089 96.6889 44.4683 97.0366C39.5876 91.2772 34.7561 88.4715 28.5533 87.377C28.2833 86.8023 27.9735 85.7866 27.4734 85.0784C25.2831 82.5528 21.8504 85.5741 19.7705 81.859C19.2306 80.7097 15.8991 80.0289 13.6383 79.1339C10.8774 77.5306 8.34653 76.061 4.66533 73.9234C6.76666 73.0542 8.21766 72.2252 9.47846 71.7037C15.4911 73.1057 19.2613 78.6381 25.1542 78.717C27.4642 82.5657 32.7467 83.1259 36.2776 86.012C40.4987 89.2989 45.5604 92.2382 51.3429 93.5066C54.6744 94.1875 58.2053 97.0736 61.6564 99.0776C66.0278 101.616 69.979 104.328 74.9517 103.873C75.0529 100.171 65.1382 99.01 68.1015 93.2088C70.0219 95.1597 71.4422 96.4024 73.1325 98.2197C74.9332 98.8474 77.8444 99.7022 80.5655 100.864C83.0963 102.334 85.7468 105.127 88.0076 106.022C91.5692 106.836 93.6399 108.039 94.5694 111.086C96.5204 110.965 98.4714 110.844 100.002 110.897C101.002 112.314 102.193 113.423 103.423 114.973C104.874 114.144 105.904 113.489 107.355 112.66C110.846 115.105 114.337 117.55 119.019 121.104C119.479 121.371 121.7 121.825 124.381 122.547C124.341 122.105 124.721 121.491 124.491 121.357C121.23 119.046 119.491 114.274 113.908 115.211C110.877 113.033 107.506 111.911 104.815 108.678C101.395 104.602 96.6737 100.607 90.7715 98.0153C87.8204 96.7195 85.6301 94.1939 81.679 91.4816C81.0286 91.5219 79.0776 91.6426 76.6664 91.4961C74.1356 90.0265 71.1446 88.2897 67.9236 86.4192C68.0739 85.6707 68.1843 84.4812 68.2149 82.4096C66.1136 83.2788 64.4325 83.9742 61.4907 85.1911C61.6716 82.3709 61.7821 81.1814 61.9324 80.4329C60.2421 78.6156 57.9015 76.8385 55.251 74.0458C53.6098 75.1822 51.5085 76.0514 49.0267 77.5355C47.8764 76.8675 46.2658 75.9323 44.1952 74.7299C44.7657 73.8075 45.5265 72.5777 46.0971 71.6554C44.6369 69.9717 43.4466 68.8626 41.9864 67.1789C43.4773 66.791 44.7381 66.2695 45.9989 65.7479C45.4988 65.0397 45.189 64.024 44.8792 63.0083C44.8393 62.5672 44.5693 61.9926 44.5693 61.9926C41.8882 61.2715 39.207 60.5503 36.1056 60.003C35.7253 60.6179 35.5749 61.3664 35.1946 61.9813C37.2254 62.7427 39.2163 63.063 41.2471 63.8244C40.9066 64.8803 40.7562 65.6288 40.2256 66.9922C36.7744 64.9882 33.5534 63.1177 30.3323 61.2473C30.4428 60.0578 30.363 59.1757 30.4734 57.9861C28.2923 57.9733 26.3413 58.094 24.3902 58.2147C23.8105 56.6244 22.8104 55.2079 22.1907 53.1765C20.9299 53.698 19.439 54.0859 16.9174 55.129C16.4082 51.908 15.9787 49.5692 15.6995 46.4819C17.6904 46.8022 19.2611 47.2964 21.7121 47.8839C21.5925 46.5607 21.7029 45.3712 21.5434 43.607C22.1937 43.5668 23.4944 43.4863 25.4454 43.3656C25.5651 44.6887 25.4546 45.8783 25.5743 47.2014C27.9057 46.4658 29.1266 45.5032 30.4273 45.4227C31.9581 45.4758 33.7588 46.1036 35.5595 46.7314C35.8295 47.306 36.3295 48.0143 36.9093 49.6046C38.4401 49.6577 40.2009 49.8445 42.1918 50.1648C43.422 51.7149 44.6521 53.265 46.5725 55.2159C47.6032 54.5608 48.4437 54.2131 50.0849 53.0767C45.4834 50.4046 41.5721 48.1334 37.6608 45.8622C38.9922 43.71 40.1334 41.8654 41.2745 40.0207C42.0445 41.3036 42.3543 42.3193 42.6243 42.8939C47.3761 44.8175 51.4776 46.7813 55.5392 48.304C56.5791 50.1616 56.9288 51.6183 57.4688 52.7676C56.5178 54.3048 55.3766 56.1495 54.4257 57.6867C53.0452 56.8851 51.8948 56.2171 50.5543 55.8566C49.6033 57.3938 48.8425 58.6236 47.7014 60.4682C50.6433 59.2513 52.5544 58.6896 54.4257 57.6867C55.576 58.3548 56.9565 59.1564 59.0272 60.3588C59.0578 58.2872 58.9382 56.964 58.7388 54.7588C60.9199 54.7716 63.9814 54.8779 66.8128 54.8505C65.3128 52.7258 64.0826 51.1757 63.0826 49.7592C62.2727 48.0352 61.4628 46.3113 60.383 44.0127C59.5823 44.8014 58.9719 45.2827 57.7509 46.2453C54.76 44.5084 51.769 42.7716 48.0878 40.634C48.6584 39.7116 49.4191 38.4819 49.9897 37.5595C53.8212 38.9487 57.8828 40.4714 61.9444 41.9941C62.4444 42.7024 62.7543 43.7181 63.2543 44.4263C66.9263 44.0513 69.6473 45.2135 71.037 48.5278C74.2887 48.3266 76.3992 49.97 78.1693 52.6694C82.8321 51.1982 82.4702 56.8385 86.2219 57.3455C86.6422 57.1717 87.6729 56.5165 89.3141 55.3801C89.5135 57.5854 89.8632 59.0421 89.7129 59.7906C96.2256 61.9009 100.747 63.6908 105.459 65.1733C105.959 65.8816 106.269 66.8973 106.769 67.6055C107.65 67.6989 108.72 67.4848 110.251 67.5379C111.021 68.8208 112.021 70.2373 113.211 71.3464C116.583 72.4683 119.914 73.1492 123.976 74.6719C123.316 72.1995 122.696 70.1681 122.077 68.1367C123.838 68.3234 125.789 68.2027 128.43 68.4828C125.089 65.2892 122.479 62.9375 120.058 60.2783C119.178 60.185 118.107 60.3991 116.346 60.2123C115.806 59.063 115.457 57.6063 114.417 55.7487C116.558 55.3206 118.279 55.0662 120.42 54.6381C121.38 55.6135 122.341 56.589 123.571 58.1391C126.902 58.82 130.694 59.7681 135.176 61.117C132.476 55.3705 124.592 54.9713 122.123 49.3584C115.73 48.5713 116.208 53.8638 113.196 56.7113C110.285 55.8566 106.913 54.7347 102.892 53.653C102.542 52.1962 102.152 50.2984 101.572 48.7081C98.9312 48.428 97.5906 48.0674 94.7193 47.6537C95.4402 45.9829 95.9709 44.6195 96.5016 43.2561C99.6428 44.2445 103.204 45.059 107.456 46.2743C107.576 47.5974 107.545 49.669 107.554 52.1817C110.917 50.791 112.598 50.0956 114.699 49.2264C114.199 48.5181 113.199 47.1016 112.429 45.8187C112.009 45.9926 111.358 46.0328 110.478 45.9394C109.748 45.0976 109.208 43.9483 108.018 42.8392C106.487 42.7861 104.916 42.292 103.155 42.1052C98.1243 37.0943 92.9031 32.3909 88.1022 27.5136C87.0316 27.7277 86.3813 27.768 85.5008 27.6746C84.3106 26.5655 83.5406 25.2826 82.0804 23.5989C80.1692 24.1607 78.4483 24.415 76.307 24.8432C74.0676 19.3639 68.3955 16.9059 64.4137 16.2653C59.2815 14.9566 58.4225 10.279 53.41 10.2934C53.0909 6.76506 52.8117 3.67772 52.5326 0.590385C67.8586 6.14695 81.6631 14.1631 97.299 20.7353C103.68 28.6195 114.935 30.1406 125.439 35.4042C125.939 36.1125 126.939 37.529 128.319 38.3306C135.531 43.3543 143.694 46.8409 151.818 49.8864C152.508 50.2872 154.459 50.1664 154.459 50.1664C156.198 54.9375 160.901 53.9073 164.312 55.4703C164.852 56.6196 165.352 57.3279 165.932 58.9182C166.733 58.1295 167.533 57.3407 168.144 56.8594C163.803 52.2494 156.109 51.5427 153.64 45.9298C146.056 44.0336 140.765 40.9608 134.433 36.0304C134.543 34.8408 134.464 33.9587 134.764 32.4618C131.442 34.2936 128.12 36.1253 123.129 31.5555C125.46 30.8199 127.792 30.0843 130.543 29.1748C127.362 27.7454 125.331 26.9841 123.07 26.0891C124.021 24.5519 124.972 23.0146 126.304 20.8625C133.657 22.6251 140.4 24.869 145.97 31.0292C147.431 32.7129 150.992 33.5274 153.523 34.997C155.324 35.6248 156.894 36.1189 158.465 36.6131C159.125 39.0855 159.554 41.4244 160.174 43.4558C162.085 42.894 163.616 42.9471 165.527 42.3853C165.527 42.3853 165.297 42.2517 165.107 42.5592C165.377 43.1338 165.647 43.7085 165.726 44.5906C165.956 44.7242 166.377 44.5503 166.607 44.6839C166.337 44.1093 165.837 43.401 165.337 42.6928C166.828 42.3049 168.088 41.7833 169.389 41.7028C177.132 45.3632 183.003 50.0264 187.464 55.9596C196.118 57.6417 204.661 60.5134 213.134 65.0156C220.226 68.7162 226.218 74.7026 234.602 75.81C236.761 80.4072 242.314 81.542 246.265 84.2543C249.026 85.8576 251.866 88.3429 255.308 87.8342C259.17 87.1517 258.158 92.8322 262.941 92.6841C264.701 92.8709 267.662 96.6793 270.193 98.149C272.723 99.6186 275.405 100.34 279.466 101.862C279.466 101.862 280.236 103.145 281.236 104.562C283.157 106.513 288.39 104.119 289.249 108.797C292.841 107.54 295.841 111.789 299.593 112.296C302.234 112.576 304.354 116.733 308.216 116.05C308.946 116.892 309.256 117.908 309.986 118.749C310.256 119.324 311.217 120.3 311.407 119.992C314.658 119.791 315.778 122.531 317.849 123.733C321.03 125.162 324.552 125.536 328.343 126.484C329.233 129.09 331.304 130.292 334.936 129.476C338.856 134.26 343.347 138.122 349.891 138.16C350.891 139.577 351.661 140.86 352.621 141.835C354.382 142.022 355.952 142.516 358.173 142.97C358.903 143.812 359.443 144.961 360.483 146.819C361.664 145.415 362.425 144.185 363.796 142.474C361.535 141.579 359.965 141.085 357.514 140.498C353.213 136.329 347.421 132.547 340.488 130.611C339.378 130.384 337.847 130.331 337.577 129.756C331.236 122.313 320.751 122.075 313.879 115.995C311.999 114.485 310.308 112.668 308.158 110.584C306.207 110.704 303.796 110.558 301.194 110.719C300.234 109.743 299.694 108.594 298.694 107.178C298.044 107.218 297.164 107.124 296.513 107.165C292.752 104.145 288.801 101.433 285.5 98.6801C283.129 98.9747 281.598 98.9216 279.877 99.1759C277.537 97.3989 275.196 95.6218 273.085 93.9783C270.975 92.3348 269.134 91.266 266.833 89.93C258.17 85.7352 249.618 80.3509 241.335 75.5412C240.645 75.1404 240.295 73.6837 239.795 72.9754C238.915 72.8821 237.844 73.0961 236.313 73.043C235.583 72.2012 234.623 71.2257 233.623 69.8092C225.389 67.9533 218.748 62.0072 210.965 57.9057C208.894 56.7033 206.784 55.0599 203.753 52.882C203.103 52.9222 201.192 53.484 200.771 53.6578C191.958 50.2115 186.347 43.6103 177.963 42.5029C177.334 37.9588 172.171 38.7217 169.141 36.5439C166.07 33.9249 162.389 31.7873 158.707 29.6497C156.407 28.3137 153.376 26.1358 151.845 26.0827C147.753 26.6316 149.305 22.1004 146.283 22.4352C145.213 22.6493 144.332 22.5559 143.452 22.4625C139.921 19.5764 136.62 16.8239 133.049 13.4967C134.961 12.9349 136.451 12.547 138.363 11.9852C144.805 15.7261 151.247 19.4669 157.459 23.0742C158.259 22.2855 158.87 21.8042 159.671 21.0154C161.781 22.6589 163.211 26.4143 166.153 25.1974C168.263 26.8408 170.144 28.3507 171.564 29.5933C173.895 28.8577 176.227 28.1221 177.488 27.6006C182.239 29.5241 186.341 31.4879 191.323 33.5451C193.823 37.0863 198.845 39.5845 204.057 41.7753C212.91 45.6626 221.343 49.7238 229.095 55.8969C232.166 58.5158 237.258 59.3834 242.01 61.307C242.28 61.8816 242.86 63.472 243.36 64.1802C247.771 67.1597 251.722 69.872 256.133 72.8515C257.854 72.5971 259.765 72.0354 261.717 71.9147C262.566 74.0797 263.336 75.3626 263.916 76.9529C266.177 77.8479 269.999 76.7243 269.978 81.3087C272.539 80.7066 274.26 80.4523 276.171 79.8906C277.402 81.4407 278.362 82.4161 280.012 83.7924C282.613 83.6314 284.914 84.9674 286.264 87.8407C290.927 86.3694 290.755 91.7023 293.896 92.6906C295.197 92.6101 296.918 92.3558 298.219 92.2753C307.121 99.1164 316.134 104.768 327.628 108.935C327.858 109.069 328.859 110.485 330.089 112.036C332.08 112.356 334.071 112.676 335.871 113.304C336.641 114.587 336.951 115.603 337.451 116.311C338.101 116.271 338.752 116.23 339.402 116.19C340.052 116.15 341.203 116.818 341.433 116.951C342.062 121.496 350.737 118.593 349.495 124.14C352.136 124.42 353.707 124.914 355.698 125.235C356.237 126.384 356.968 127.226 357.508 128.375C358.388 128.469 359.649 127.947 360.569 128.481C369.002 132.543 376.374 139.331 385.718 141.414C387.838 145.57 393.35 146.263 396.461 149.323C399.111 152.116 403.274 149.937 405.394 154.093C406.434 155.95 411.367 155.054 412.566 158.676C428.772 164.326 442.166 175.028 457.461 182.656C458.842 183.458 460.793 183.337 462.594 183.965C464.474 185.475 465.974 187.6 468.045 188.802C470.576 190.272 473.447 190.685 476.168 191.848C478.429 192.743 478.938 195.963 482.84 195.722C484.561 195.468 485.19 200.012 489.282 199.463C491.654 199.168 492.433 202.964 495.574 203.952C498.255 204.673 501.016 206.277 503.777 207.88C506.538 209.483 509.299 211.086 511.83 212.556C512.98 213.224 513.33 214.681 514.29 215.656C515.17 215.749 516.241 215.535 517.542 215.455C521.192 219.664 525.493 223.833 532.036 223.872C533.036 225.288 534.227 226.397 535.687 228.081C536.797 228.308 538.098 228.228 539.629 228.281C540.129 228.989 540.439 230.005 540.669 230.138C546.341 232.596 551.363 235.094 557.035 237.552C558.075 239.41 558.694 241.441 559.734 243.299C562.185 243.886 565.287 244.434 568.158 244.847C569.118 245.823 570.118 247.239 571.349 248.789C572.8 247.96 573.41 247.479 575.051 246.343C576.281 247.893 577.702 249.136 579.622 251.086C580.732 251.313 582.263 251.367 584.484 251.82C585.214 252.662 585.754 253.812 586.524 255.094C589.356 255.067 592.187 255.04 592.316 258.876C593.617 258.795 594.727 259.022 596.028 258.942C597.258 260.492 598.488 262.042 599.909 263.284C601.439 263.338 602.78 263.698 604.311 263.751C606.501 266.277 608.691 268.802 611.652 272.611C612.872 271.648 614.284 270.378 615.925 269.242C617.965 272.516 618.465 273.224 618.695 273.358C623.947 275.99 628.969 278.488 633.99 280.986C634.349 284.955 642.414 282.534 641.592 287.908C646.755 287.145 649.645 292.584 654.467 292.877C663.679 300.733 663.679 300.733 673.103 303.698C674.444 304.059 676.054 304.994 677.244 306.103C684.536 312.009 684.536 312.009 695.69 317.232C697.721 317.994 700.102 320.212 702.212 321.855C703.863 323.232 705.703 324.3 707.734 325.062C708.654 325.596 710.375 325.342 710.605 325.475C714.066 329.992 720.339 329.456 724.18 333.358C724.91 334.2 724.99 335.082 725.49 335.79C737.015 337.886 744.506 345.997 753.099 351.822C755.47 351.528 757.651 351.541 758.531 351.634C760.421 355.657 762.081 359.546 763.931 363.127C763.28 363.167 762.4 363.074 760.679 363.328C759.639 361.471 758.599 359.613 757.289 357.181C755.798 357.569 754.537 358.091 752.396 358.519C748.025 355.98 742.733 352.907 737.671 349.968C737.782 348.779 737.702 347.896 738.043 346.841C737.122 346.306 736.432 345.905 735.512 345.371C734.671 345.719 733.871 346.507 733.03 346.855C732.15 346.762 731.689 346.494 730.999 346.094C724.557 342.353 718.265 337.863 710.682 335.967C709.572 335.74 708.572 334.324 707.341 332.774C704.66 332.053 701.519 331.064 697.497 329.983C697.417 329.1 696.838 327.51 696.568 326.935C689.285 323.542 682.693 320.55 675.41 317.157C675.18 317.023 674.64 315.874 673.68 314.898C665.866 312.869 662.645 310.998 658.765 306.655C656.044 305.493 654.053 305.173 652.212 304.104C648.341 302.274 644.73 298.506 640.178 298.787C638.708 294.591 633.846 293.857 630.585 291.545C629.895 291.145 628.174 291.399 627.294 291.305C625.073 290.852 623.042 290.09 619.671 288.968C622.002 288.233 622.842 287.885 624.563 287.631C618.351 284.023 613.48 280.777 607.808 278.319C609.047 282.382 609.787 285.736 610.486 288.65C616.078 290.225 621.02 291.842 626.192 293.591C626.573 292.976 627.143 292.054 627.524 291.439C628.444 291.973 629.594 292.642 630.745 293.31C630.825 294.192 630.484 295.248 630.413 296.878C631.714 296.798 632.825 297.025 634.585 297.211C635.625 299.069 636.895 301.06 637.935 302.918C641.307 304.04 645.098 304.988 649.35 306.203C649.85 306.911 650.39 308.06 651.62 309.611C652.961 309.971 654.492 310.024 657.133 310.304C657.483 311.761 657.872 313.659 658.182 314.675C665.195 317.493 671.327 320.218 677.919 323.211C680.92 327.46 685.751 330.266 692.374 331.187C692.543 335.463 698.166 334.968 701.047 337.894C703.467 340.553 708.98 341.247 712.661 343.385C716.762 345.348 721.094 347.446 723.444 351.736C724.744 351.655 725.855 351.882 727.386 351.935C727.655 352.51 727.925 353.084 728.195 353.659C730.686 354.688 733.367 355.409 735.628 356.304C735.908 359.391 736.147 362.037 736.276 365.873C740.558 365.017 743.77 364.375 747.172 363.425C750.853 365.563 754.765 367.834 760.286 371.04C756.765 370.667 754.584 370.654 752.593 370.334C752.632 370.775 752.672 371.216 752.712 371.657C754.513 372.284 756.124 373.22 758.384 374.115C758.614 374.248 759.384 375.531 760.384 376.948C762.566 376.961 764.937 376.666 766.698 376.853C767.508 378.577 768.087 380.167 769.207 382.907C771.189 380.714 772.18 379.618 773.401 378.656C775.241 379.724 776.852 380.66 779.152 381.996C778.582 382.918 778.011 383.84 777.441 384.763C777.441 384.763 777.211 384.629 777.401 384.322C776.75 384.362 775.87 384.268 775.22 384.309C775.45 384.442 775.49 384.883 775.72 385.017C776.37 384.977 777.02 384.936 777.861 384.589C778.861 386.005 779.901 387.863 781.901 390.696C785.082 392.125 789.224 394.53 795.356 397.255C796.427 397.041 799.218 396.573 803.27 395.583C802.439 398.443 801.908 399.807 801.227 401.918C804.448 403.789 807.67 405.659 811.581 407.93C809.63 408.051 808.559 408.265 807.489 408.479C804.307 407.05 802.758 401.972 798.365 404.017C797.595 402.735 796.825 401.452 796.055 400.169C793.074 400.945 790.512 401.547 787.721 402.015C786.26 400.331 785.49 399.048 784.26 397.498C783.38 397.405 782.079 397.485 781.389 397.085C778.358 394.907 775.747 392.555 772.177 389.228C771.336 389.575 769.615 389.83 767.474 390.258C766.014 388.574 765.014 387.158 764.014 385.741C762.253 385.555 760.682 385.06 759.151 385.007C756.501 382.215 753.85 379.422 751.01 376.936C749.709 377.017 747.988 377.271 745.387 377.432C742.776 375.08 738.984 374.132 735.834 370.631C732.183 366.422 725.901 364.445 721.118 364.594C716.397 360.598 712.136 356.87 707.875 353.142C706.234 354.279 705.394 354.626 704.363 355.282C696.39 351.488 690.439 345.942 684.257 340.263C676.754 339.249 670.993 333.397 663.94 330.137C663.33 330.618 662.299 331.273 660.848 332.102C660.348 331.394 659.848 330.686 659.848 330.686C656.207 328.989 652.985 327.119 649.614 325.997C648.694 325.463 647.203 325.85 646.132 326.065C646.132 326.065 645.902 325.931 646.093 325.624C645.442 325.664 644.562 325.57 643.911 325.611C644.141 325.744 644.181 326.185 644.411 326.319C645.062 326.279 645.712 326.238 646.553 325.891C648.663 327.534 650.814 329.619 652.924 331.262C655.495 333.173 658.216 334.335 660.057 335.404C662.508 335.991 664.078 336.486 665.379 336.405C666.68 336.325 667.901 335.362 669.431 335.415C670.312 335.508 671.502 336.618 673.343 337.686C671.622 337.941 670.551 338.155 668.18 338.449C673.201 340.948 676.352 344.449 681.365 344.434C684.285 347.801 684.285 347.801 689.417 349.11C689.997 350.701 690.767 351.983 691.577 353.707C697.178 357.796 702.93 361.136 709.664 360.867C712.284 365.732 718.066 367 722.477 369.979C726.659 372.825 732.251 374.401 735.061 378.958C740.764 379.344 744.525 382.364 747.755 386.747C749.516 386.934 751.087 387.428 753.077 387.749C753.617 388.898 754.347 389.74 755.348 391.156C758.719 392.278 762.51 393.226 767.222 394.709C767.992 395.992 768.802 397.716 770.072 399.707C772.063 400.027 773.824 400.214 776.045 400.668C776.585 401.817 777.315 402.659 778.085 403.942C778.965 404.035 780.036 403.821 781.567 403.874C782.527 404.85 783.257 405.691 784.487 407.242C784.717 407.375 785.978 406.854 786.668 407.254C789.009 409.031 790.929 410.982 793.23 412.318C795.301 413.521 798.132 413.494 800.203 414.696C803.464 417.007 806.114 419.8 809.415 422.553C806.624 423.021 804.022 423.182 801.421 423.343C796.5 417.143 789.448 413.883 782.776 410.009C782.085 409.608 780.594 409.996 779.714 409.902C778.475 405.84 773.382 404.972 770.352 402.794C768.4 402.915 766.68 403.169 765.379 403.25C760.658 399.254 755.746 395.567 750.335 391.171C748.614 391.425 746.433 391.412 743.601 391.439C742.181 390.197 740.951 388.647 739.301 387.27C738.11 386.161 735.819 387.338 734.699 384.598C734.159 383.449 731.208 382.153 729.137 380.951C727.527 380.016 725.186 378.239 724.116 378.453C721.364 379.362 721.465 375.66 719.744 375.914C717.793 376.035 716.683 375.808 715.183 373.683C714.413 372.4 712.492 370.449 711.382 370.222C705.179 369.128 701.63 361.216 695.206 362.501C692.595 360.149 690.025 358.239 687.874 356.154C687.454 356.328 686.843 356.809 686.423 356.983C687.883 358.667 689.114 360.217 690.804 362.034C692.684 363.544 694.795 365.187 697.636 367.673C703.528 367.752 708.059 372.054 712.21 376.972C711.989 379.351 711.728 381.289 711.468 383.227C715.149 385.365 718.14 387.101 719.75 388.037C722.83 393.168 725.37 397.151 727.91 401.133C727.34 402.055 726.579 403.285 725.818 404.515C722.407 402.952 717.775 402.351 715.585 399.826C712.474 396.766 708.063 393.786 705.191 393.373C701.019 393.039 699.43 387.52 695.228 389.258C694.648 387.668 694.298 386.211 693.948 384.755C688.776 383.005 684.254 381.215 679.312 379.599C678.812 378.891 678.082 378.049 676.082 375.216C676.361 378.303 676.291 379.934 676.26 382.005C686.153 387.75 695.817 393.361 705.48 398.973C706.63 399.641 708.161 399.694 709.501 400.054C713.713 400.829 715.253 403.394 716.183 406.442C713.812 406.736 711.4 406.59 708.149 406.791C706.538 405.856 704.237 404.52 700.786 402.516C701.636 404.681 701.756 406.004 702.676 406.538C707.968 409.611 713.029 412.55 718.321 415.623C720.162 416.692 723.493 417.373 723.993 418.081C726.113 422.237 730.745 422.838 734.046 425.59C734.067 421.006 734.629 417.571 741.402 417.743C744.402 421.992 748.203 425.453 755.167 425.318C755.556 427.216 755.906 428.673 756.296 430.57C752.924 429.448 749.093 428.059 745.261 426.67C744.691 427.593 743.93 428.822 742.979 430.36C747.961 432.417 751.611 436.626 757.274 436.571C762.845 442.731 769.747 446.739 778.021 449.036C782.512 452.898 787.273 457.334 792.454 461.597C792.264 461.904 791.884 462.519 791.503 463.134C790.623 463.041 789.743 462.947 789.282 462.68C784.681 460.008 781.981 454.261 775.628 453.915C770.155 453.663 766.996 447.649 761.143 448.011C759.612 447.958 755.971 446.261 755.201 444.979C752.081 439.406 746.608 439.153 740.135 437.484C741.595 439.168 743.016 440.41 744.976 442.802C747.697 443.964 752.909 446.155 757.01 448.119C759.281 451.527 761.241 453.919 763.281 457.193C760.069 457.835 757.468 457.996 754.676 458.464C754.136 457.315 753.406 456.473 752.826 454.883C751.065 454.696 749.535 454.643 747.544 454.323C746.774 453.04 745.584 451.931 744.123 450.247C743.013 450.02 741.712 450.1 741.482 449.967C739.181 448.631 737.031 446.546 736.15 446.453C732.899 446.654 734 444.368 732.62 443.567C730.589 442.805 728.558 442.044 725.837 440.882C725.337 440.174 723.917 438.931 721.036 436.005C721.125 439.399 721.475 440.856 721.404 442.487C734.54 445.518 741.62 456.315 753.194 461.365C753.624 463.704 754.014 465.601 754.213 467.807C755.093 467.9 756.164 467.686 757.044 467.779C757.314 468.354 757.584 468.929 758.084 469.637C762.486 470.104 766.128 471.8 766.987 476.478C765.646 476.117 764.306 475.757 762.735 475.263C761.974 476.493 761.213 477.722 760.072 479.567C762.523 480.154 764.284 480.341 765.165 480.435C766.165 481.851 767.165 483.268 768.435 485.259C766.293 485.687 764.763 485.634 762.852 486.196C755.259 481.787 747.667 477.378 739.614 472.702C741.393 477.914 741.393 477.914 747.406 479.316C747.906 480.024 748.216 481.04 748.986 482.323C750.096 482.55 751.437 482.91 753.658 483.364C753.928 483.939 754.468 485.088 755.388 485.622C760.299 489.31 765.631 492.824 770.963 496.338C771.423 496.605 772.263 496.258 773.144 496.351C773.684 497.5 774.223 498.649 774.763 499.799C773.693 500.013 772.662 500.668 771.171 501.056C771.711 502.205 772.061 503.662 772.871 505.386C774.932 504.076 776.803 503.073 777.834 502.418C780.666 502.39 783.166 505.932 783.715 509.594C786.476 511.197 789.467 512.934 794.068 515.606C794.719 515.565 796.67 515.445 798.391 515.19C798.2 515.498 798.05 516.246 797.75 517.743C799.13 518.545 800.74 519.48 801.931 520.589C802.891 521.565 803.431 522.714 804.201 523.997C806.192 524.317 807.762 524.811 809.523 524.998C809.603 525.88 809.873 526.455 810.183 527.471C809.333 525.306 810.213 525.399 811.514 525.318ZM620.784 310.927C620.554 310.794 620.744 310.486 620.514 310.353C619.864 310.393 618.983 310.3 618.333 310.34C618.563 310.473 618.603 310.914 618.833 311.048C619.484 311.008 620.134 310.968 620.704 310.045C620.514 310.353 620.744 310.486 620.784 310.927C621.435 310.887 622.315 310.98 622.965 310.94C622.735 310.807 622.695 310.366 622.465 310.232C622.005 309.965 621.355 310.005 620.784 310.927ZM109.708 75.9983C109.938 76.1319 109.748 76.4393 109.978 76.573C110.628 76.5327 111.509 76.6261 112.159 76.5858C111.929 76.4522 111.889 76.0112 111.659 75.8776C111.009 75.9178 110.358 75.9581 109.788 76.8804C109.748 76.4393 109.708 75.9983 109.708 75.9983C109.058 76.0385 108.177 75.9452 107.527 75.9854C107.757 76.119 107.797 76.5601 108.027 76.6937C108.257 76.8273 109.098 76.4796 109.708 75.9983ZM538.374 626.635C538.604 626.769 538.794 626.461 539.024 626.595C538.754 626.02 538.484 625.446 538.404 624.564C538.174 624.43 537.754 624.604 537.524 624.47C537.794 625.045 538.294 625.753 539.214 626.288C538.794 626.461 538.564 626.328 538.374 626.635C538.644 627.21 538.914 627.785 538.993 628.667C539.223 628.8 539.644 628.626 539.874 628.76C539.564 627.744 539.294 627.17 538.374 626.635ZM652.722 338.667C652.952 338.8 653.142 338.493 653.372 338.626C653.102 338.052 652.832 337.477 652.752 336.595C652.522 336.461 652.102 336.635 651.872 336.502C652.142 337.076 652.642 337.785 657.253 342.969C656.633 340.938 656.363 340.363 656.133 340.23C655.213 339.695 654.102 339.468 652.992 339.241C653.532 340.391 654.912 341.192 652.722 338.667ZM229.445 88.6954C229.215 88.5618 229.025 88.8692 228.795 88.7356C229.064 89.3103 229.334 89.8849 229.414 90.767C229.644 90.9006 230.065 90.7268 230.295 90.8604C230.025 90.2857 229.525 89.5775 227.414 87.934C228.104 88.3348 228.795 88.7356 229.445 88.6954C229.785 87.6394 230.126 86.5835 230.276 85.835C229.816 85.5678 229.356 85.3006 228.896 85.0334C228.555 86.0893 227.985 87.0117 229.445 88.6954ZM133.167 181.138C133.397 181.272 133.587 180.964 133.817 181.098C133.547 180.523 133.278 179.949 133.198 179.067C132.968 178.933 132.547 179.107 132.317 178.973C132.587 179.548 133.087 180.256 135.198 181.9C134.508 181.499 133.817 181.098 133.167 181.138C132.636 182.502 132.106 183.865 131.385 185.536C132.916 185.589 133.526 185.108 133.906 184.493C134.477 183.57 134.627 182.822 133.167 181.138ZM118.014 326.958C117.784 326.824 117.594 327.132 117.363 326.998C117.633 327.573 117.903 328.147 117.983 329.029C118.213 329.163 118.634 328.989 118.864 329.123C118.784 328.241 118.514 327.666 118.014 326.958C118.244 327.091 118.664 326.917 119.314 326.877C118.314 325.461 117.084 323.911 115.814 321.919C115.244 322.842 114.633 323.323 113.872 324.553C115.293 325.795 116.443 326.463 118.014 326.958ZM177.834 424.378C177.374 424.111 176.913 423.843 176.683 423.71C175.963 425.381 175.432 426.744 174.941 428.548C176.742 429.176 177.662 429.711 178.542 429.804C178.153 427.906 177.993 426.142 176.913 423.843C177.484 422.921 177.825 421.865 178.395 420.943C177.015 420.141 175.674 419.781 174.294 418.979C173.723 419.901 173.573 420.65 173.002 421.572C174.383 422.374 175.763 423.175 177.834 424.378ZM78.4335 103.805C78.6635 103.939 78.8537 103.631 79.0838 103.765C78.8138 103.19 78.5439 102.616 78.4641 101.734C78.2341 101.6 77.8138 101.774 77.5837 101.64C77.8537 102.215 78.3537 102.923 79.8844 102.976C78.5531 105.128 77.7923 106.358 76.461 108.51C79.5624 109.058 81.7435 109.07 84.3847 109.35C82.6945 107.533 81.4643 105.983 78.4335 103.805ZM185.153 437.822C184.923 437.688 184.733 437.995 184.503 437.862C184.773 438.437 185.043 439.011 185.123 439.893C185.353 440.027 185.773 439.853 186.003 439.987C185.733 439.412 185.233 438.704 177.96 437.823C180.331 437.529 182.742 437.675 185.113 437.381C184.304 435.657 183.303 434.24 181.763 431.674C180.352 432.944 179.742 433.426 178.901 433.773C178.061 434.121 177.18 434.028 176.11 434.242C176.92 435.966 177.42 436.674 185.153 437.822ZM192.721 425.083C188.469 423.867 184.868 422.612 179.696 420.862C181.316 424.31 182.205 426.916 183.055 429.081C184.816 429.268 185.696 429.361 186.767 429.147C188.227 430.831 189.457 432.381 190.917 434.065C192.598 433.369 193.629 432.714 195.31 432.019C196.31 433.435 197.31 434.852 198.271 435.827C200.492 436.281 202.903 436.428 204.894 436.748C205.756 431.816 201.363 433.862 200.212 433.194C198.482 430.935 197.252 429.385 195.332 427.435C197.893 426.832 200.264 426.538 204.547 425.682C199.415 424.373 196.504 423.518 193.592 422.663C193.482 423.853 193.292 424.16 192.721 425.083ZM407.25 169.797C408.98 172.055 410.67 173.872 411.9 175.423C417.493 176.998 422.435 178.614 427.607 180.364C427.717 179.175 427.868 178.426 427.868 178.426C412.913 169.742 398.418 161.325 383.923 152.908C383.463 152.641 382.623 152.989 381.972 153.029C381.662 152.013 381.162 151.305 380.892 150.73C375.911 148.673 371.159 146.75 365.717 144.425C366.106 146.323 366.266 148.087 366.925 150.56C373.708 153.245 380.3 156.237 388.424 159.282C388.463 159.723 389.043 161.314 389.353 162.33C394.105 164.253 397.936 165.642 401.538 166.898C402.728 168.007 403.498 169.29 404.228 170.132C405.489 169.61 406.369 169.703 407.25 169.797ZM223.06 444.79C224.68 448.238 226.07 451.552 227.69 455C228.57 455.093 230.331 455.28 232.322 455.6C233.092 456.883 233.822 457.725 234.362 458.874C237.724 457.484 241.776 456.494 241.607 452.217C240.377 450.667 238.957 449.424 237.997 448.449C232.674 447.447 227.312 446.005 223.06 444.79ZM431.049 179.856C431.708 182.328 432.328 184.359 432.868 185.509C435.779 186.363 437.81 187.125 441.181 188.247C443.132 188.126 446.384 187.925 448.985 187.764C451.056 188.966 452.246 190.075 453.397 190.743C452.676 192.414 452.375 193.911 451.845 195.275C452.345 195.983 452.845 196.691 453.345 197.399C454.796 196.57 456.247 195.741 458.118 194.738C459.198 197.037 459.778 198.627 460.008 198.761C461.578 199.255 463.569 199.576 466.71 200.564C461.91 195.687 458.989 192.319 455.268 189.74C447.826 184.583 438.982 183.208 431.049 179.856ZM113.707 373.35C110.336 372.228 106.925 370.665 104.013 369.81C102.363 368.434 101.173 367.325 99.5222 365.949C98.7615 367.178 98.3811 367.793 97.6203 369.023C108.814 374.687 119.778 380.218 131.892 386.417C131.883 383.904 131.684 381.699 131.905 379.32C131.174 378.478 130.674 377.77 129.944 376.928C128.493 377.757 127.042 378.586 125.631 379.856C125.051 378.266 124.781 377.691 124.281 376.983C122.33 377.103 120.379 377.224 116.667 377.158C116.508 375.394 116.578 373.763 116.529 370.81C115.118 372.08 114.508 372.561 113.707 373.35ZM537.604 239.642C536.463 241.486 535.893 242.409 534.751 244.253C538.273 244.627 540.914 244.907 543.556 245.187C544.056 245.895 544.595 247.045 545.556 248.02C547.547 248.34 549.307 248.527 551.068 248.714C552.068 250.13 553.068 251.547 554.259 252.656C555.789 252.709 556.9 252.936 558.24 253.296C558.82 254.887 556.188 257.119 560.86 258.161C561.891 257.506 563.152 256.984 564.413 256.463C566.103 258.28 566.873 259.563 568.063 260.672C570.925 258.573 568.775 256.488 567.585 255.379C563.293 253.723 560.342 252.427 557.391 251.132C553.749 249.435 549.458 247.779 547.497 245.387C544.727 241.271 540.485 242.568 537.604 239.642ZM139.776 386.816C149.439 392.428 158.412 397.638 167.615 402.982C168.186 402.06 168.566 401.445 169.327 400.215C164.345 398.158 160.695 393.949 155.262 394.137C152.372 388.698 147.05 387.697 141.917 386.388C140.457 384.704 139.037 383.462 137.347 381.644C135.825 384.104 134.874 385.641 133.162 388.408C136.144 387.632 137.865 387.378 139.776 386.816ZM507.744 225.227C509.333 230.747 514.204 233.993 518.045 237.895C518.836 234.594 519.477 232.041 520.158 229.929C517.888 226.521 513.686 228.26 511.186 224.719C509.415 222.019 504.473 220.403 500.332 217.998C501.912 221.005 503.182 222.996 504.262 225.295C504.682 225.121 505.563 225.214 507.744 225.227ZM190.135 408.537C187.454 407.816 185.463 407.496 183.432 406.734C181.171 405.839 178.91 404.944 175.959 403.648C175.499 403.381 174.499 401.965 173.039 400.281C172.048 401.377 171.477 402.3 170.487 403.396C173.708 405.266 176.238 406.736 178.769 408.205C180.61 409.274 184.362 409.781 184.902 410.931C186.791 414.953 190.264 412.373 192.184 414.324C192.914 415.166 193.454 416.315 193.914 416.582C195.905 416.902 197.246 417.263 198.356 417.49C199.126 418.773 199.856 419.615 199.126 418.773C201.617 419.801 202.958 420.162 204.528 420.656C203.449 418.358 202.949 417.649 202.409 416.5C201.108 416.581 200.228 416.487 198.927 416.568C197.697 415.018 196.237 413.334 195.006 411.784C193.706 411.864 192.825 411.771 191.525 411.851C191.215 410.836 190.715 410.127 190.135 408.537ZM35.1868 278.861C39.5981 281.84 40.5368 287.4 47.4697 289.337C47.4605 286.824 47.2611 284.619 47.4421 281.799C40.3987 281.052 43.313 272.297 35.0487 272.512C34.788 274.45 34.9475 276.215 35.1868 278.861ZM76.4239 67.1178C77.0037 68.7081 77.5436 69.8574 78.3535 71.5814C80.0744 71.327 81.9856 70.7653 83.2863 70.6848C86.7374 72.6888 89.4983 74.292 92.0291 75.7617C92.2592 75.8953 92.8697 75.414 93.52 75.3737C90.9493 73.4631 88.6087 71.686 86.268 69.9089C86.4582 69.6015 86.4582 69.6015 86.8785 69.4277C88.9093 70.189 90.7499 71.2578 92.5506 71.8856C94.4219 70.8828 95.6827 70.3613 97.1337 69.5323C93.9126 67.6618 90.9216 65.925 87.7006 64.0546C85.2189 65.5387 82.9672 67.1564 80.4855 68.6405C79.105 67.8389 77.7645 67.4783 76.4239 67.1178ZM730.12 565.393C731.841 565.138 733.562 564.884 735.933 564.589C734.894 562.732 734.123 561.449 733.314 559.725C729.611 562.172 728.632 556.171 724.921 556.105C721.859 555.999 717.938 551.215 714.426 553.354C717.497 555.973 720.567 558.592 724.098 561.478C725.209 561.705 726.97 561.892 728.5 561.945C729.08 563.535 729.58 564.243 730.12 565.393ZM466.281 198.225C467.48 201.847 468.06 203.437 468.64 205.027C472.803 202.848 474.321 209.998 478.564 208.701C478.984 208.527 481.214 211.493 482.675 213.177C484.586 212.615 486.267 211.92 488.138 210.917L487.868 210.343C481.006 206.776 474.794 203.168 466.281 198.225ZM593.282 271.973C588.681 269.301 585.04 267.605 582.009 265.427C578.978 263.249 575.717 260.938 571.496 257.651C572.195 260.564 572.585 262.462 573.014 264.801C575.005 265.121 576.576 265.615 578.107 265.668C578.607 266.377 579.147 267.526 579.647 268.234C581.868 268.688 583.859 269.008 585.619 269.195C586.389 270.478 587.119 271.32 587.429 272.336C589.38 272.215 590.451 272.001 593.282 271.973ZM671.677 353.017C675.278 354.272 677.959 354.993 680.911 356.289C681.061 355.541 681.401 354.485 681.552 353.736C679.791 353.55 678.26 353.496 677.38 353.403C675.919 351.719 674.919 350.303 673.959 349.327C671.968 349.007 670.208 348.82 669.327 348.727C667.407 346.776 666.177 345.226 664.486 343.409C663.495 344.505 663.115 345.12 662.505 345.601C665.765 347.913 668.836 350.531 671.677 353.017ZM699.286 369.049C697.185 369.918 695.734 370.747 694.053 371.443C696.823 375.559 700.584 378.578 702.955 378.284C703.525 377.361 704.286 376.132 704.857 375.209C702.936 373.258 701.206 371 699.286 369.049ZM199.961 406.303C197.31 403.51 195.81 401.385 194.12 399.568C192.129 399.248 190.598 399.195 189.067 399.141C188.067 397.725 187.337 396.883 186.297 395.026C184.656 396.162 183.205 396.991 180.763 398.916C184.555 399.864 187.807 399.663 188.537 400.505C191.497 404.313 195.629 404.205 199.961 406.303ZM594.911 277.934C597.823 278.789 600.734 279.643 603.645 280.498C604.176 279.135 604.706 277.771 605.277 276.849C601.366 274.578 598.025 271.384 594.513 273.524C594.442 275.154 594.602 276.918 594.911 277.934ZM494.019 218.093C494.519 218.801 494.829 219.817 495.869 221.675C497.35 218.774 498.261 216.796 499.212 215.259C495.031 212.413 491.89 211.424 489.488 213.79C488.687 214.579 488.767 215.461 488.046 217.132C490.497 217.72 492.258 217.906 494.019 218.093ZM129.347 78.6269C132.219 79.0406 134.019 79.6683 135.55 79.7215C137.2 81.0977 136.249 82.635 138.661 82.7814C139.041 82.1665 139.461 81.9927 140.032 81.0704C136.081 78.3581 134.762 73.4132 127.718 72.6663C128.338 74.6977 128.727 76.5955 129.347 78.6269ZM683.659 364.989C681.889 362.29 679.929 359.898 677.659 356.49C675.597 357.801 673.956 358.937 671.935 360.688C675.386 362.692 677.917 364.162 679.987 365.365C681.518 365.418 682.589 365.204 683.659 364.989ZM155.968 86.1456C150.876 85.278 147.124 84.771 142.682 83.8631C144.913 86.8297 145.373 87.0969 150.315 88.713C150.855 89.8623 151.355 90.5706 152.164 92.2945C153.876 89.5275 154.827 87.9903 155.968 86.1456ZM659.566 399.892C657.465 400.761 654.713 401.67 652.612 402.54C652.811 404.745 652.931 406.068 653.36 408.407C655.342 406.215 656.563 405.252 657.133 404.33C659.354 404.784 660.885 404.837 663.987 405.384C662.026 402.992 660.796 401.442 659.566 399.892ZM274.355 481.68C278.027 481.305 280.257 484.272 282.978 485.434C284.089 485.661 285.349 485.139 287.491 484.711C283.119 482.173 279.898 480.302 276.677 478.432C275.686 479.528 274.925 480.758 274.355 481.68ZM174.154 99.2129C169.623 94.9103 166.521 94.363 162.818 96.8097C163.588 98.0926 164.589 99.5091 165.319 100.351C167.69 100.056 170.291 99.8954 174.154 99.2129ZM172.54 76.5456C168.708 75.1565 165.107 73.9009 161.315 72.9528C161.165 73.7013 161.015 74.4498 160.674 75.5058C164.506 76.8949 168.107 78.1504 171.899 79.0985C172.049 78.3501 172.199 77.6016 172.54 76.5456ZM117.221 79.5251C114.129 81.4905 112.067 82.8007 110.236 84.2446C109.815 84.4184 110.355 85.5677 110.475 86.8909C112.886 87.0374 114.837 86.9167 115.948 87.1436C116.399 84.8981 116.659 82.9601 117.221 79.5251ZM739.649 586.387C737.848 585.76 736.087 585.573 734.286 584.945C732.716 584.451 731.105 583.516 727.694 581.953C732.375 585.507 734.986 587.859 738.016 590.036C738.667 589.996 739.968 589.916 741.268 589.835C740.728 588.686 740.419 587.67 739.649 586.387ZM135.697 88.5827C135.427 88.008 135.387 87.567 134.927 87.2998C133.857 87.5138 132.976 87.4205 131.866 87.1935C130.755 86.9666 129.605 86.2985 128.034 85.8044C127.774 87.7424 127.433 88.7984 127.553 90.1215C127.553 90.1215 128.243 90.5223 129.393 91.1903C131.074 90.4949 133.596 89.4519 135.697 88.5827ZM144.25 62.6252C141.569 61.9041 139.808 61.7174 138.007 61.0896C142.228 64.3766 145.569 67.5701 150.931 69.0124C147.59 65.8188 144.98 63.4671 144.25 62.6252ZM157.185 386.478C161.167 387.119 163.388 387.573 166.489 388.12C162.958 385.234 159.928 383.056 156.167 380.036C156.406 382.683 156.756 384.139 157.185 386.478ZM452.638 568.074C449.568 565.455 446.727 562.97 443.166 562.155C443.745 563.746 444.095 565.202 444.635 566.352C447.316 567.073 449.997 567.794 452.638 568.074ZM643.045 631.838C643.806 630.608 644.607 629.819 645.137 628.456C645.288 627.707 644.558 626.866 644.018 625.716C643.748 625.142 643.288 624.874 642.788 624.166C641.646 626.011 640.695 627.548 639.554 629.393C640.744 630.502 641.665 631.036 643.045 631.838ZM59.0256 289.361C58.3753 289.401 57.7249 289.441 56.8844 289.789C58.1544 291.78 59.6545 293.905 61.4246 296.604C62.5657 294.76 63.3265 293.53 64.0873 292.3C62.2466 291.231 60.6361 290.296 59.0256 289.361ZM106.458 295.592C108.148 297.409 109.608 299.093 112.759 302.594C112.4 298.624 112.24 296.86 111.851 294.962C110.13 295.217 108.829 295.297 106.458 295.592ZM710.646 419.942C710.456 420.249 710.265 420.557 710.265 420.557C714.407 422.961 718.318 425.233 722.459 427.638C722.65 427.33 722.84 427.023 722.84 427.023C718.698 424.618 714.787 422.347 710.646 419.942ZM257.428 123.332C257.048 123.947 256.898 124.696 256.707 125.003C258.778 126.205 260.849 127.408 263.149 128.744C263.49 127.688 263.64 126.939 264.171 125.576C261.49 124.855 259.459 124.094 257.428 123.332ZM225.448 104.761C223.098 100.472 220.656 102.397 219.776 102.303C219.665 103.493 219.555 104.683 219.714 106.447C222.276 105.845 223.767 105.457 225.448 104.761ZM209.091 68.5182C207.759 70.6704 206.999 71.9001 206.048 73.4374C207.428 74.239 208.769 74.5995 211.03 75.4945C210.18 73.3295 209.79 71.4317 209.091 68.5182ZM111.881 292.891C114.593 291.54 116.274 290.845 117.535 290.323C117.185 288.867 116.875 287.851 116.256 285.819C114.924 287.972 113.783 289.816 111.881 292.891ZM710.997 609.449C708.006 607.712 705.935 606.51 703.404 605.04C703.334 606.671 703.413 607.553 703.343 609.183C705.754 609.33 707.935 609.343 710.997 609.449ZM725.438 467.813C727.199 468 728.73 468.053 729.88 468.721C731.451 469.215 733.062 470.15 734.442 470.952C734.632 470.645 734.822 470.337 734.822 470.337C732.061 468.734 729.531 467.264 726.77 465.661C726.389 466.276 726.199 466.583 725.438 467.813ZM80.1205 83.8905C82.0716 83.7697 84.4429 83.4752 86.2037 83.6619C83.4428 82.0587 81.3016 82.4868 80.1205 83.8905ZM648.417 635.793C649.748 633.641 650.889 631.796 652.411 629.336C649.889 630.379 648.208 631.075 646.527 631.77C647.067 632.919 647.607 634.069 648.417 635.793ZM230.829 111.229C229.289 108.663 230.24 107.126 227.018 105.256C226.488 106.619 225.727 107.849 225.006 109.52C227.267 110.415 228.377 110.642 230.829 111.229ZM165.831 62.6204C164.499 64.7725 163.739 66.0023 162.597 67.847C164.398 68.4748 165.739 68.8353 167.96 69.2893C167.3 66.8168 166.72 65.2265 165.831 62.6204ZM135.111 74.8699C136.443 72.7178 137.203 71.488 138.154 69.9508C136.354 69.323 135.203 68.655 133.172 67.8937C133.602 70.2325 134.182 71.8228 135.111 74.8699ZM131.579 332.328C128.898 331.606 124.376 329.816 126.306 334.28C127.987 333.585 129.898 333.023 131.579 332.328ZM108.986 369.355C109.636 369.314 110.517 369.408 111.167 369.367C111.087 368.485 111.428 367.429 111.118 366.414C111.038 365.532 110.308 364.69 109.998 363.674C109.348 363.714 108.698 363.755 108.237 363.487C108.477 366.134 108.636 367.898 108.986 369.355ZM380.975 527.713C380.254 529.384 379.913 530.44 379.042 532.859C381.754 531.509 383.205 530.68 384.846 529.544C383.696 528.876 382.775 528.341 380.975 527.713ZM599.055 625.098C598.405 625.138 597.754 625.179 597.104 625.219C596.954 625.967 596.803 626.716 596.463 627.772C598.034 628.266 599.184 628.934 601.905 630.096C600.595 627.664 599.825 626.381 599.055 625.098ZM380.932 536.882C378.8 539.823 380.64 540.892 383.742 541.439C383.892 540.691 384.042 539.942 384.613 539.02C383.463 538.352 382.542 537.817 380.932 536.882ZM173.931 393.277C177.153 395.148 178.533 395.949 180.144 396.885C180.484 395.829 180.634 395.08 181.125 393.276C178.754 393.57 177.223 393.517 173.931 393.277ZM142.81 379.384C144.141 377.232 144.712 376.31 145.473 375.08C143.902 374.586 142.982 374.052 140.721 373.157C141.341 375.188 141.881 376.337 142.81 379.384ZM73.1201 73.9749C71.7887 76.1271 71.2182 77.0494 70.4574 78.2792C72.028 78.7733 72.9483 79.3078 75.2092 80.2027C74.5895 78.1713 74.0496 77.022 73.1201 73.9749ZM148.931 97.5211C145.71 95.6507 144.33 94.8491 142.719 93.9139C142.379 94.9698 142.228 95.7183 141.738 97.5227C143.919 97.5356 145.449 97.5887 148.931 97.5211ZM150.52 103.041C151.852 100.889 152.803 99.3513 153.754 97.8141C152.183 97.3199 151.263 96.7855 150.112 96.1175C150.312 98.3227 150.471 100.087 150.52 103.041ZM760.858 558.168C761.579 556.498 761.919 555.442 762.45 554.078C760.919 554.025 760.539 554.64 759.929 555.121C759.088 555.469 757.978 555.242 755.836 555.67C758.137 557.006 759.248 557.233 760.858 558.168ZM192.277 85.0817C191.216 87.8084 190.685 89.1718 190.194 90.9763C192.375 90.9891 193.676 90.9087 195.167 90.5207C194.207 89.5453 193.667 88.396 192.277 85.0817ZM667.953 360.048C669.014 357.321 669.545 355.958 670.036 354.153C667.855 354.14 666.554 354.221 665.253 354.301C666.023 355.584 666.563 356.733 667.953 360.048ZM75.4158 251.239C71.5445 249.409 69.5137 248.648 67.443 247.445C68.2528 249.169 68.3725 250.492 68.9124 251.642C70.6334 251.387 71.9341 251.307 75.4158 251.239ZM95.9204 302.009C100.694 299.349 97.7824 298.494 95.5216 297.599C95.6412 298.922 95.7609 300.245 95.9204 302.009ZM92.9847 315.349C97.5678 312.995 95.0768 311.967 92.1258 310.671C92.7055 312.261 92.8252 313.585 92.9847 315.349ZM133.582 325.551C131.561 327.302 131.561 327.302 136.812 329.934C135.312 327.809 134.542 326.526 133.582 325.551ZM159.429 90.6624C159.238 90.9698 158.668 91.8921 158.097 92.8145C159.668 93.3086 160.588 93.8431 163.769 95.2724C161.389 93.0543 160.199 91.9453 159.429 90.6624ZM564.216 275.99C563.686 277.353 563.535 278.101 563.916 277.487C564.796 277.58 566.597 278.208 569.278 278.929C566.977 277.593 566.057 277.058 564.216 275.99ZM626.426 315.457C626.576 314.708 626.647 313.078 626.757 311.888C626.527 311.755 625.877 311.795 625.646 311.661C625.266 312.276 624.695 313.199 624.125 314.121C625.505 314.922 626.426 315.457 626.426 315.457ZM172.626 58.2083C172.475 58.9568 172.405 60.5874 172.294 61.777C172.524 61.9106 173.175 61.8703 173.405 62.0039C173.785 61.389 174.356 60.4667 174.926 59.5444C173.546 58.7427 172.856 58.3419 172.626 58.2083ZM708.944 550.588C709.174 550.722 710.555 551.524 712.165 552.459C712.506 551.403 712.656 550.654 712.846 550.347C711.315 550.294 710.015 550.374 708.944 550.588ZM105.731 285.14C105.54 285.448 104.97 286.37 104.399 287.292C105.97 287.787 106.89 288.321 110.071 289.75C107.881 287.225 106.691 286.116 105.731 285.14ZM91.8863 276.683C89.8647 278.434 89.8647 278.434 95.1165 281.066C93.6164 278.941 92.8465 277.658 91.8863 276.683ZM46.4142 241.502C47.9848 241.996 49.7456 242.183 51.3163 242.677C51.2764 242.236 51.0463 242.103 51.0064 241.662C49.856 240.994 48.7057 240.326 47.5553 239.658C47.1749 240.272 46.7945 240.887 46.4142 241.502ZM205.639 420.883C210.21 425.627 210.471 423.689 211.152 421.577C209.161 421.257 207.82 420.896 205.639 420.883ZM123.395 364.767C123.165 364.633 121.784 363.832 120.174 362.897C119.833 363.953 119.683 364.701 119.493 365.008C120.793 364.928 122.324 364.981 123.395 364.767ZM520.035 592.584C517.854 592.572 516.363 592.96 512.691 593.335C516.523 594.724 517.673 595.392 519.013 595.752C519.544 594.389 519.925 593.774 520.035 592.584ZM305.167 494.558C305.857 494.958 306.317 495.225 307.007 495.626C307.538 494.263 308.069 492.9 308.599 491.536C308.369 491.403 307.909 491.135 307.679 491.002C306.688 492.098 305.927 493.328 305.167 494.558ZM554.289 636.295C552.718 635.801 550.957 635.614 549.387 635.12C549.427 635.561 549.657 635.694 549.696 636.136C550.847 636.804 551.997 637.472 553.148 638.14C553.528 637.525 553.908 636.91 554.289 636.295ZM333.536 509.36C333.386 510.108 333.315 511.739 333.205 512.929C333.435 513.062 334.085 513.022 334.316 513.156C334.696 512.541 335.266 511.618 335.837 510.696C334.457 509.894 333.766 509.494 333.536 509.36ZM95.0526 357.503C94.9422 358.692 95.0618 360.015 94.9514 361.205C95.1815 361.338 95.8318 361.298 96.0619 361.432C96.4423 360.817 97.0129 359.895 97.5834 358.972C96.4331 358.304 95.5128 357.77 95.0526 357.503ZM708.052 620.276C708.242 619.968 708.622 619.353 708.813 619.046C707.472 618.685 706.322 618.017 704.981 617.657C704.791 617.964 704.791 617.964 704.831 618.405C705.751 618.94 706.901 619.608 708.052 620.276ZM52.9673 338.079C53.1575 337.771 53.3477 337.464 53.3477 337.464C51.9672 336.662 50.5868 335.861 49.2063 335.059C49.0161 335.367 48.8259 335.674 48.8259 335.674C50.2064 336.476 51.5869 337.277 52.9673 338.079ZM60.0505 339.267C59.3603 338.866 58.9002 338.599 58.2099 338.198C57.8694 339.254 57.7191 340.002 57.3786 341.058C57.6087 341.192 58.0688 341.459 58.2989 341.593C59.0996 340.804 59.48 340.189 60.0505 339.267ZM149.973 381.454C150.163 381.147 150.544 380.532 150.734 380.225C149.393 379.864 148.243 379.196 146.902 378.836C146.712 379.143 146.712 379.143 146.752 379.584C147.672 380.118 148.823 380.786 149.973 381.454ZM137.04 371.019C136.349 370.618 135.889 370.351 135.199 369.95C135.049 370.699 134.708 371.755 134.558 372.503C134.788 372.637 135.248 372.904 135.478 373.038C136.089 372.556 136.659 371.634 137.04 371.019ZM168.33 389.189C168.14 389.496 167.989 390.245 167.799 390.552C169.14 390.913 170.29 391.581 171.401 391.808C171.591 391.5 171.591 391.5 171.551 391.059C170.631 390.525 169.48 389.857 168.33 389.189ZM218.634 427.175C218.824 426.868 218.974 426.119 219.164 425.812C217.824 425.451 216.673 424.783 215.563 424.556C215.373 424.864 215.373 424.864 215.413 425.305C216.333 425.839 217.483 426.507 218.634 427.175ZM113.746 279.766C113.556 280.073 113.366 280.38 113.366 280.38C114.746 281.182 116.127 281.984 117.507 282.785C117.698 282.478 117.888 282.17 117.888 282.17C116.507 281.369 115.127 280.567 113.746 279.766ZM54.5772 244.989C54.3471 244.855 53.887 244.588 53.6569 244.454C53.0863 245.377 52.5157 246.299 51.9452 247.221C52.1753 247.355 52.6354 247.622 52.8655 247.756C53.436 246.833 54.0066 245.911 54.5772 244.989ZM101.049 281.586C100.819 281.452 100.359 281.185 100.129 281.052C99.5585 281.974 98.9879 282.896 98.4173 283.819C98.6474 283.952 99.1076 284.219 99.3376 284.353C99.9082 283.431 100.479 282.508 101.049 281.586ZM691.983 620.974C691.793 621.282 691.643 622.03 691.453 622.338C692.793 622.698 693.944 623.366 695.054 623.593C695.244 623.286 695.244 623.286 695.205 622.845C694.054 622.177 693.134 621.642 691.983 620.974ZM688.652 620.293C688.842 619.986 688.993 619.237 689.183 618.93C687.842 618.569 686.692 617.901 685.581 617.674C685.391 617.982 685.391 617.982 685.431 618.423C686.351 618.957 687.502 619.625 688.652 620.293ZM139.078 186.243C139.309 186.376 139.769 186.643 139.999 186.777C140.569 185.855 141.14 184.932 141.711 184.01C141.48 183.876 141.02 183.609 140.79 183.476C140.22 184.398 139.649 185.32 139.078 186.243ZM566.633 642.627C566.403 642.494 565.943 642.227 565.713 642.093C565.142 643.015 564.572 643.938 564.001 644.86C564.231 644.994 564.691 645.261 564.921 645.394C565.492 644.472 566.062 643.55 566.633 642.627ZM194.685 63.4961C193.995 63.0953 193.535 62.8281 192.844 62.4273C192.694 63.1758 192.354 64.2317 192.203 64.9802C192.433 65.1138 192.894 65.381 193.124 65.5146C193.734 65.0333 194.305 64.111 194.685 63.4961ZM640.42 323.166C640.611 322.858 640.801 322.551 640.801 322.551C639.42 321.749 638.04 320.947 636.659 320.146C636.469 320.453 636.279 320.761 636.279 320.761C637.659 321.562 639.04 322.364 640.42 323.166ZM571.044 645.607C570.854 645.914 570.664 646.222 570.664 646.222C572.044 647.023 573.425 647.825 574.805 648.627C574.995 648.319 575.186 648.012 575.186 648.012C573.805 647.21 572.425 646.408 571.044 645.607ZM237.332 110.827C236.642 110.426 236.182 110.159 235.491 109.758C235.341 110.506 235.001 111.562 234.85 112.311C235.08 112.444 235.54 112.712 235.771 112.845C236.381 112.364 236.761 111.749 237.332 110.827ZM240.412 115.958C241.102 116.359 241.562 116.626 242.253 117.027C242.403 116.279 242.743 115.223 242.894 114.474C242.664 114.341 242.203 114.073 241.973 113.94C241.363 114.421 240.982 115.036 240.412 115.958ZM205.14 97.1477C205.83 97.5485 206.29 97.8157 206.98 98.2165C207.131 97.468 207.471 96.4121 207.622 95.6636C207.392 95.53 206.931 95.2628 206.701 95.1292C206.091 95.6105 205.52 96.5328 205.14 97.1477ZM215.904 100.473C215.214 100.072 214.754 99.8053 214.064 99.4045C213.913 100.153 213.573 101.209 213.423 101.957C213.653 102.091 214.113 102.358 214.343 102.492C214.953 102.011 215.524 101.088 215.904 100.473ZM178.562 80.4603C177.871 80.0595 177.411 79.7923 176.721 79.3915C176.571 80.14 176.23 81.1959 176.08 81.9444C176.31 82.078 176.77 82.3452 177 82.4788C177.611 81.9975 177.991 81.3827 178.562 80.4603ZM546.386 630.87C546.156 630.737 545.696 630.469 545.466 630.336C544.896 631.258 544.325 632.181 543.754 633.103C543.984 633.236 544.445 633.504 544.675 633.637C545.245 632.715 545.816 631.793 546.386 630.87ZM693.482 341.023C694.172 341.424 694.632 341.691 695.322 342.092C695.473 341.344 695.813 340.288 695.963 339.539C695.733 339.405 695.273 339.138 695.043 339.005C694.433 339.486 693.862 340.408 693.482 341.023ZM624.867 307.866C624.677 308.173 624.487 308.481 624.487 308.481C625.867 309.282 627.248 310.084 628.628 310.885C628.818 310.578 629.009 310.271 629.009 310.271C627.628 309.469 626.248 308.667 624.867 307.866ZM102.496 102.316C102.726 102.45 103.186 102.717 103.416 102.851C103.987 101.928 104.558 101.006 105.128 100.084C104.898 99.9501 104.438 99.6829 104.208 99.5493C103.637 100.472 103.067 101.394 102.496 102.316ZM73.2061 86.9794C73.8963 87.3802 74.3564 87.6474 75.0467 88.0482C75.197 87.2997 75.5375 86.2438 75.6878 85.4953C75.4577 85.3617 74.9976 85.0945 74.7675 84.9609C74.157 85.4422 73.7766 86.0571 73.2061 86.9794ZM115.347 121.479C115.156 121.787 115.006 122.535 114.816 122.843C116.157 123.203 117.307 123.871 118.417 124.098C118.608 123.791 118.608 123.791 118.568 123.35C117.647 122.815 116.497 122.147 115.347 121.479ZM183.942 86.9279C184.633 87.3288 185.093 87.596 185.783 87.9968C185.933 87.2483 186.274 86.1923 186.424 85.4438C186.194 85.3102 185.734 85.043 185.504 84.9094C184.893 85.3907 184.513 86.0056 183.942 86.9279ZM200.308 94.3421C200.499 94.0346 200.649 93.2861 200.839 92.9787C199.498 92.6181 198.348 91.9501 197.238 91.7231C197.047 92.0306 197.047 92.0306 197.087 92.4716C198.238 93.1396 199.388 93.8077 200.308 94.3421ZM157.324 69.7995C157.094 69.6659 156.634 69.3987 156.404 69.2651C155.833 70.1874 155.263 71.1098 154.692 72.0321C154.922 72.1657 155.382 72.4329 155.612 72.5665C156.183 71.6442 156.754 70.7219 157.324 69.7995ZM235.875 130.875C235.185 130.474 234.725 130.207 234.034 129.806C233.694 130.862 233.544 131.611 233.203 132.667C233.433 132.8 233.893 133.067 234.123 133.201C234.924 132.412 235.304 131.797 235.875 130.875ZM661.302 382.931C661.492 382.623 661.643 381.875 661.833 381.567C660.492 381.207 659.342 380.539 658.232 380.312C658.041 380.619 658.041 380.619 658.081 381.06C659.002 381.595 660.152 382.263 661.302 382.931ZM157.214 102.331C157.024 102.638 156.834 102.946 156.834 102.946C158.214 103.747 159.594 104.549 160.975 105.351C161.165 105.043 161.355 104.736 161.355 104.736C159.975 103.934 158.594 103.132 157.214 102.331ZM127.332 92.5006C127.142 92.808 126.951 93.1155 126.951 93.1155C128.332 93.9171 129.712 94.7187 131.093 95.5203C131.283 95.2129 131.473 94.9054 131.473 94.9054C130.093 94.1038 128.712 93.3022 127.332 92.5006ZM590.441 623.857C591.131 624.258 591.591 624.525 592.282 624.926C592.432 624.177 592.772 623.121 592.923 622.373C592.693 622.239 592.233 621.972 592.002 621.839C591.392 622.32 590.821 623.242 590.441 623.857ZM109.501 322.014C109.691 321.707 109.842 320.958 110.032 320.651C108.691 320.29 107.541 319.622 106.43 319.395C106.24 319.703 106.24 319.703 106.28 320.144C107.2 320.678 108.351 321.346 109.501 322.014ZM353.452 524.686C353.682 524.819 353.912 524.953 354.142 525.086C354.522 524.472 354.712 524.164 355.093 523.549C354.863 523.416 354.633 523.282 354.403 523.148C354.022 523.763 353.832 524.071 353.452 524.686ZM69.198 298.193C69.3882 297.886 69.3882 297.885 69.5784 297.578C68.8882 297.177 68.198 296.776 67.5077 296.376C67.3175 296.683 67.3175 296.683 67.1273 296.991C67.8176 297.391 68.5078 297.792 69.198 298.193ZM701.962 545.698C701.772 546.006 701.772 546.006 701.582 546.313C702.272 546.714 702.962 547.115 703.652 547.516C703.843 547.208 703.843 547.208 704.033 546.901C703.343 546.5 702.652 546.099 701.962 545.698ZM71.1208 196.509C70.9306 196.816 70.9306 196.816 70.7404 197.124C71.4306 197.525 72.1208 197.925 72.8111 198.326C73.0012 198.019 73.0012 198.019 73.1914 197.711C72.5012 197.311 71.811 196.91 71.1208 196.509ZM408.194 541.848C408.004 542.155 408.004 542.155 407.814 542.463C408.504 542.864 409.194 543.264 409.884 543.665C410.075 543.358 410.075 543.358 410.265 543.05C409.575 542.649 408.884 542.249 408.194 541.848ZM72.2844 346.789C72.0942 347.096 72.0942 347.096 71.904 347.404C72.5942 347.804 73.2844 348.205 73.9747 348.606C74.1649 348.299 74.1649 348.299 74.3551 347.991C73.6649 347.59 72.9746 347.189 72.2844 346.789ZM679.139 613.934C678.949 614.241 678.949 614.241 678.759 614.548C679.449 614.949 680.139 615.35 680.829 615.751C681.02 615.443 681.02 615.443 681.21 615.136C680.52 614.735 679.829 614.334 679.139 613.934ZM699.653 604.533C699.883 604.667 700.113 604.8 700.343 604.934C700.723 604.319 700.913 604.012 701.294 603.397C701.064 603.263 700.834 603.129 700.603 602.996C700.223 603.611 700.033 603.918 699.653 604.533ZM727.752 618.761C727.522 618.627 727.292 618.494 727.062 618.36C726.682 618.975 726.492 619.282 726.111 619.897C726.341 620.031 726.571 620.165 726.801 620.298C727.182 619.683 727.372 619.376 727.752 618.761ZM61.5903 310.491C61.4001 310.798 61.4001 310.798 61.2099 311.106C61.9002 311.506 62.5904 311.907 63.2806 312.308C63.4708 312.001 63.4708 312.001 63.661 311.693C62.9707 311.292 62.2805 310.892 61.5903 310.491ZM134.751 299.902C134.561 300.21 134.561 300.21 134.37 300.517C135.061 300.918 135.751 301.319 136.441 301.72C136.631 301.412 136.631 301.412 136.821 301.105C135.901 300.57 135.211 300.17 134.751 299.902ZM130.3 296.482C130.07 296.348 129.839 296.215 129.609 296.081C129.229 296.696 129.039 297.003 128.658 297.618C128.888 297.752 129.119 297.886 129.349 298.019C129.729 297.404 129.919 297.097 130.3 296.482ZM87.4295 355.165C87.6595 355.299 87.8896 355.433 88.1197 355.566C88.5001 354.951 88.6902 354.644 89.0706 354.029C88.8406 353.895 88.6105 353.762 88.3804 353.628C88.1902 353.936 87.8098 354.55 87.4295 355.165ZM584.379 619.501C584.189 619.809 584.189 619.809 583.999 620.116C584.689 620.517 585.379 620.918 586.07 621.319C586.26 621.011 586.26 621.011 586.45 620.704C585.76 620.303 585.07 619.902 584.379 619.501ZM103.335 362.312C103.105 362.179 102.875 362.045 102.645 361.911C102.265 362.526 102.075 362.834 101.694 363.449C101.924 363.582 102.154 363.716 102.384 363.85C102.765 363.235 103.145 362.62 103.335 362.312ZM95.4999 270.842C95.73 270.975 95.9601 271.109 96.1902 271.242C96.5705 270.627 96.7607 270.32 97.1411 269.705C96.911 269.572 96.681 269.438 96.4509 269.304C96.2607 269.612 95.8803 270.227 95.4999 270.842ZM188.26 325.124C188.07 325.432 188.07 325.432 187.88 325.739C188.57 326.14 189.26 326.541 189.95 326.942C190.141 326.634 190.141 326.634 190.331 326.327C189.641 325.926 188.95 325.525 188.26 325.124ZM479.968 581.019C479.738 580.885 479.508 580.752 479.278 580.618C478.898 581.233 478.707 581.541 478.327 582.155C478.557 582.289 478.787 582.423 479.017 582.556C479.398 581.941 479.778 581.326 479.968 581.019ZM153.709 335.985C153.899 335.677 153.899 335.677 154.09 335.37C153.399 334.969 152.709 334.568 152.019 334.167C151.829 334.475 151.829 334.475 151.638 334.782C152.329 335.183 153.019 335.584 153.709 335.985ZM559.47 640.557C559.24 640.424 559.01 640.29 558.78 640.156C558.399 640.771 558.209 641.079 557.829 641.694C558.059 641.827 558.289 641.961 558.519 642.094C558.899 641.48 559.28 640.865 559.47 640.557ZM211.486 439.74C211.676 439.433 211.676 439.433 211.866 439.125C211.176 438.725 210.486 438.324 209.796 437.923C209.606 438.231 209.606 438.231 209.415 438.538C210.106 438.939 210.796 439.34 211.486 439.74ZM459.378 579.928C459.568 579.62 459.568 579.62 459.759 579.313C459.068 578.912 458.378 578.511 457.688 578.11C457.498 578.418 457.498 578.418 457.307 578.725C457.998 579.126 458.688 579.527 459.378 579.928ZM121.186 294.533C121.376 294.225 121.376 294.225 121.566 293.918C120.876 293.517 120.186 293.116 119.495 292.715C119.305 293.023 119.305 293.023 119.115 293.33C120.035 293.865 120.495 294.132 121.186 294.533ZM458.9 574.635C458.67 574.502 458.439 574.368 458.209 574.234C457.829 574.849 457.639 575.157 457.258 575.772C457.488 575.905 457.719 576.039 457.949 576.172C458.329 575.557 458.709 574.943 458.9 574.635ZM696.234 402.797C696.424 402.49 696.424 402.49 696.614 402.182C695.924 401.782 695.234 401.381 694.544 400.98C694.353 401.287 694.353 401.287 694.163 401.595C694.853 401.996 695.544 402.396 696.234 402.797ZM678.248 391.935C678.058 392.243 678.058 392.243 677.868 392.55C678.558 392.951 679.248 393.352 679.938 393.753C680.129 393.445 680.129 393.445 680.319 393.138C679.629 392.737 678.938 392.336 678.248 391.935ZM189.259 107.149C189.029 107.015 188.799 106.881 188.568 106.748C188.188 107.363 187.998 107.67 187.618 108.285C187.848 108.419 188.078 108.552 188.308 108.686C188.688 108.071 188.878 107.763 189.259 107.149ZM214.407 120.081C214.177 119.947 213.947 119.813 213.717 119.68C213.337 120.295 213.147 120.602 212.766 121.217C212.996 121.351 213.226 121.484 213.456 121.618C213.837 121.003 214.217 120.388 214.407 120.081ZM250.376 120.073C250.146 119.939 249.916 119.805 249.685 119.672C249.305 120.287 249.115 120.594 248.734 121.209C248.965 121.343 249.195 121.476 249.425 121.61C249.805 120.995 249.995 120.687 250.376 120.073ZM92.8847 27.3655C92.6945 27.673 92.6945 27.673 92.5043 27.9804C93.1945 28.3812 93.8847 28.782 94.575 29.1829C94.7652 28.8754 94.7652 28.8754 94.9554 28.568C94.2651 28.1672 93.5749 27.7663 92.8847 27.3655ZM691.632 368.783C691.402 368.65 691.172 368.516 690.942 368.383C690.561 368.998 690.371 369.305 689.991 369.92C690.221 370.053 690.451 370.187 690.681 370.321C691.062 369.706 691.442 369.091 691.632 368.783ZM632.405 328.54C632.635 328.674 632.865 328.807 633.095 328.941C633.475 328.326 633.665 328.019 634.046 327.404C633.816 327.27 633.586 327.137 633.356 327.003C632.975 327.618 632.595 328.233 632.405 328.54ZM62.7088 125.18C62.5186 125.487 62.5186 125.487 62.3284 125.795C63.0186 126.196 63.7089 126.596 64.3991 126.997C64.5893 126.69 64.5893 126.69 64.7795 126.382C64.0892 125.982 63.399 125.581 62.7088 125.18ZM741.648 495.195C741.458 495.503 741.458 495.503 741.268 495.81C741.958 496.211 742.648 496.612 743.338 497.012C743.529 496.705 743.529 496.705 743.719 496.398C743.029 495.997 742.338 495.596 741.648 495.195ZM126.494 114.58C126.264 114.447 126.034 114.313 125.804 114.18C125.424 114.794 125.234 115.102 124.853 115.717C125.083 115.85 125.313 115.984 125.544 116.118C125.924 115.503 126.304 114.888 126.494 114.58ZM68.1873 74.8715C67.9572 74.7379 67.7271 74.6043 67.4971 74.4707C67.1167 75.0856 66.9265 75.393 66.5461 76.0079C66.7762 76.1415 67.0063 76.2751 67.2363 76.4087C67.6167 75.7939 67.8069 75.4864 68.1873 74.8715ZM165.076 107.314C164.886 107.622 164.886 107.622 164.696 107.929C165.386 108.33 166.076 108.731 166.767 109.132C166.957 108.824 166.957 108.824 167.147 108.517C166.457 108.116 165.767 107.715 165.076 107.314ZM531.331 240.178C531.141 240.485 531.141 240.485 530.951 240.793C531.641 241.193 532.331 241.594 533.021 241.995C533.211 241.688 533.211 241.688 533.402 241.38C532.711 240.979 532.021 240.579 531.331 240.178ZM524.619 235.862C524.389 235.729 524.159 235.595 523.929 235.461C523.548 236.076 523.358 236.384 522.978 236.999C523.208 237.132 523.438 237.266 523.668 237.399C524.048 236.785 524.429 236.17 524.619 235.862ZM733.16 538.741C732.93 538.608 732.7 538.474 732.47 538.341C732.089 538.955 731.899 539.263 731.519 539.878C731.749 540.011 731.979 540.145 732.209 540.279C732.59 539.664 732.97 539.049 733.16 538.741Z" fill="#7D97F4" fill-opacity="0.07"/>
</svg>
