<svg width="580" height="580" viewBox="0 0 580 580" fill="none" xmlns="http://www.w3.org/2000/svg">
<path d="M580 443.584H0V443.874H580V443.584Z" fill="#E6E6E6"/>
<path d="M543.344 453.815H521.571V454.105H543.344V453.815Z" fill="#E6E6E6"/>
<path d="M442.842 461.773H432.761V462.063H442.842V461.773Z" fill="#E6E6E6"/>
<path d="M347.211 457.771H324.754V458.061H347.211V457.771Z" fill="#E6E6E6"/>
<path d="M143.979 457.62H93.8788V457.91H143.979V457.62Z" fill="#E6E6E6"/>
<path d="M83.5548 457.62H76.212V457.91H83.5548V457.62Z" fill="#E6E6E6"/>
<path d="M328.257 450.753H219.588V451.043H328.257V450.753Z" fill="#E6E6E6"/>
<path d="M274.92 391.848H50.9356C49.1809 391.845 47.4992 391.146 46.2595 389.904C45.0198 388.662 44.3236 386.979 44.3236 385.224V70.3656C44.3389 68.621 45.0419 66.9529 46.2799 65.7236C47.5179 64.4943 49.1909 63.803 50.9356 63.8H274.92C276.677 63.8 278.361 64.4979 279.604 65.7401C280.846 66.9822 281.544 68.667 281.544 70.4236V385.224C281.544 386.981 280.846 388.666 279.604 389.908C278.361 391.15 276.677 391.848 274.92 391.848ZM50.9356 64.032C49.2578 64.0351 47.6498 64.7038 46.4646 65.8912C45.2793 67.0787 44.6136 68.6879 44.6136 70.3656V385.224C44.6136 386.902 45.2793 388.511 46.4646 389.699C47.6498 390.886 49.2578 391.555 50.9356 391.558H274.92C276.599 391.555 278.208 390.887 279.395 389.7C280.582 388.512 281.251 386.903 281.254 385.224V70.3656C281.251 68.6868 280.582 67.0776 279.395 65.8905C278.208 64.7034 276.599 64.0351 274.92 64.032H50.9356Z" fill="#E6E6E6"/>
<path d="M525.84 391.848H301.844C300.088 391.845 298.405 391.146 297.163 389.905C295.922 388.663 295.223 386.98 295.22 385.224V70.3656C295.238 68.62 295.944 66.9519 297.184 65.7229C298.424 64.4939 300.098 63.803 301.844 63.8H525.84C527.582 63.8061 529.252 64.4987 530.488 65.7277C531.723 66.9566 532.425 68.623 532.44 70.3656V385.224C532.44 386.977 531.745 388.658 530.508 389.9C529.271 391.141 527.592 391.842 525.84 391.848ZM301.844 64.032C300.165 64.0351 298.556 64.7034 297.368 65.8905C296.181 67.0776 295.513 68.6868 295.51 70.3656V385.224C295.513 386.903 296.181 388.512 297.368 389.7C298.556 390.887 300.165 391.555 301.844 391.558H525.84C527.518 391.555 529.128 390.887 530.315 389.7C531.502 388.512 532.17 386.903 532.173 385.224V70.3656C532.17 68.6868 531.502 67.0776 530.315 65.8905C529.128 64.7034 527.518 64.0351 525.84 64.032H301.844Z" fill="#E6E6E6"/>
<path d="M302.714 85.4688H68.1036V252.66H302.714V85.4688Z" fill="#FAFAFA"/>
<path d="M307.052 85.4688H70.1336V252.66H307.052V85.4688Z" fill="#F5F5F5"/>
<path d="M300.974 245.827V92.2896L76.212 92.2896V245.827H300.974Z" fill="#FAFAFA"/>
<path d="M117.137 245.827L152.795 92.2896H199.543L163.885 245.827H117.137Z" fill="white"/>
<path d="M171.448 245.827L207.118 92.2896H228.23L192.56 245.827H171.448Z" fill="white"/>
<path d="M300.974 245.827V92.2896H300.196V245.827H300.974Z" fill="#FAFAFA"/>
<path d="M63.5448 85.1905V151.45H81.0724C81.0724 151.45 112.52 130.906 119.724 88.6473C119.898 87.6352 119.849 86.5972 119.579 85.6062C119.309 84.6152 118.826 83.6954 118.162 82.9114C117.499 82.1274 116.672 81.4983 115.739 81.0684C114.806 80.6385 113.791 80.4182 112.764 80.4229H68.3124C67.048 80.4229 65.8353 80.9252 64.9412 81.8193C64.0471 82.7134 63.5448 83.9261 63.5448 85.1905Z" fill="#E0E0E0"/>
<path d="M63.5448 273.11V156.797H81.0724C81.0724 156.797 116.65 225.295 120.768 273.11H63.5448Z" fill="#E0E0E0"/>
<path d="M80.562 151.449H64.1828C63.2155 151.449 62.4312 152.234 62.4312 153.201V155.045C62.4312 156.013 63.2155 156.797 64.1828 156.797H80.562C81.5294 156.797 82.3136 156.013 82.3136 155.045V153.201C82.3136 152.234 81.5294 151.449 80.562 151.449Z" fill="#F5F5F5"/>
<path d="M312.04 85.1905V151.45H294.478C294.478 151.45 262.984 130.906 255.826 88.6473C255.654 87.6355 255.705 86.5982 255.975 85.6081C256.246 84.618 256.73 83.699 257.393 82.9155C258.056 82.132 258.882 81.5029 259.814 81.0724C260.745 80.6418 261.76 80.4201 262.786 80.4229H307.284C308.546 80.429 309.753 80.9336 310.644 81.8267C311.535 82.7198 312.037 83.929 312.04 85.1905Z" fill="#E0E0E0"/>
<path d="M312.04 273.11V156.797H294.478C294.478 156.797 258.912 225.295 254.782 273.11H312.04Z" fill="#E0E0E0"/>
<path d="M294.988 156.786H311.367C312.335 156.786 313.119 156.001 313.119 155.034V153.19C313.119 152.222 312.335 151.438 311.367 151.438H294.988C294.021 151.438 293.236 152.222 293.236 153.19V155.034C293.236 156.001 294.021 156.786 294.988 156.786Z" fill="#F5F5F5"/>
<path d="M306.739 294.246H268.192V443.584H306.739V294.246Z" fill="#FAFAFA"/>
<path d="M296.45 443.584H306.739V426.335H285.662L296.45 443.584Z" fill="#F4F8FF"/>
<path d="M122.322 294.246H83.7752V443.584H122.322V294.246Z" fill="#E0E0E0"/>
<path d="M306.739 294.246H113.344V437.645H306.739V294.246Z" fill="#FAFAFA"/>
<path d="M171.448 268.888C171.448 282.808 184.858 294.246 201.26 294.246H216.062C232.452 294.246 245.862 282.831 245.862 268.888H171.448Z" fill="#EBEBEB"/>
<path d="M162.864 237.023H190.704C190.704 237.023 185.867 249.783 185.867 257.3C185.867 264.817 207.048 294.246 176.784 294.246C146.52 294.246 167.701 264.805 167.701 257.3C167.701 249.795 162.864 237.023 162.864 237.023Z" fill="#E0E0E0"/>
<path d="M298.758 302.98H121.324V339.138H298.758V302.98Z" fill="#EBEBEB"/>
<path d="M123.633 443.584H113.344V426.335H134.432L123.633 443.584Z" fill="#FAFAFA"/>
<path d="M204.589 321.053C204.589 322.132 204.909 323.186 205.508 324.082C206.107 324.979 206.959 325.678 207.955 326.09C208.951 326.503 210.047 326.611 211.105 326.401C212.162 326.19 213.134 325.671 213.896 324.908C214.659 324.146 215.178 323.175 215.388 322.117C215.599 321.059 215.491 319.963 215.078 318.967C214.666 317.971 213.967 317.119 213.07 316.52C212.174 315.921 211.12 315.601 210.041 315.601C208.595 315.601 207.209 316.176 206.186 317.198C205.164 318.221 204.589 319.607 204.589 321.053Z" fill="#FAFAFA"/>
<path d="M298.758 347.873H121.324V384.03H298.758V347.873Z" fill="#EBEBEB"/>
<path d="M204.589 365.945C204.589 367.023 204.909 368.078 205.508 368.974C206.107 369.871 206.959 370.57 207.955 370.982C208.951 371.395 210.047 371.503 211.105 371.292C212.162 371.082 213.134 370.563 213.896 369.8C214.659 369.038 215.178 368.066 215.388 367.009C215.599 365.951 215.491 364.855 215.078 363.859C214.666 362.863 213.967 362.011 213.07 361.412C212.174 360.813 211.12 360.493 210.041 360.493C208.595 360.493 207.209 361.068 206.186 362.09C205.164 363.112 204.589 364.499 204.589 365.945Z" fill="#FAFAFA"/>
<path d="M298.758 392.753H121.324V428.91H298.758V392.753Z" fill="#EBEBEB"/>
<path d="M210.041 416.289C213.052 416.289 215.493 413.848 215.493 410.837C215.493 407.826 213.052 405.385 210.041 405.385C207.03 405.385 204.589 407.826 204.589 410.837C204.589 413.848 207.03 416.289 210.041 416.289Z" fill="#FAFAFA"/>
<path d="M429.061 83.4504H342.954V144.745H429.061V83.4504Z" fill="#E0E0E0"/>
<path d="M436.09 83.4504H347.849V144.745H436.09V83.4504Z" fill="#F5F5F5"/>
<path d="M430.464 139.119V89.0764H353.475V139.119H430.464Z" fill="white"/>
<path d="M416.916 124.538V103.646H367.024V124.538H416.916Z" fill="#F5F5F5"/>
<path d="M498.916 114.098H446.507V169.058H498.916V114.098Z" fill="#E0E0E0"/>
<path d="M505.969 114.098H451.414V169.058H505.969V114.098Z" fill="#F5F5F5"/>
<path d="M500.343 163.432V119.724H457.04V163.432H500.343Z" fill="white"/>
<path d="M470.589 141.578C470.589 139.648 471.355 137.797 472.718 136.431C474.082 135.065 475.932 134.296 477.862 134.293H479.509C481.439 134.296 483.289 135.065 484.653 136.431C486.016 137.797 486.782 139.648 486.782 141.578C486.782 143.507 486.016 145.357 484.652 146.721C483.288 148.085 481.438 148.851 479.509 148.851H477.92C476.96 148.859 476.008 148.676 475.119 148.314C474.23 147.952 473.421 147.418 472.739 146.742C472.058 146.065 471.517 145.261 471.148 144.375C470.779 143.489 470.589 142.538 470.589 141.578Z" fill="#F5F5F5"/>
<path d="M580 187.746H441.612H416.452V219.727H391.291V251.708H366.131V283.69H340.97V315.671H315.81V347.641H290.65V379.622H265.489V411.603H240.329V443.584H265.489H580V187.746Z" fill="#FAFAFA"/>
<path d="M381.153 411.603H237.742V421.196H381.153V411.603Z" fill="#EBEBEB"/>
<path d="M406.313 379.622H262.902V389.215H406.313V379.622Z" fill="#EBEBEB"/>
<path d="M431.474 347.64H288.063V357.234H431.474V347.64Z" fill="#EBEBEB"/>
<path d="M456.634 315.659H313.223V325.252H456.634V315.659Z" fill="#EBEBEB"/>
<path d="M481.794 283.69H338.384V293.283H481.794V283.69Z" fill="#EBEBEB"/>
<path d="M506.955 251.708H363.544V261.302H506.955V251.708Z" fill="#EBEBEB"/>
<path d="M532.115 219.727H388.704V229.32H532.115V219.727Z" fill="#EBEBEB"/>
<path d="M557.276 187.746H413.865V197.339H557.276V187.746Z" fill="#EBEBEB"/>
<path d="M554.84 187.746V219.727H529.679V251.708H504.519V283.69H479.358V315.671H454.198V347.641H429.038V379.622H403.877V411.603H378.717V443.584H403.877H580V219.727V187.746H554.84Z" fill="white"/>
<path d="M290 495.97C414.216 495.97 514.912 490.091 514.912 482.838C514.912 475.586 414.216 469.707 290 469.707C165.784 469.707 65.0877 475.586 65.0877 482.838C65.0877 490.091 165.784 495.97 290 495.97Z" fill="#F5F5F5"/>
<path d="M423.574 187.92C425.198 193.36 433.573 203.545 434.234 210.957C434.896 218.37 420.616 230.225 420.616 230.225C420.616 230.225 409.944 194.543 416.626 190.379C423.307 186.215 423.574 187.92 423.574 187.92Z" fill="#263238"/>
<path d="M394.249 226.467C391.72 228.578 389.238 230.353 386.651 232.174C384.064 233.995 381.396 235.654 378.682 237.208C375.958 238.82 373.151 240.288 370.272 241.605C368.81 242.266 367.36 242.915 365.852 243.484C365.11 243.785 364.356 244.075 363.59 244.331L361.27 245.143C359.287 245.697 357.212 245.847 355.169 245.583C353.461 245.384 351.771 245.058 350.111 244.609C347.018 243.753 343.99 242.675 341.052 241.384C335.347 238.894 329.844 235.966 324.591 232.626L326.76 228.589C329.498 229.749 332.305 230.909 335.089 231.919C337.873 232.928 340.68 233.995 343.488 234.865C346.224 235.762 349.014 236.49 351.84 237.046C353.137 237.3 354.451 237.458 355.772 237.521C356.757 237.598 357.747 237.496 358.695 237.22C361.342 236.207 363.929 235.045 366.444 233.74C367.732 233.067 369.008 232.383 370.26 231.64C371.513 230.898 372.789 230.179 374.03 229.413C376.524 227.87 378.96 226.235 381.373 224.553C383.786 222.871 386.187 221.073 388.333 219.367L394.249 226.467Z" fill="url(#paint0_linear_1918_2612)"/>
<path d="M400.374 214.113C397.497 211.862 385.596 219.228 381.988 222.302L384.621 238.229C384.621 238.229 401.731 231.06 402.752 226.165C403.831 221.05 402.52 215.83 400.374 214.113Z" fill="url(#paint1_linear_1918_2612)"/>
<path opacity="0.2" d="M400.374 214.113C397.497 211.862 385.596 219.228 381.988 222.302L384.621 238.229C384.621 238.229 401.731 231.06 402.752 226.165C403.831 221.05 402.52 215.83 400.374 214.113Z" fill="black"/>
<path d="M440.406 262.311L404.283 269.352C385.619 218.811 389.679 217.152 389.679 217.152C392.304 215.71 395.016 214.431 397.799 213.324L398.286 213.138C400.606 212.292 401.07 212.164 404.156 211.259C409.468 209.995 414.422 208.939 420.558 208.069L421.718 207.907C422.878 207.768 423.934 207.652 425.001 207.547C425.72 207.466 426.439 207.42 427.124 207.373L429.444 207.246C433.411 207.048 436.253 207.106 436.253 207.106C435.151 238.67 436.937 247.73 440.406 262.311Z" fill="url(#paint2_linear_1918_2612)"/>
<path opacity="0.2" d="M440.406 262.311L404.283 269.352C385.619 218.811 389.679 217.152 389.679 217.152C392.304 215.71 395.016 214.431 397.799 213.324L398.286 213.138C400.606 212.292 401.07 212.164 404.156 211.259C409.468 209.995 414.422 208.939 420.558 208.069L421.718 207.907C422.878 207.768 423.934 207.652 425.001 207.547C425.72 207.466 426.439 207.42 427.124 207.373L429.444 207.246C433.411 207.048 436.253 207.106 436.253 207.106C435.151 238.67 436.937 247.73 440.406 262.311Z" fill="black"/>
<path d="M412.113 191.551C409.793 195.39 418.203 197.165 423.18 193.233C427.158 190.078 426.219 182.793 422.808 181.099C419.398 179.406 412.113 191.551 412.113 191.551Z" fill="url(#paint3_linear_1918_2612)"/>
<path opacity="0.4" d="M412.113 191.551C409.793 195.39 418.203 197.165 423.18 193.233C427.158 190.078 426.219 182.793 422.808 181.099C419.398 179.406 412.113 191.551 412.113 191.551Z" fill="black"/>
<path d="M447.273 471.505L438.236 472.178L434.93 451.379L443.967 450.706L447.273 471.505Z" fill="url(#paint4_linear_1918_2612)"/>
<path d="M511.189 442.436L503.521 447.261L489.868 431.068L497.536 426.23L511.189 442.436Z" fill="url(#paint5_linear_1918_2612)"/>
<path d="M434.93 451.379L436.763 462.933L445.672 461.436L443.978 450.718L434.93 451.379Z" fill="#CF6F64"/>
<path d="M497.547 426.242L489.868 431.068L495.529 437.772L503.37 433.144L497.547 426.242Z" fill="#CF6F64"/>
<path d="M404.84 269.352C404.84 269.352 404.712 341.063 410.57 368.068C416.672 396.163 434.617 460.079 434.617 460.079L447.632 458.397C447.632 458.397 437.459 393.832 433.121 365.91C428.4 335.484 431.3 264.202 431.3 264.202L404.84 269.352Z" fill="url(#paint6_linear_1918_2612)"/>
<path opacity="0.7" d="M404.84 269.352C404.84 269.352 404.712 341.063 410.57 368.068C416.672 396.163 434.617 460.079 434.617 460.079L447.632 458.397C447.632 458.397 437.459 393.832 433.121 365.91C428.4 335.484 431.3 264.202 431.3 264.202L404.84 269.352Z" fill="black"/>
<path opacity="0.5" d="M430.488 295.986L424.108 289.629C424.351 317.179 425.894 330.786 431.195 345.611C430.36 329.939 430.29 311.402 430.488 295.986Z" fill="black"/>
<path d="M413.818 267.496C413.818 267.496 433.272 326.76 442.923 360.899C453.108 396.917 492.153 436.752 492.153 436.752L503.359 430.279C503.359 430.279 476.679 392.463 466.865 358.858C446.913 290.638 455.114 276.184 440.394 262.311L413.818 267.496Z" fill="url(#paint7_linear_1918_2612)"/>
<path opacity="0.7" d="M413.818 267.496C413.818 267.496 433.272 326.76 442.923 360.899C453.108 396.917 492.153 436.752 492.153 436.752L503.359 430.279C503.359 430.279 476.679 392.463 466.865 358.858C446.913 290.638 455.114 276.184 440.394 262.311L413.818 267.496Z" fill="black"/>
<path d="M398.53 170.624C403.703 172.353 408.401 185.194 408.598 190.251C408.796 195.309 393.611 202.281 393.611 202.281C393.611 202.281 386.918 186.041 388.786 175.601C389.598 171.065 398.53 170.624 398.53 170.624Z" fill="#263238"/>
<path d="M327.526 229.019L321.39 222.337L319.383 230.712C319.383 230.712 323.744 234.564 327.271 233.241L327.526 229.019Z" fill="url(#paint8_linear_1918_2612)"/>
<path d="M315.172 220.423L310.88 223.834L319.383 230.712L321.39 222.337L315.172 220.423Z" fill="url(#paint9_linear_1918_2612)"/>
<path d="M501.12 445.533L508.289 438.306C508.413 438.182 508.577 438.107 508.751 438.094C508.926 438.082 509.099 438.132 509.24 438.236L515.771 443.085C515.932 443.212 516.065 443.372 516.161 443.554C516.256 443.736 516.311 443.936 516.323 444.141C516.336 444.346 516.304 444.551 516.231 444.743C516.157 444.935 516.044 445.109 515.898 445.254C513.346 447.725 512.001 448.792 508.846 451.971C506.908 453.931 504.275 456.982 501.596 459.685C498.916 462.387 496.097 459.87 496.956 458.525C500.865 452.411 500.169 450.126 500.436 447.017C500.476 446.456 500.719 445.928 501.12 445.533Z" fill="#263238"/>
<path d="M437.633 470.879H447.818C447.997 470.879 448.171 470.941 448.308 471.056C448.446 471.17 448.539 471.329 448.572 471.505L450.173 479.556C450.209 479.754 450.2 479.957 450.148 480.152C450.097 480.346 450.003 480.527 449.873 480.681C449.743 480.835 449.581 480.958 449.399 481.042C449.216 481.127 449.017 481.17 448.816 481.168C445.254 481.11 443.538 480.901 439.06 480.901C436.311 480.901 430.627 481.18 426.822 481.18C423.017 481.18 422.611 477.421 424.177 477.085C431.137 475.554 433.863 473.454 436.148 471.436C436.562 471.081 437.088 470.884 437.633 470.879Z" fill="#263238"/>
<g style="mix-blend-mode:multiply" opacity="0.27">
<path d="M437.424 225.4L431.856 228.717L438.283 252.88C436.879 245.56 437.506 237.522 437.424 225.4Z" fill="url(#paint10_linear_1918_2612)"/>
</g>
<path d="M405.78 187.676C409.735 190.982 415.477 195.796 422.24 190.17C428.04 185.322 432.1 172.596 421.695 172.132C416.254 171.889 405.78 187.676 405.78 187.676Z" fill="#263238"/>
<path d="M415.338 189.938C415.338 195.413 416.185 205.285 420.558 208.092C420.558 208.092 420.164 213.73 410.35 215.632C399.574 217.732 404.156 211.282 404.156 211.282C409.77 208.73 408.796 204.392 406.94 200.494L415.338 189.938Z" fill="url(#paint11_linear_1918_2612)"/>
<path d="M411.916 194.242L406.951 200.494C407.386 201.398 407.743 202.337 408.018 203.302C410.199 202.536 412.809 199.474 412.589 197.072C412.541 196.095 412.313 195.136 411.916 194.242Z" fill="#CF6F64"/>
<path d="M415.86 177.364C417.02 186.284 417.727 190.031 414.155 195.425C408.784 203.545 397.578 203.023 393.762 194.636C390.282 187.085 388.983 173.756 396.917 168.594C398.662 167.439 400.673 166.75 402.759 166.592C404.846 166.434 406.938 166.813 408.836 167.692C410.735 168.571 412.377 169.921 413.607 171.614C414.836 173.307 415.612 175.286 415.86 177.364Z" fill="url(#paint12_linear_1918_2612)"/>
<path d="M400.362 161.739C394.33 166.019 406.429 167.284 406.441 173.49C406.441 176.053 410.652 184.185 416.637 183.721L422.437 173.42C428.539 163.56 414.12 151.96 400.362 161.739Z" fill="#263238"/>
<path d="M400.362 161.739C389.748 161.182 385.12 169.627 386.338 177.213C393.742 175.367 401.401 174.759 409.004 175.415C423.551 176.9 400.362 161.739 400.362 161.739Z" fill="#263238"/>
<path d="M418.76 185.055C418.907 186.786 418.361 188.505 417.24 189.834C415.744 191.586 413.76 190.553 413.064 188.477C412.473 186.598 412.542 183.431 414.561 182.433C415.007 182.227 415.497 182.135 415.987 182.166C416.478 182.196 416.953 182.349 417.369 182.609C417.786 182.869 418.131 183.229 418.374 183.656C418.617 184.083 418.75 184.564 418.76 185.055Z" fill="url(#paint13_linear_1918_2612)"/>
<path d="M402.972 182.433C403.112 183.152 402.845 183.802 402.381 183.895C401.917 183.988 401.418 183.477 401.279 182.735C401.14 181.992 401.406 181.354 401.87 181.262C402.334 181.169 402.833 181.714 402.972 182.433Z" fill="#263238"/>
<path d="M394.864 184.011C395.003 184.73 394.736 185.391 394.272 185.484C393.808 185.577 393.31 185.066 393.17 184.324C393.031 183.582 393.298 182.944 393.762 182.862C394.226 182.781 394.725 183.28 394.864 184.011Z" fill="#263238"/>
<path d="M393.982 182.874L392.161 182.723C392.161 182.723 393.31 183.895 393.982 182.874Z" fill="#263238"/>
<path d="M397.254 184.834C396.928 186.591 396.366 188.297 395.583 189.903C395.999 190.097 396.452 190.198 396.911 190.198C397.37 190.198 397.824 190.097 398.24 189.903L397.254 184.834Z" fill="#97735A"/>
<path d="M401.267 192.224C401.217 192.224 401.169 192.207 401.131 192.175C401.092 192.143 401.067 192.099 401.058 192.05C401.053 192.022 401.054 191.994 401.06 191.967C401.066 191.94 401.078 191.914 401.094 191.891C401.11 191.868 401.131 191.849 401.155 191.835C401.178 191.82 401.205 191.81 401.232 191.806C402.129 191.65 402.976 191.285 403.706 190.741C404.435 190.197 405.026 189.489 405.432 188.674C405.442 188.648 405.458 188.625 405.478 188.605C405.497 188.585 405.521 188.569 405.547 188.558C405.573 188.548 405.6 188.542 405.628 188.542C405.656 188.542 405.684 188.547 405.71 188.558C405.736 188.569 405.759 188.584 405.779 188.604C405.799 188.624 405.815 188.647 405.826 188.673C405.836 188.699 405.842 188.727 405.842 188.755C405.842 188.783 405.837 188.811 405.826 188.836C405.401 189.722 404.769 190.492 403.984 191.082C403.199 191.671 402.283 192.063 401.314 192.224H401.267Z" fill="#263238"/>
<path d="M404.84 179.348C404.734 179.349 404.631 179.312 404.55 179.243C404.16 178.872 403.687 178.599 403.171 178.446C402.655 178.292 402.11 178.264 401.58 178.362C401.463 178.391 401.34 178.372 401.236 178.31C401.133 178.248 401.059 178.148 401.029 178.031C401 177.914 401.019 177.79 401.081 177.687C401.143 177.584 401.243 177.509 401.36 177.48C402.029 177.348 402.72 177.377 403.375 177.565C404.03 177.753 404.632 178.093 405.13 178.559C405.209 178.639 405.254 178.747 405.254 178.86C405.254 178.973 405.209 179.082 405.13 179.162C405.098 179.212 405.055 179.254 405.005 179.286C404.955 179.318 404.899 179.339 404.84 179.348Z" fill="#263238"/>
<path d="M390.375 180.96C390.321 180.972 390.266 180.972 390.212 180.96C390.159 180.938 390.111 180.906 390.071 180.866C390.03 180.826 389.998 180.778 389.977 180.725C389.955 180.672 389.944 180.615 389.945 180.558C389.946 180.501 389.958 180.444 389.98 180.392C390.227 179.757 390.622 179.191 391.133 178.741C391.644 178.291 392.255 177.97 392.915 177.805C392.971 177.793 393.028 177.793 393.084 177.804C393.14 177.816 393.193 177.838 393.24 177.871C393.286 177.904 393.326 177.945 393.356 177.994C393.386 178.042 393.406 178.096 393.414 178.153C393.426 178.208 393.426 178.264 393.416 178.32C393.405 178.375 393.383 178.427 393.352 178.474C393.32 178.52 393.28 178.56 393.233 178.591C393.186 178.621 393.133 178.642 393.078 178.652C392.556 178.794 392.075 179.055 391.672 179.416C391.27 179.776 390.956 180.225 390.758 180.728C390.72 180.797 390.665 180.855 390.598 180.896C390.53 180.937 390.453 180.959 390.375 180.96Z" fill="#263238"/>
<path d="M498.429 449.744C498.23 449.738 498.035 449.685 497.861 449.588C497.688 449.491 497.54 449.353 497.431 449.187C497.349 449.089 497.293 448.971 497.271 448.844C497.249 448.718 497.26 448.588 497.304 448.468C497.71 447.377 500.911 446.681 501.271 446.6C501.313 446.593 501.356 446.597 501.395 446.614C501.434 446.63 501.467 446.658 501.491 446.693C501.516 446.727 501.529 446.767 501.529 446.809C501.529 446.851 501.516 446.891 501.491 446.925C500.865 447.957 499.635 449.686 498.487 449.744H498.429ZM500.853 447.134C499.589 447.458 497.918 448.038 497.71 448.618C497.689 448.672 497.685 448.73 497.697 448.786C497.709 448.841 497.738 448.892 497.779 448.932C497.851 449.051 497.953 449.15 498.075 449.217C498.198 449.284 498.336 449.318 498.475 449.314C499.09 449.28 499.96 448.479 500.853 447.134Z" fill="url(#paint14_linear_1918_2612)"/>
<path d="M500.331 447.133C499.171 447.133 497.721 446.843 497.292 446.217C497.197 446.075 497.153 445.904 497.167 445.733C497.182 445.562 497.255 445.401 497.373 445.277C497.475 445.148 497.603 445.042 497.749 444.966C497.895 444.89 498.056 444.846 498.22 444.837H498.313C499.612 444.837 501.398 446.588 501.468 446.658C501.496 446.684 501.516 446.717 501.526 446.754C501.536 446.791 501.536 446.83 501.526 446.867C501.516 446.903 501.496 446.935 501.47 446.961C501.444 446.988 501.411 447.007 501.375 447.017C501.033 447.1 500.683 447.139 500.331 447.133ZM498.313 445.266H498.243C498.139 445.269 498.037 445.296 497.945 445.344C497.852 445.393 497.772 445.461 497.709 445.544C497.547 445.765 497.594 445.892 497.652 445.973C498 446.507 499.774 446.809 500.865 446.681C500.169 445.972 499.282 445.48 498.313 445.266Z" fill="url(#paint15_linear_1918_2612)"/>
<path d="M434.304 472.468C433.524 472.537 432.743 472.341 432.088 471.911C431.933 471.79 431.812 471.632 431.735 471.452C431.658 471.271 431.628 471.074 431.648 470.879C431.647 470.762 431.676 470.647 431.733 470.546C431.79 470.444 431.873 470.359 431.972 470.299C433.04 469.672 436.775 471.528 437.192 471.737C437.232 471.758 437.264 471.79 437.284 471.829C437.305 471.869 437.313 471.913 437.308 471.957C437.303 472.001 437.284 472.042 437.256 472.075C437.227 472.108 437.188 472.132 437.146 472.143C436.211 472.339 435.259 472.448 434.304 472.468ZM432.587 470.589C432.451 470.58 432.315 470.608 432.193 470.67C432.153 470.691 432.121 470.723 432.101 470.762C432.08 470.801 432.072 470.846 432.077 470.89C432.065 471.021 432.086 471.153 432.136 471.274C432.187 471.395 432.266 471.502 432.367 471.586C432.947 472.085 434.443 472.166 436.415 471.842C435.218 471.214 433.924 470.79 432.587 470.589Z" fill="url(#paint16_linear_1918_2612)"/>
<path d="M437.1 472.12H437.018C435.858 471.621 433.62 469.649 433.782 468.64C433.782 468.408 433.991 468.106 434.571 468.048H434.745C436.763 468.048 437.285 471.737 437.308 471.9C437.314 471.938 437.309 471.978 437.295 472.014C437.28 472.051 437.257 472.083 437.227 472.108C437.187 472.124 437.142 472.128 437.1 472.12ZM434.78 468.454H434.652C434.281 468.454 434.258 468.628 434.258 468.675C434.165 469.29 435.696 470.832 436.856 471.517C436.624 470.612 436.032 468.478 434.733 468.478L434.78 468.454Z" fill="url(#paint17_linear_1918_2612)"/>
<path d="M402.091 181.296L400.27 181.134C400.27 181.134 401.418 182.317 402.091 181.296Z" fill="#263238"/>
<path d="M410.06 223.346C390.653 227.673 396.65 215.934 397.81 213.347L398.298 213.161C400.618 212.315 401.082 212.187 404.167 211.282C409.551 209.829 415.033 208.763 420.57 208.092L421.73 207.93C422.89 207.779 423.945 207.663 425.012 207.57C425.732 207.489 426.451 207.443 427.135 207.396L429.455 207.257C429.85 209.067 430.812 218.741 410.06 223.346Z" fill="url(#paint18_linear_1918_2612)"/>
<path d="M440.522 260.084L442.784 263.007C442.958 263.227 442.714 263.54 442.296 263.622L404.411 270.999C404.086 271.069 403.784 270.999 403.726 270.756L402.764 267.589C402.764 267.368 402.949 267.125 403.297 267.055L439.884 259.933C439.994 259.9 440.111 259.897 440.223 259.923C440.334 259.95 440.438 260.005 440.522 260.084Z" fill="#26395A"/>
<path d="M436.404 265.129L437.39 264.944C437.587 264.944 437.714 264.781 437.68 264.654L436.404 260.547C436.404 260.42 436.172 260.362 435.974 260.397L435 260.582C434.803 260.582 434.675 260.756 434.71 260.872L435.986 264.99C436.021 265.106 436.218 265.176 436.404 265.129Z" fill="url(#paint19_linear_1918_2612)"/>
<path d="M414.213 278.817L406.661 276.01L407.821 283.191C407.821 283.191 413.296 285.163 416.092 282.634L414.213 278.817Z" fill="url(#paint20_linear_1918_2612)"/>
<path d="M399.469 277.913L397.671 282.622L407.821 283.191L406.661 276.01L399.469 277.913Z" fill="url(#paint21_linear_1918_2612)"/>
<path d="M407.23 270.814L408.216 270.628C408.401 270.628 408.54 270.466 408.494 270.338L407.218 266.232C407.218 266.104 406.998 266.046 406.8 266.081L405.814 266.266C405.617 266.266 405.49 266.44 405.536 266.556L406.812 270.674C406.847 270.79 407.032 270.86 407.23 270.814Z" fill="url(#paint22_linear_1918_2612)"/>
<path d="M421.822 267.96L422.797 267.774C422.994 267.774 423.122 267.612 423.087 267.484L421.811 263.378C421.811 263.25 421.579 263.192 421.382 263.227L420.407 263.413C420.21 263.413 420.082 263.587 420.117 263.703L421.393 267.821C421.44 267.888 421.507 267.938 421.584 267.963C421.662 267.988 421.746 267.987 421.822 267.96Z" fill="url(#paint23_linear_1918_2612)"/>
<path d="M417.693 203.487C418.516 203.174 419.549 206.074 419.294 206.445C418.702 207.292 407.868 210.25 407.38 208.591C407.35 207.692 407.488 206.795 407.786 205.946C408.1 205.389 410.501 206.41 417.693 203.487Z" fill="url(#paint24_linear_1918_2612)"/>
<path d="M415.86 203.557C416.278 202.594 417.472 201.051 418.516 201.933C419.56 202.814 420.001 204.717 419.317 205.03C418.632 205.343 415.141 205.169 415.86 203.557Z" fill="url(#paint25_linear_1918_2612)"/>
<path d="M418.076 204.056C418.795 203.29 420.396 202.234 421.126 203.417C421.857 204.601 421.59 206.538 420.848 206.596C420.106 206.654 416.858 205.32 418.076 204.056Z" fill="url(#paint26_linear_1918_2612)"/>
<path d="M418.47 203.882C418.412 203.265 418.533 202.644 418.819 202.095C419.105 201.545 419.544 201.09 420.082 200.784C421.405 199.926 422.692 199.369 423.203 198.464C423.423 199.313 423.466 200.197 423.33 201.063C423.064 202.304 418.946 203.255 419.224 204.334L418.47 203.882Z" fill="url(#paint27_linear_1918_2612)"/>
<path d="M418.296 203.824C417.912 203.337 417.677 202.749 417.619 202.132C417.561 201.514 417.684 200.893 417.971 200.344C418.598 198.905 419.386 197.745 419.34 196.724C419.984 197.318 420.501 198.036 420.86 198.836C421.3 199.996 418.366 203.046 419.189 203.812L418.296 203.824Z" fill="url(#paint28_linear_1918_2612)"/>
<path d="M498.974 430.43C498.95 430.429 498.927 430.422 498.907 430.41C498.887 430.398 498.87 430.38 498.858 430.36C498.591 429.989 472.074 392.149 462.353 358.904C456.009 337.578 451.133 315.843 447.76 293.851C445.753 281.462 444.535 273.98 440.545 267.844C440.518 267.816 440.503 267.778 440.503 267.739C440.503 267.701 440.518 267.663 440.545 267.635C440.572 267.611 440.607 267.598 440.643 267.598C440.68 267.598 440.715 267.611 440.742 267.635C444.779 273.829 445.997 281.335 448.004 293.758C451.393 315.719 456.276 337.423 462.62 358.718C472.329 391.917 498.823 429.71 499.09 430.093C499.112 430.121 499.123 430.156 499.123 430.192C499.123 430.227 499.112 430.262 499.09 430.29C499.088 430.323 499.076 430.354 499.055 430.379C499.034 430.404 499.006 430.422 498.974 430.43Z" fill="url(#paint29_linear_1918_2612)"/>
<path opacity="0.4" d="M498.974 430.43C498.95 430.429 498.927 430.422 498.907 430.41C498.887 430.398 498.87 430.38 498.858 430.36C498.591 429.989 472.074 392.149 462.353 358.904C456.009 337.578 451.133 315.843 447.76 293.851C445.753 281.462 444.535 273.98 440.545 267.844C440.518 267.816 440.503 267.778 440.503 267.739C440.503 267.701 440.518 267.663 440.545 267.635C440.572 267.611 440.607 267.598 440.643 267.598C440.68 267.598 440.715 267.611 440.742 267.635C444.779 273.829 445.997 281.335 448.004 293.758C451.393 315.719 456.276 337.423 462.62 358.718C472.329 391.917 498.823 429.71 499.09 430.093C499.112 430.121 499.123 430.156 499.123 430.192C499.123 430.227 499.112 430.262 499.09 430.29C499.088 430.323 499.076 430.354 499.055 430.379C499.034 430.404 499.006 430.422 498.974 430.43Z" fill="black"/>
<path d="M449.964 458.351L432.239 460.648L431.079 455.706L449.535 451.797L449.964 458.351Z" fill="url(#paint30_linear_1918_2612)"/>
<path d="M504.298 429.884L491.225 437.436L486.817 433.666L501.12 423.991L504.298 429.884Z" fill="url(#paint31_linear_1918_2612)"/>
<path d="M442.946 219.391C443.572 222.615 443.932 225.655 444.28 228.798C444.628 231.942 444.756 235.051 444.848 238.194C444.941 241.363 444.871 244.533 444.64 247.695C444.512 249.284 444.373 250.873 444.152 252.474C444.06 253.263 443.955 254.063 443.804 254.863L443.375 257.323C442.9 259.327 442.028 261.216 440.812 262.879C439.814 264.278 438.713 265.6 437.517 266.835C435.279 269.134 432.875 271.266 430.325 273.215C425.393 277.013 420.172 280.422 414.712 283.411L412.229 279.56C414.549 277.715 416.869 275.813 419.189 273.876C421.509 271.939 423.713 269.978 425.836 267.937C427.934 265.972 429.913 263.884 431.764 261.684C432.614 260.667 433.389 259.589 434.084 258.459C434.632 257.637 435.025 256.721 435.244 255.757C435.621 252.941 435.842 250.106 435.905 247.265C435.905 245.815 435.905 244.365 435.905 242.915C435.905 241.465 435.847 239.992 435.777 238.531C435.638 235.607 435.371 232.731 435.058 229.761C434.745 226.791 434.339 223.857 433.898 221.107L442.946 219.391Z" fill="url(#paint32_linear_1918_2612)"/>
<path d="M441.542 209.531C446.496 213.544 445.312 225.469 445.312 225.469L428.608 230.968C428.608 230.968 429.374 217.222 430.209 212.28C431.184 206.399 436.659 205.575 441.542 209.531Z" fill="url(#paint33_linear_1918_2612)"/>
<path opacity="0.2" d="M441.542 209.531C446.496 213.544 445.312 225.469 445.312 225.469L428.608 230.968C428.608 230.968 429.374 217.222 430.209 212.28C431.184 206.399 436.659 205.575 441.542 209.531Z" fill="black"/>
<path d="M220.876 259.295C220.227 256.482 218.645 253.972 216.386 252.175C214.128 250.378 211.327 249.4 208.44 249.4H115.64C112.256 249.4 109.011 250.744 106.618 253.137C104.225 255.53 102.88 258.776 102.88 262.16V468.431C102.88 471.815 104.225 475.061 106.618 477.454C109.011 479.847 112.256 481.191 115.64 481.191H410.28C413.664 481.191 416.91 479.847 419.303 477.454C421.696 475.061 423.04 471.815 423.04 468.431V295.162C423.04 291.778 421.696 288.532 419.303 286.139C416.91 283.746 413.664 282.402 410.28 282.402H249.91C243.17 282.403 236.629 280.118 231.355 275.921C226.082 271.724 222.387 265.863 220.876 259.295Z" fill="url(#paint34_linear_1918_2612)"/>
<path opacity="0.6" d="M220.876 259.295C220.227 256.482 218.645 253.972 216.386 252.175C214.128 250.378 211.327 249.4 208.44 249.4H115.64C112.256 249.4 109.011 250.744 106.618 253.137C104.225 255.53 102.88 258.776 102.88 262.16V468.431C102.88 471.815 104.225 475.061 106.618 477.454C109.011 479.847 112.256 481.191 115.64 481.191H410.28C413.664 481.191 416.91 479.847 419.303 477.454C421.696 475.061 423.04 471.815 423.04 468.431V295.162C423.04 291.778 421.696 288.532 419.303 286.139C416.91 283.746 413.664 282.402 410.28 282.402H249.91C243.17 282.403 236.629 280.118 231.355 275.921C226.082 271.724 222.387 265.863 220.876 259.295Z" fill="black"/>
<path opacity="0.22" d="M188.117 195.054L196.388 221.838C197.444 225.247 199.809 228.097 202.965 229.764C206.121 231.43 209.809 231.775 213.22 230.724L239.992 222.453L188.117 195.054Z" fill="url(#paint35_linear_1918_2612)"/>
<path d="M188.117 195.054L92.4172 224.622C90.7278 225.141 89.1573 225.988 87.7955 227.115C86.4338 228.241 85.3075 229.625 84.4812 231.187C83.6548 232.75 83.1445 234.459 82.9796 236.219C82.8147 237.979 82.9983 239.754 83.52 241.442L138.156 418.319C138.677 420.008 139.526 421.577 140.655 422.938C141.783 424.298 143.168 425.423 144.731 426.249C146.294 427.074 148.004 427.583 149.764 427.747C151.524 427.911 153.299 427.727 154.988 427.205L277.472 389.365C279.16 388.845 280.73 387.997 282.09 386.87C283.451 385.743 284.576 384.359 285.401 382.797C286.226 381.235 286.735 379.525 286.899 377.766C287.064 376.007 286.879 374.233 286.358 372.545L239.958 222.453L188.117 195.054Z" fill="url(#paint36_linear_1918_2612)"/>
<path opacity="0.8" d="M188.117 195.054L92.4172 224.622C90.7278 225.141 89.1573 225.988 87.7955 227.115C86.4338 228.241 85.3075 229.625 84.4812 231.187C83.6548 232.75 83.1445 234.459 82.9796 236.219C82.8147 237.979 82.9983 239.754 83.52 241.442L138.156 418.319C138.677 420.008 139.526 421.577 140.655 422.938C141.783 424.298 143.168 425.423 144.731 426.249C146.294 427.074 148.004 427.583 149.764 427.747C151.524 427.911 153.299 427.727 154.988 427.205L277.472 389.365C279.16 388.845 280.73 387.997 282.09 386.87C283.451 385.743 284.576 384.359 285.401 382.797C286.226 381.235 286.735 379.525 286.899 377.766C287.064 376.007 286.879 374.233 286.358 372.545L239.958 222.453L188.117 195.054Z" fill="white"/>
<g opacity="0.28">
<path opacity="0.28" d="M239.61 381.64L159.987 406.232C158.498 406.689 156.889 406.538 155.51 405.812C154.132 405.086 153.098 403.844 152.633 402.357C152.179 400.868 152.334 399.26 153.062 397.885C153.79 396.509 155.033 395.477 156.519 395.015L236.141 370.411C237.632 369.954 239.243 370.107 240.621 370.835C241.999 371.563 243.033 372.808 243.496 374.297C243.949 375.786 243.795 377.394 243.067 378.77C242.339 380.145 241.096 381.177 239.61 381.64Z" fill="url(#paint37_linear_1918_2612)"/>
</g>
<g opacity="0.28">
<path opacity="0.28" d="M153.92 237.313L111.812 250.316C110.323 250.77 108.715 250.618 107.338 249.893C105.96 249.167 104.925 247.927 104.458 246.442C104.004 244.951 104.158 243.342 104.886 241.964C105.614 240.587 106.857 239.553 108.344 239.088L150.452 226.084C151.941 225.623 153.552 225.773 154.931 226.499C156.31 227.226 157.344 228.47 157.806 229.958C158.26 231.449 158.106 233.058 157.378 234.436C156.65 235.814 155.407 236.848 153.92 237.313Z" fill="url(#paint38_linear_1918_2612)"/>
</g>
<g opacity="0.28">
<path opacity="0.28" d="M188.28 251.105L118.68 272.6C117.194 273.046 115.592 272.888 114.221 272.161C112.851 271.433 111.823 270.195 111.36 268.714C110.903 267.226 111.054 265.618 111.78 264.242C112.507 262.866 113.749 261.833 115.234 261.371L184.834 239.876C186.323 239.419 187.933 239.57 189.311 240.296C190.689 241.022 191.724 242.264 192.189 243.751C192.638 245.244 192.48 246.855 191.748 248.232C191.016 249.61 189.769 250.642 188.28 251.105Z" fill="url(#paint39_linear_1918_2612)"/>
</g>
<g opacity="0.28">
<path opacity="0.28" d="M227.14 263.506L125.57 294.826C124.082 295.283 122.474 295.131 121.098 294.405C119.722 293.679 118.69 292.437 118.227 290.951C117.773 289.462 117.925 287.854 118.651 286.477C119.376 285.099 120.617 284.064 122.102 283.597L223.671 252.277C225.159 251.823 226.765 251.976 228.141 252.701C229.516 253.427 230.549 254.667 231.014 256.151C231.471 257.64 231.32 259.25 230.594 260.628C229.868 262.006 228.626 263.041 227.14 263.506Z" fill="url(#paint40_linear_1918_2612)"/>
</g>
<g opacity="0.28">
<path opacity="0.28" d="M234.018 285.777L174.974 304.024C173.485 304.478 171.877 304.323 170.502 303.595C169.126 302.867 168.094 301.624 167.632 300.138C167.178 298.651 167.33 297.044 168.056 295.669C168.782 294.293 170.022 293.26 171.506 292.795L230.55 274.549C232.041 274.098 233.649 274.253 235.025 274.981C236.402 275.708 237.437 276.949 237.904 278.435C238.358 279.924 238.204 281.532 237.475 282.907C236.747 284.283 235.505 285.315 234.018 285.777Z" fill="url(#paint41_linear_1918_2612)"/>
</g>
<g opacity="0.28">
<path opacity="0.28" d="M147.9 312.388L132.46 317.155C130.971 317.613 129.362 317.462 127.984 316.736C126.606 316.01 125.571 314.768 125.106 313.281C124.649 311.79 124.802 310.18 125.53 308.801C126.258 307.423 127.503 306.389 128.992 305.927L144.432 301.159C145.921 300.705 147.529 300.857 148.906 301.583C150.283 302.308 151.318 303.548 151.786 305.033C152.237 306.524 152.081 308.132 151.354 309.509C150.626 310.886 149.385 311.92 147.9 312.388Z" fill="url(#paint42_linear_1918_2612)"/>
</g>
<g opacity="0.28">
<path opacity="0.28" d="M240.909 308.061L139.339 339.439C137.85 339.892 136.242 339.738 134.867 339.01C133.491 338.282 132.459 337.039 131.996 335.553C131.539 334.065 131.691 332.457 132.417 331.081C133.143 329.705 134.385 328.673 135.871 328.21L237.44 296.832C238.928 296.378 240.534 296.531 241.91 297.257C243.285 297.982 244.318 299.223 244.783 300.707C245.241 302.196 245.09 303.805 244.364 305.183C243.638 306.561 242.396 307.596 240.909 308.061Z" fill="url(#paint43_linear_1918_2612)"/>
</g>
<g opacity="0.28">
<path opacity="0.28" d="M208.591 342.443L146.218 361.711C144.73 362.165 143.124 362.012 141.748 361.286C140.373 360.561 139.34 359.321 138.875 357.837C138.421 356.348 138.573 354.739 139.299 353.362C140.024 351.985 141.265 350.95 142.75 350.482L205.123 331.215C206.613 330.761 208.223 330.915 209.6 331.643C210.978 332.371 212.012 333.614 212.477 335.101C212.934 336.59 212.781 338.199 212.052 339.575C211.324 340.952 210.079 341.983 208.591 342.443Z" fill="url(#paint44_linear_1918_2612)"/>
</g>
<g opacity="0.28">
<path opacity="0.28" d="M247.788 330.345L231.142 335.483C229.651 335.937 228.041 335.783 226.664 335.055C225.286 334.327 224.252 333.084 223.787 331.597C223.334 330.108 223.488 328.5 224.216 327.125C224.944 325.749 226.187 324.717 227.673 324.255L244.319 319.116C245.807 318.659 247.415 318.81 248.791 319.536C250.167 320.262 251.2 321.504 251.662 322.99C252.119 324.479 251.968 326.089 251.242 327.467C250.516 328.845 249.274 329.88 247.788 330.345Z" fill="url(#paint45_linear_1918_2612)"/>
</g>
<g opacity="0.28">
<path opacity="0.28" d="M254.666 352.64L153.12 383.96C151.629 384.417 150.019 384.264 148.64 383.536C147.262 382.808 146.228 381.563 145.766 380.074C145.309 378.585 145.462 376.976 146.19 375.599C146.919 374.222 148.164 373.191 149.652 372.731L251.21 341.353C252.7 340.903 254.308 341.058 255.685 341.785C257.062 342.513 258.096 343.754 258.564 345.239C258.797 345.981 258.881 346.761 258.811 347.536C258.741 348.31 258.518 349.063 258.156 349.751C257.794 350.439 257.299 351.048 256.7 351.544C256.101 352.04 255.41 352.412 254.666 352.64Z" fill="url(#paint46_linear_1918_2612)"/>
</g>
<path d="M256.847 128.539L287.216 196.214C288.004 197.98 288.061 199.987 287.375 201.796C286.688 203.604 285.313 205.067 283.55 205.865L154.721 263.691C152.955 264.482 150.947 264.541 149.137 263.854C147.328 263.167 145.865 261.79 145.07 260.025L114.689 192.351C113.894 190.583 113.833 188.572 114.521 186.76C115.208 184.948 116.587 183.483 118.355 182.688L247.184 124.862C248.954 124.074 250.964 124.018 252.774 124.707C254.585 125.396 256.049 126.774 256.847 128.539Z" fill="url(#paint47_linear_1918_2612)"/>
<path opacity="0.3" d="M256.847 128.539L287.216 196.214C288.004 197.98 288.061 199.987 287.375 201.796C286.688 203.604 285.313 205.067 283.55 205.865L154.721 263.691C152.955 264.482 150.947 264.541 149.137 263.854C147.328 263.167 145.865 261.79 145.07 260.025L114.689 192.351C113.894 190.583 113.833 188.572 114.521 186.76C115.208 184.948 116.587 183.483 118.355 182.688L247.184 124.862C248.954 124.074 250.964 124.018 252.774 124.707C254.585 125.396 256.049 126.774 256.847 128.539Z" fill="black"/>
<path d="M236.543 125.195L232.426 127.042L232.901 128.101L237.018 126.254L236.543 125.195Z" fill="url(#paint48_linear_1918_2612)"/>
<path d="M226.66 129.623L213.822 135.382L214.297 136.441L227.135 130.682L226.66 129.623Z" fill="url(#paint49_linear_1918_2612)"/>
<path d="M114.575 199.171L113.517 199.646L117.033 207.477L118.091 207.002L114.575 199.171Z" fill="url(#paint50_linear_1918_2612)"/>
<path opacity="0.6" d="M252.532 124.619L219.31 189.695C216.227 195.726 211.178 200.526 204.998 203.299C198.818 206.073 191.877 206.655 185.322 204.949L114.62 186.516C115.345 184.82 116.677 183.455 118.355 182.688L247.184 124.862C248.872 124.108 250.783 124.021 252.532 124.619Z" fill="url(#paint51_linear_1918_2612)"/>
<path d="M298.201 207.906L198.232 214.078C196.466 214.183 194.738 214.635 193.147 215.409C191.556 216.182 190.133 217.262 188.96 218.586C187.786 219.91 186.886 221.453 186.309 223.126C185.733 224.798 185.492 226.568 185.6 228.334L197.003 413.099C197.109 414.866 197.563 416.595 198.339 418.186C199.115 419.778 200.197 421.2 201.523 422.373C202.85 423.545 204.395 424.444 206.069 425.019C207.744 425.593 209.516 425.831 211.282 425.72L339.23 417.82C340.995 417.714 342.72 417.26 344.309 416.486C345.898 415.711 347.318 414.631 348.488 413.306C349.658 411.982 350.556 410.44 351.129 408.768C351.702 407.096 351.94 405.327 351.828 403.564L342.2 246.766L298.201 207.906Z" fill="url(#paint52_linear_1918_2612)"/>
<path opacity="0.8" d="M298.201 207.906L198.232 214.078C196.466 214.183 194.738 214.635 193.147 215.409C191.556 216.182 190.133 217.262 188.96 218.586C187.786 219.91 186.886 221.453 186.309 223.126C185.733 224.798 185.492 226.568 185.6 228.334L197.003 413.099C197.109 414.866 197.563 416.595 198.339 418.186C199.115 419.778 200.197 421.2 201.523 422.373C202.85 423.545 204.395 424.444 206.069 425.019C207.744 425.593 209.516 425.831 211.282 425.72L339.23 417.82C340.995 417.714 342.72 417.26 344.309 416.486C345.898 415.711 347.318 414.631 348.488 413.306C349.658 411.982 350.556 410.44 351.129 408.768C351.702 407.096 351.94 405.327 351.828 403.564L342.2 246.766L298.201 207.906Z" fill="white"/>
<g opacity="0.22">
<path opacity="0.22" d="M304.245 401.36L221.061 406.499C219.507 406.587 217.981 406.058 216.816 405.026C215.651 403.993 214.942 402.542 214.844 400.989C214.754 399.435 215.282 397.91 216.312 396.743C217.341 395.577 218.79 394.864 220.342 394.759L303.526 389.632C305.08 389.54 306.607 390.066 307.774 391.097C308.941 392.127 309.653 393.577 309.755 395.131C309.847 396.686 309.319 398.216 308.286 399.383C307.253 400.55 305.8 401.261 304.245 401.36Z" fill="url(#paint53_linear_1918_2612)"/>
</g>
<g opacity="0.22">
<path opacity="0.22" d="M255.014 240.909L211.016 243.6C209.462 243.689 207.937 243.161 206.77 242.132C205.604 241.102 204.891 239.654 204.786 238.101C204.697 236.546 205.227 235.019 206.259 233.852C207.291 232.685 208.742 231.974 210.296 231.872L254.295 229.158C255.848 229.066 257.374 229.593 258.539 230.623C259.705 231.654 260.414 233.104 260.513 234.656C260.611 236.214 260.088 237.747 259.057 238.92C258.026 240.092 256.572 240.807 255.014 240.909Z" fill="url(#paint54_linear_1918_2612)"/>
</g>
<g opacity="0.22">
<path opacity="0.22" d="M285.151 262.415L212.454 266.892C210.899 266.988 209.37 266.462 208.202 265.432C207.034 264.401 206.323 262.949 206.225 261.394C206.133 259.838 206.661 258.309 207.693 257.142C208.726 255.974 210.179 255.263 211.735 255.165L284.42 250.687C285.975 250.592 287.504 251.117 288.672 252.148C289.84 253.179 290.551 254.631 290.649 256.186C290.742 257.74 290.215 259.267 289.185 260.434C288.155 261.601 286.705 262.313 285.151 262.415Z" fill="url(#paint55_linear_1918_2612)"/>
</g>
<g opacity="0.22">
<path opacity="0.22" d="M319.986 283.631L213.892 290.174C212.333 290.269 210.8 289.743 209.628 288.71C208.456 287.677 207.741 286.222 207.64 284.664C207.548 283.111 208.075 281.585 209.105 280.42C210.136 279.254 211.586 278.545 213.138 278.446L319.244 271.892C320.798 271.803 322.324 272.333 323.489 273.365C324.653 274.397 325.363 275.849 325.461 277.402C325.554 278.952 325.03 280.477 324.005 281.643C322.98 282.81 321.535 283.524 319.986 283.631Z" fill="url(#paint56_linear_1918_2612)"/>
</g>
<g opacity="0.22">
<path opacity="0.22" d="M321.424 306.901L259.747 310.706C258.193 310.798 256.666 310.271 255.499 309.241C254.331 308.211 253.619 306.761 253.518 305.207C253.423 303.653 253.948 302.123 254.979 300.956C256.01 299.788 257.462 299.077 259.016 298.978L320.693 295.173C322.248 295.078 323.777 295.604 324.945 296.634C326.113 297.665 326.824 299.117 326.923 300.672C327.015 302.226 326.488 303.753 325.458 304.92C324.428 306.087 322.978 306.8 321.424 306.901Z" fill="url(#paint57_linear_1918_2612)"/>
</g>
<g opacity="0.22">
<path opacity="0.22" d="M231.455 312.446L215.319 313.443C213.766 313.535 212.24 313.009 211.075 311.978C209.91 310.948 209.2 309.497 209.102 307.945C209.009 306.391 209.536 304.864 210.566 303.696C211.596 302.529 213.047 301.817 214.6 301.716L230.736 300.718C232.291 300.629 233.818 301.158 234.985 302.19C236.152 303.222 236.863 304.674 236.965 306.228C237.054 307.782 236.524 309.308 235.492 310.473C234.459 311.638 233.008 312.347 231.455 312.446Z" fill="url(#paint58_linear_1918_2612)"/>
</g>
<g opacity="0.22">
<path opacity="0.22" d="M322.863 330.171L216.758 336.713C215.204 336.805 213.676 336.279 212.509 335.248C211.342 334.218 210.63 332.768 210.528 331.215C210.439 329.659 210.969 328.132 212.001 326.965C213.033 325.798 214.484 325.087 216.038 324.985L322.132 318.443C323.688 318.351 325.217 318.879 326.384 319.912C327.552 320.944 328.263 322.397 328.361 323.953C328.453 325.506 327.926 327.032 326.896 328.197C325.865 329.362 324.415 330.072 322.863 330.171Z" fill="url(#paint59_linear_1918_2612)"/>
</g>
<g opacity="0.22">
<path opacity="0.22" d="M283.353 355.969L218.196 359.994C216.641 360.083 215.113 359.554 213.947 358.522C212.78 357.49 212.068 356.039 211.967 354.484C211.878 352.93 212.407 351.404 213.44 350.239C214.472 349.075 215.923 348.365 217.477 348.267L282.634 344.242C284.188 344.153 285.714 344.682 286.879 345.715C288.044 346.747 288.753 348.198 288.852 349.752C288.947 351.305 288.421 352.833 287.39 353.999C286.359 355.165 284.907 355.874 283.353 355.969Z" fill="url(#paint60_linear_1918_2612)"/>
</g>
<g opacity="0.22">
<path opacity="0.22" d="M324.29 353.452L306.89 354.519C305.337 354.611 303.811 354.084 302.645 353.054C301.48 352.023 300.771 350.573 300.672 349.021C300.577 347.466 301.102 345.937 302.133 344.769C303.164 343.601 304.616 342.89 306.17 342.791L323.57 341.724C325.125 341.629 326.654 342.154 327.822 343.185C328.99 344.216 329.701 345.668 329.8 347.223C329.889 348.778 329.359 350.305 328.327 351.472C327.295 352.639 325.844 353.35 324.29 353.452Z" fill="url(#paint61_linear_1918_2612)"/>
</g>
<g opacity="0.22">
<path opacity="0.22" d="M325.728 376.721L219.634 383.264C218.08 383.356 216.553 382.829 215.386 381.799C214.219 380.769 213.507 379.319 213.405 377.765C213.313 376.211 213.84 374.684 214.87 373.517C215.9 372.35 217.35 371.638 218.904 371.536L325.009 364.994C326.562 364.902 328.088 365.428 329.253 366.459C330.418 367.489 331.128 368.94 331.226 370.492C331.322 372.047 330.796 373.576 329.765 374.744C328.735 375.912 327.283 376.623 325.728 376.721Z" fill="url(#paint62_linear_1918_2612)"/>
</g>
<path opacity="0.22" d="M298.201 207.906L299.929 235.886C300.037 237.65 300.492 239.375 301.267 240.964C302.042 242.552 303.122 243.973 304.446 245.144C305.77 246.314 307.311 247.213 308.982 247.788C310.654 248.363 312.422 248.603 314.186 248.495L342.2 246.766L298.201 207.906Z" fill="url(#paint63_linear_1918_2612)"/>
<path opacity="0.5" d="M265.466 277.704C265.449 276.363 265.162 275.039 264.625 273.811C264.087 272.583 263.308 271.474 262.335 270.552C261.362 269.63 260.214 268.912 258.958 268.441C257.703 267.969 256.366 267.755 255.026 267.809H162.11C155.069 267.809 148.19 273.528 146.868 280.569L110.2 468.431C108.831 475.472 113.425 481.191 120.466 481.191H415.106C422.147 481.191 428.968 475.484 430.348 468.431L460.59 313.571C461.958 306.518 457.365 300.811 450.324 300.811H290C276.08 300.811 265.942 291.229 265.466 277.704Z" fill="url(#paint64_linear_1918_2612)"/>
<defs>
<linearGradient id="paint0_linear_1918_2612" x1="6139.97" y1="42111.7" x2="8558.42" y2="54477.3" gradientUnits="userSpaceOnUse">
<stop stop-color="#C6946A"/>
<stop offset="1" stop-color="#513E52"/>
</linearGradient>
<linearGradient id="paint1_linear_1918_2612" x1="61576.4" y1="73724.3" x2="48602.4" y2="51886.1" gradientUnits="userSpaceOnUse">
<stop/>
<stop offset="1" stop-color="#5E88F3"/>
</linearGradient>
<linearGradient id="paint2_linear_1918_2612" x1="148243" y1="186713" x2="114580" y2="132752" gradientUnits="userSpaceOnUse">
<stop/>
<stop offset="1" stop-color="#5E88F3"/>
</linearGradient>
<linearGradient id="paint3_linear_1918_2612" x1="41121.4" y1="43647.2" x2="33907.7" y2="29986.1" gradientUnits="userSpaceOnUse">
<stop/>
<stop offset="1" stop-color="#5E88F3"/>
</linearGradient>
<linearGradient id="paint4_linear_1918_2612" x1="1465.33" y1="34596.9" x2="6668.56" y2="40380.1" gradientUnits="userSpaceOnUse">
<stop stop-color="#C6946A"/>
<stop offset="1" stop-color="#513E52"/>
</linearGradient>
<linearGradient id="paint5_linear_1918_2612" x1="2269.83" y1="33871.6" x2="6418.92" y2="42004.8" gradientUnits="userSpaceOnUse">
<stop stop-color="#C6946A"/>
<stop offset="1" stop-color="#513E52"/>
</linearGradient>
<linearGradient id="paint6_linear_1918_2612" x1="124222" y1="587094" x2="39090.9" y2="550774" gradientUnits="userSpaceOnUse">
<stop/>
<stop offset="1" stop-color="#5E88F3"/>
</linearGradient>
<linearGradient id="paint7_linear_1918_2612" x1="259492" y1="522870" x2="154467" y2="417594" gradientUnits="userSpaceOnUse">
<stop/>
<stop offset="1" stop-color="#5E88F3"/>
</linearGradient>
<linearGradient id="paint8_linear_1918_2612" x1="999.22" y1="18002.7" x2="3571.49" y2="21625.2" gradientUnits="userSpaceOnUse">
<stop stop-color="#C6946A"/>
<stop offset="1" stop-color="#513E52"/>
</linearGradient>
<linearGradient id="paint9_linear_1918_2612" x1="1188.27" y1="16583.3" x2="3209.24" y2="20574.7" gradientUnits="userSpaceOnUse">
<stop stop-color="#C6946A"/>
<stop offset="1" stop-color="#513E52"/>
</linearGradient>
<linearGradient id="paint10_linear_1918_2612" x1="19026.1" y1="82553.9" x2="6522.32" y2="76843.7" gradientUnits="userSpaceOnUse">
<stop/>
<stop offset="1" stop-color="#5E88F3"/>
</linearGradient>
<linearGradient id="paint11_linear_1918_2612" x1="1853.33" y1="41719.5" x2="8020.71" y2="49651.6" gradientUnits="userSpaceOnUse">
<stop stop-color="#C6946A"/>
<stop offset="1" stop-color="#513E52"/>
</linearGradient>
<linearGradient id="paint12_linear_1918_2612" x1="2542.61" y1="55307.8" x2="10465.2" y2="66694" gradientUnits="userSpaceOnUse">
<stop stop-color="#C6946A"/>
<stop offset="1" stop-color="#513E52"/>
</linearGradient>
<linearGradient id="paint13_linear_1918_2612" x1="917.212" y1="13802.8" x2="2907.59" y2="16518.1" gradientUnits="userSpaceOnUse">
<stop stop-color="#C6946A"/>
<stop offset="1" stop-color="#513E52"/>
</linearGradient>
<linearGradient id="paint14_linear_1918_2612" x1="12849.5" y1="9874.52" x2="11597.5" y2="6557.78" gradientUnits="userSpaceOnUse">
<stop/>
<stop offset="1" stop-color="#5E88F3"/>
</linearGradient>
<linearGradient id="paint15_linear_1918_2612" x1="13138.7" y1="7327.14" x2="12444.2" y2="4747.93" gradientUnits="userSpaceOnUse">
<stop/>
<stop offset="1" stop-color="#5E88F3"/>
</linearGradient>
<linearGradient id="paint16_linear_1918_2612" x1="16832.3" y1="7394.44" x2="16275.5" y2="4727.65" gradientUnits="userSpaceOnUse">
<stop/>
<stop offset="1" stop-color="#5E88F3"/>
</linearGradient>
<linearGradient id="paint17_linear_1918_2612" x1="10667.2" y1="12678.6" x2="8519.16" y2="9038.42" gradientUnits="userSpaceOnUse">
<stop/>
<stop offset="1" stop-color="#5E88F3"/>
</linearGradient>
<linearGradient id="paint18_linear_1918_2612" x1="3198.5" y1="27301.6" x2="5237.55" y2="35069.8" gradientUnits="userSpaceOnUse">
<stop stop-color="#C6946A"/>
<stop offset="1" stop-color="#513E52"/>
</linearGradient>
<linearGradient id="paint19_linear_1918_2612" x1="9060.04" y1="14512.8" x2="6253.22" y2="11078.1" gradientUnits="userSpaceOnUse">
<stop/>
<stop offset="1" stop-color="#5E88F3"/>
</linearGradient>
<linearGradient id="paint20_linear_1918_2612" x1="1193.99" y1="12859.3" x2="2602.18" y2="16104.6" gradientUnits="userSpaceOnUse">
<stop stop-color="#C6946A"/>
<stop offset="1" stop-color="#513E52"/>
</linearGradient>
<linearGradient id="paint21_linear_1918_2612" x1="1245.04" y1="11695" x2="2374.25" y2="14781.4" gradientUnits="userSpaceOnUse">
<stop stop-color="#C6946A"/>
<stop offset="1" stop-color="#513E52"/>
</linearGradient>
<linearGradient id="paint22_linear_1918_2612" x1="9017.88" y1="14518.4" x2="6210.22" y2="11087.9" gradientUnits="userSpaceOnUse">
<stop/>
<stop offset="1" stop-color="#5E88F3"/>
</linearGradient>
<linearGradient id="paint23_linear_1918_2612" x1="9045.45" y1="14535.5" x2="6233.92" y2="11099.9" gradientUnits="userSpaceOnUse">
<stop/>
<stop offset="1" stop-color="#5E88F3"/>
</linearGradient>
<linearGradient id="paint24_linear_1918_2612" x1="35003.6" y1="17053.1" x2="33461.8" y2="10652.2" gradientUnits="userSpaceOnUse">
<stop/>
<stop offset="1" stop-color="#5E88F3"/>
</linearGradient>
<linearGradient id="paint25_linear_1918_2612" x1="11649.7" y1="10652.8" x2="10054.6" y2="7186.08" gradientUnits="userSpaceOnUse">
<stop/>
<stop offset="1" stop-color="#5E88F3"/>
</linearGradient>
<linearGradient id="paint26_linear_1918_2612" x1="11276.8" y1="11321.4" x2="9475.68" y2="7764.64" gradientUnits="userSpaceOnUse">
<stop/>
<stop offset="1" stop-color="#5E88F3"/>
</linearGradient>
<linearGradient id="paint27_linear_1918_2612" x1="14746.7" y1="17783.2" x2="11611.7" y2="12618.3" gradientUnits="userSpaceOnUse">
<stop/>
<stop offset="1" stop-color="#5E88F3"/>
</linearGradient>
<linearGradient id="paint28_linear_1918_2612" x1="9965.5" y1="21465.2" x2="5711.26" y2="17603.5" gradientUnits="userSpaceOnUse">
<stop/>
<stop offset="1" stop-color="#5E88F3"/>
</linearGradient>
<linearGradient id="paint29_linear_1918_2612" x1="170054" y1="488093" x2="77804.8" y2="423239" gradientUnits="userSpaceOnUse">
<stop/>
<stop offset="1" stop-color="#5E88F3"/>
</linearGradient>
<linearGradient id="paint30_linear_1918_2612" x1="55072.7" y1="26967.8" x2="52654.3" y2="16890.7" gradientUnits="userSpaceOnUse">
<stop/>
<stop offset="1" stop-color="#5E88F3"/>
</linearGradient>
<linearGradient id="paint31_linear_1918_2612" x1="51067.2" y1="40702.2" x2="45547.6" y2="26687" gradientUnits="userSpaceOnUse">
<stop/>
<stop offset="1" stop-color="#5E88F3"/>
</linearGradient>
<linearGradient id="paint32_linear_1918_2612" x1="3138.74" y1="102031" x2="18738.1" y2="117418" gradientUnits="userSpaceOnUse">
<stop stop-color="#C6946A"/>
<stop offset="1" stop-color="#513E52"/>
</linearGradient>
<linearGradient id="paint33_linear_1918_2612" x1="49118.1" y1="71727.8" x2="35449" y2="52911.8" gradientUnits="userSpaceOnUse">
<stop/>
<stop offset="1" stop-color="#5E88F3"/>
</linearGradient>
<linearGradient id="paint34_linear_1918_2612" x1="926460" y1="694673" x2="835489" y2="449291" gradientUnits="userSpaceOnUse">
<stop/>
<stop offset="1" stop-color="#5E88F3"/>
</linearGradient>
<linearGradient id="paint35_linear_1918_2612" x1="150285" y1="108849" x2="136427" y2="70139.3" gradientUnits="userSpaceOnUse">
<stop/>
<stop offset="1" stop-color="#5E88F3"/>
</linearGradient>
<linearGradient id="paint36_linear_1918_2612" x1="590447" y1="697494" x2="468384" y2="488533" gradientUnits="userSpaceOnUse">
<stop/>
<stop offset="1" stop-color="#5E88F3"/>
</linearGradient>
<linearGradient id="paint37_linear_1918_2612" x1="264535" y1="109239" x2="255979" y2="67224.1" gradientUnits="userSpaceOnUse">
<stop/>
<stop offset="1" stop-color="#5E88F3"/>
</linearGradient>
<linearGradient id="paint38_linear_1918_2612" x1="155944" y1="74380" x2="149298" y2="46139.3" gradientUnits="userSpaceOnUse">
<stop/>
<stop offset="1" stop-color="#5E88F3"/>
</linearGradient>
<linearGradient id="paint39_linear_1918_2612" x1="235459" y1="99800.5" x2="227438" y2="61462.4" gradientUnits="userSpaceOnUse">
<stop/>
<stop offset="1" stop-color="#5E88F3"/>
</linearGradient>
<linearGradient id="paint40_linear_1918_2612" x1="327952" y1="129269" x2="318228" y2="79306.5" gradientUnits="userSpaceOnUse">
<stop/>
<stop offset="1" stop-color="#5E88F3"/>
</linearGradient>
<linearGradient id="paint41_linear_1918_2612" x1="204977" y1="90103.7" x2="197498" y2="55621.2" gradientUnits="userSpaceOnUse">
<stop/>
<stop offset="1" stop-color="#5E88F3"/>
</linearGradient>
<linearGradient id="paint42_linear_1918_2612" x1="78801.9" y1="49772.1" x2="73163.8" y2="31641.6" gradientUnits="userSpaceOnUse">
<stop/>
<stop offset="1" stop-color="#5E88F3"/>
</linearGradient>
<linearGradient id="paint43_linear_1918_2612" x1="327973" y1="129476" x2="318226" y2="79454.8" gradientUnits="userSpaceOnUse">
<stop/>
<stop offset="1" stop-color="#5E88F3"/>
</linearGradient>
<linearGradient id="paint44_linear_1918_2612" x1="214591" y1="93230" x2="206942" y2="57529.9" gradientUnits="userSpaceOnUse">
<stop/>
<stop offset="1" stop-color="#5E88F3"/>
</linearGradient>
<linearGradient id="paint45_linear_1918_2612" x1="82367.7" y1="50898.1" x2="76702.5" y2="32294.1" gradientUnits="userSpaceOnUse">
<stop/>
<stop offset="1" stop-color="#5E88F3"/>
</linearGradient>
<linearGradient id="paint46_linear_1918_2612" x1="328050" y1="129520" x2="318304" y2="79498.2" gradientUnits="userSpaceOnUse">
<stop/>
<stop offset="1" stop-color="#5E88F3"/>
</linearGradient>
<linearGradient id="paint47_linear_1918_2612" x1="503007" y1="419856" x2="443509" y2="275714" gradientUnits="userSpaceOnUse">
<stop/>
<stop offset="1" stop-color="#5E88F3"/>
</linearGradient>
<linearGradient id="paint48_linear_1918_2612" x1="13567.4" y1="-2045.88" x2="12840.6" y2="-3224.64" gradientUnits="userSpaceOnUse">
<stop/>
<stop offset="1" stop-color="#5E88F3"/>
</linearGradient>
<linearGradient id="paint49_linear_1918_2612" x1="38782.7" y1="-13356.9" x2="38158.3" y2="-14605" gradientUnits="userSpaceOnUse">
<stop/>
<stop offset="1" stop-color="#5E88F3"/>
</linearGradient>
<linearGradient id="paint50_linear_1918_2612" x1="13709.2" y1="22285.4" x2="11107.1" y2="22716" gradientUnits="userSpaceOnUse">
<stop/>
<stop offset="1" stop-color="#5E88F3"/>
</linearGradient>
<linearGradient id="paint51_linear_1918_2612" x1="399153" y1="244836" x2="371835" y2="154765" gradientUnits="userSpaceOnUse">
<stop/>
<stop offset="1" stop-color="#5E88F3"/>
</linearGradient>
<linearGradient id="paint52_linear_1918_2612" x1="481304" y1="652835" x2="359948" y2="471939" gradientUnits="userSpaceOnUse">
<stop/>
<stop offset="1" stop-color="#5E88F3"/>
</linearGradient>
<linearGradient id="paint53_linear_1918_2612" x1="274891" y1="50979.4" x2="273054" y2="30813.3" gradientUnits="userSpaceOnUse">
<stop/>
<stop offset="1" stop-color="#5E88F3"/>
</linearGradient>
<linearGradient id="paint54_linear_1918_2612" x1="161507" y1="43556" x2="159233" y2="26443.7" gradientUnits="userSpaceOnUse">
<stop/>
<stop offset="1" stop-color="#5E88F3"/>
</linearGradient>
<linearGradient id="paint55_linear_1918_2612" x1="244542" y1="48865.8" x2="242638" y2="29513.5" gradientUnits="userSpaceOnUse">
<stop/>
<stop offset="1" stop-color="#5E88F3"/>
</linearGradient>
<linearGradient id="paint56_linear_1918_2612" x1="341174" y1="55103.6" x2="339432" y2="33203.7" gradientUnits="userSpaceOnUse">
<stop/>
<stop offset="1" stop-color="#5E88F3"/>
</linearGradient>
<linearGradient id="paint57_linear_1918_2612" x1="212706" y1="46892.7" x2="210698" y2="28381.7" gradientUnits="userSpaceOnUse">
<stop/>
<stop offset="1" stop-color="#5E88F3"/>
</linearGradient>
<linearGradient id="paint58_linear_1918_2612" x1="80886.9" y1="38484" x2="77481.3" y2="23934.2" gradientUnits="userSpaceOnUse">
<stop/>
<stop offset="1" stop-color="#5E88F3"/>
</linearGradient>
<linearGradient id="paint59_linear_1918_2612" x1="341208" y1="55115.3" x2="339469" y2="33229.2" gradientUnits="userSpaceOnUse">
<stop/>
<stop offset="1" stop-color="#5E88F3"/>
</linearGradient>
<linearGradient id="paint60_linear_1918_2612" x1="222732" y1="47595.9" x2="220759" y2="28811.3" gradientUnits="userSpaceOnUse">
<stop/>
<stop offset="1" stop-color="#5E88F3"/>
</linearGradient>
<linearGradient id="paint61_linear_1918_2612" x1="84638.7" y1="38737.6" x2="81331.7" y2="24049.8" gradientUnits="userSpaceOnUse">
<stop/>
<stop offset="1" stop-color="#5E88F3"/>
</linearGradient>
<linearGradient id="paint62_linear_1918_2612" x1="341181" y1="55162" x2="339442" y2="33275.9" gradientUnits="userSpaceOnUse">
<stop/>
<stop offset="1" stop-color="#5E88F3"/>
</linearGradient>
<linearGradient id="paint63_linear_1918_2612" x1="127605" y1="121883" x2="108711" y2="81909.3" gradientUnits="userSpaceOnUse">
<stop/>
<stop offset="1" stop-color="#5E88F3"/>
</linearGradient>
<linearGradient id="paint64_linear_1918_2612" x1="1.01533e+06" y1="639564" x2="942384" y2="405331" gradientUnits="userSpaceOnUse">
<stop/>
<stop offset="1" stop-color="#5E88F3"/>
</linearGradient>
</defs>
</svg>
