<svg width="580" height="580" viewBox="0 0 580 580" fill="none" xmlns="http://www.w3.org/2000/svg">
<path d="M521.884 462.248H483.465V462.538H521.884V462.248Z" fill="#EBEBEB"/>
<path d="M384.215 465.404H374.135V465.694H384.215V465.404Z" fill="#EBEBEB"/>
<path d="M482.305 451.484H460.044V451.774H482.305V451.484Z" fill="#EBEBEB"/>
<path d="M110.954 453.432H60.8536V453.722H110.954V453.432Z" fill="#EBEBEB"/>
<path d="M128.632 453.432H121.29V453.722H128.632V453.432Z" fill="#EBEBEB"/>
<path d="M261.174 458.328H152.505V458.618H261.174V458.328Z" fill="#EBEBEB"/>
<path d="M274.92 391.848H50.9356C49.1809 391.845 47.4992 391.146 46.2595 389.904C45.0199 388.662 44.3236 386.979 44.3236 385.224V70.3656C44.3389 68.621 45.0419 66.9529 46.2799 65.7235C47.5179 64.4942 49.1909 63.803 50.9356 63.8H274.92C276.677 63.8 278.361 64.4978 279.604 65.74C280.846 66.9822 281.544 68.6669 281.544 70.4236V385.224C281.544 386.981 280.846 388.666 279.604 389.908C278.361 391.15 276.677 391.848 274.92 391.848ZM50.9356 64.032C49.2579 64.0351 47.6499 64.7037 46.4646 65.8912C45.2793 67.0786 44.6136 68.6878 44.6136 70.3656V385.224C44.6136 386.902 45.2793 388.511 46.4646 389.699C47.6499 390.886 49.2579 391.555 50.9356 391.558H274.92C276.599 391.555 278.208 390.887 279.395 389.7C280.582 388.512 281.251 386.903 281.254 385.224V70.3656C281.251 68.6868 280.582 67.0776 279.395 65.8905C278.208 64.7033 276.599 64.0351 274.92 64.032H50.9356Z" fill="#EBEBEB"/>
<path d="M525.84 391.848H301.844C300.088 391.845 298.405 391.146 297.163 389.905C295.922 388.663 295.223 386.98 295.22 385.224V70.3656C295.238 68.6199 295.944 66.9518 297.184 65.7228C298.424 64.4938 300.098 63.803 301.844 63.8H525.84C527.582 63.806 529.252 64.4986 530.488 65.7276C531.723 66.9566 532.425 68.623 532.44 70.3656V385.224C532.44 386.977 531.745 388.658 530.508 389.9C529.271 391.141 527.592 391.842 525.84 391.848ZM301.844 64.032C300.165 64.0351 298.556 64.7033 297.368 65.8905C296.181 67.0776 295.513 68.6868 295.51 70.3656V385.224C295.513 386.903 296.181 388.512 297.368 389.7C298.556 390.887 300.165 391.555 301.844 391.558H525.84C527.518 391.555 529.128 390.887 530.315 389.7C531.502 388.512 532.17 386.903 532.173 385.224V70.3656C532.17 68.6868 531.502 67.0776 530.315 65.8905C529.128 64.7033 527.518 64.0351 525.84 64.032H301.844Z" fill="#EBEBEB"/>
<path d="M580 443.584H0V443.874H580V443.584Z" fill="#EBEBEB"/>
<path d="M528.566 82.7892H445.916V363.173H528.566V82.7892Z" fill="#FAFAFA"/>
<path d="M530.665 182.039H427.332V360.725H530.665V182.039Z" fill="#E0E0E0"/>
<path d="M447.18 157.076V201.886H455.335H502.674H510.829V157.076H447.18Z" fill="#E0E0E0"/>
<path d="M447.18 188.662H433.956V201.886H447.18V188.662Z" fill="#FAFAFA"/>
<path d="M472.804 188.662H459.58V201.886H472.804V188.662Z" fill="#FAFAFA"/>
<path d="M498.429 188.662H485.205V201.886H498.429V188.662Z" fill="#FAFAFA"/>
<path d="M524.065 188.662H510.829V201.886H524.065V188.662Z" fill="#F0F0F0"/>
<path d="M447.18 212.698H433.956V225.933H447.18V212.698Z" fill="#F0F0F0"/>
<path d="M472.804 212.698H459.58V225.933H472.804V212.698Z" fill="#F0F0F0"/>
<path d="M498.429 212.698H485.205V225.933H498.429V212.698Z" fill="#FAFAFA"/>
<path d="M524.065 212.698H510.829V225.933H524.065V212.698Z" fill="#FAFAFA"/>
<path d="M447.18 236.733H433.956V249.957H447.18V236.733Z" fill="#F0F0F0"/>
<path d="M472.804 236.733H459.58V249.957H472.804V236.733Z" fill="#FAFAFA"/>
<path d="M498.429 236.733H485.205V249.957H498.429V236.733Z" fill="#FAFAFA"/>
<path d="M472.804 167.875H459.58V181.099H472.804V167.875Z" fill="#FAFAFA"/>
<path d="M498.429 167.875H485.205V181.099H498.429V167.875Z" fill="#F0F0F0"/>
<path d="M524.065 236.733H510.829V249.957H524.065V236.733Z" fill="#F0F0F0"/>
<path d="M447.18 260.768H433.956V273.992H447.18V260.768Z" fill="#FAFAFA"/>
<path d="M472.804 260.768H459.58V273.992H472.804V260.768Z" fill="#F0F0F0"/>
<path d="M498.429 260.768H485.205V273.992H498.429V260.768Z" fill="#F0F0F0"/>
<path d="M524.065 260.768H510.829V273.992H524.065V260.768Z" fill="#FAFAFA"/>
<path d="M447.18 284.815H433.956V298.05H447.18V284.815Z" fill="#F0F0F0"/>
<path d="M472.804 284.815H459.58V298.05H472.804V284.815Z" fill="#FAFAFA"/>
<path d="M498.429 284.815H485.205V298.05H498.429V284.815Z" fill="#FAFAFA"/>
<path d="M524.065 284.815H510.829V298.05H524.065V284.815Z" fill="#F0F0F0"/>
<path d="M447.18 308.85H433.956V322.074H447.18V308.85Z" fill="#F0F0F0"/>
<path d="M472.804 308.85H459.58V322.074H472.804V308.85Z" fill="#FAFAFA"/>
<path d="M498.429 308.85H485.205V322.074H498.429V308.85Z" fill="#F0F0F0"/>
<path d="M524.065 308.85H510.829V322.074H524.065V308.85Z" fill="#FAFAFA"/>
<path d="M447.18 332.885H433.956V346.121H447.18V332.885Z" fill="#FAFAFA"/>
<path d="M472.804 332.885H459.58V346.121H472.804V332.885Z" fill="#FAFAFA"/>
<path d="M498.429 332.885H485.205V346.121H498.429V332.885Z" fill="#F0F0F0"/>
<path d="M524.065 332.885H510.829V346.121H524.065V332.885Z" fill="#F0F0F0"/>
<path opacity="0.1" d="M528.403 82.7892H445.753V363.173H528.403V82.7892Z" fill="white"/>
<g opacity="0.3">
<path opacity="0.3" d="M520.318 82.7892H493.963L465.137 363.173H491.48L520.318 82.7892Z" fill="white"/>
</g>
<path d="M529.262 79.2396H445.22V86.3504H529.262V79.2396Z" fill="#E0E0E0"/>
<path d="M529.262 360.725H445.22V367.836H529.262V360.725Z" fill="#EBEBEB"/>
<path d="M532.521 373.903H441.415V72.3028H532.521V373.903ZM448.363 366.943H525.584V79.2628H448.363V366.943Z" fill="#EBEBEB"/>
<path d="M438.41 82.7892H355.76V363.173H438.41V82.7892Z" fill="#FAFAFA"/>
<path d="M432.158 274.966H361.479V361.7H432.158V274.966Z" fill="#E6E6E6"/>
<path d="M426.01 284.583H409.561H405.037H400.513V293.631H405.037H409.561H426.01V284.583Z" fill="#E6E6E6"/>
<path d="M426.01 302.11H409.561H405.037H400.513V311.158H405.037H409.561H426.01V302.11Z" fill="#FAFAFA"/>
<path d="M426.01 319.638H409.561H405.037H400.513V328.686H405.037H409.561H426.01V319.638Z" fill="#E6E6E6"/>
<path d="M426.01 337.166H409.561H402.578H400.513V346.214H402.578H409.561H426.01V337.166Z" fill="#FAFAFA"/>
<path d="M393.124 284.583H376.687H372.163H367.639V293.631H372.163H376.687H393.124V284.583Z" fill="#FAFAFA"/>
<path d="M393.124 302.11H376.687H370.307H367.639V311.158H370.307H376.687H393.124V302.11Z" fill="#FAFAFA"/>
<path d="M393.124 319.638H376.687H372.163H367.639V328.686H372.163H376.687H393.124V319.638Z" fill="#E6E6E6"/>
<path d="M393.124 337.166H376.687H372.163H367.639V346.214H372.163H376.687H393.124V337.166Z" fill="#FAFAFA"/>
<path opacity="0.1" d="M438.144 82.7892H355.494V363.173H438.144V82.7892Z" fill="white"/>
<g opacity="0.3">
<path opacity="0.3" d="M430.163 82.7892H403.819L374.982 363.173H401.337L430.163 82.7892Z" fill="white"/>
</g>
<path d="M439.106 79.2396H355.064V86.3504H439.106V79.2396Z" fill="#E0E0E0"/>
<path d="M439.106 360.725H355.064V367.836H439.106V360.725Z" fill="#EBEBEB"/>
<path d="M442.378 373.903H351.271V72.3028H442.378V373.903ZM358.208 366.943H435.429V79.2628H358.208V366.943Z" fill="#EBEBEB"/>
<path d="M221.85 82.7892H139.2V363.173H221.85V82.7892Z" fill="#FAFAFA"/>
<path opacity="0.1" d="M221.688 82.7892H139.038V363.173H221.688V82.7892Z" fill="white"/>
<g opacity="0.3">
<path opacity="0.3" d="M213.614 82.7892H187.259L158.433 363.173H184.776L213.614 82.7892Z" fill="white"/>
</g>
<path d="M222.558 79.2396H138.516V86.3504H222.558V79.2396Z" fill="#E0E0E0"/>
<path d="M222.558 360.725H138.516V367.836H222.558V360.725Z" fill="#EBEBEB"/>
<path d="M225.817 373.903H134.711V72.3028H225.817V373.903ZM141.659 366.943H218.869V79.2628H141.659V366.943Z" fill="#EBEBEB"/>
<path d="M131.822 82.7892H49.1724V363.173H131.822V82.7892Z" fill="#FAFAFA"/>
<path d="M119.364 201.527H55.39V255.212H119.364V201.527Z" fill="#E6E6E6"/>
<path d="M67.6744 208.22H59.4848V216.41H67.6744V208.22Z" fill="#FAFAFA"/>
<path d="M83.5432 208.22H75.3536V216.41H83.5432V208.22Z" fill="#FAFAFA"/>
<path d="M99.412 208.22H91.2224V216.41H99.412V208.22Z" fill="#FAFAFA"/>
<path d="M115.269 208.22H107.08V216.41H115.269V208.22Z" fill="#FAFAFA"/>
<path d="M67.6744 223.103H59.4848V231.292H67.6744V223.103Z" fill="#FAFAFA"/>
<path d="M83.5432 223.103H75.3536V231.292H83.5432V223.103Z" fill="#FAFAFA"/>
<path d="M99.412 223.103H91.2224V231.292H99.412V223.103Z" fill="#FAFAFA"/>
<path d="M115.269 223.103H107.08V231.292H115.269V223.103Z" fill="#E6E6E6"/>
<path d="M67.6744 237.974H59.4848V246.164H67.6744V237.974Z" fill="#E6E6E6"/>
<path d="M83.5432 237.974H75.3536V246.164H83.5432V237.974Z" fill="#E6E6E6"/>
<path d="M99.412 237.974H91.2224V246.164H99.412V237.974Z" fill="#FAFAFA"/>
<path d="M115.269 237.974H107.08V246.164H115.269V237.974Z" fill="#E6E6E6"/>
<path d="M119.364 254.539H55.39V308.224H119.364V254.539Z" fill="#E6E6E6"/>
<path d="M67.6744 261.22H59.4848V269.41H67.6744V261.22Z" fill="#FAFAFA"/>
<path d="M83.5432 261.22H75.3536V269.41H83.5432V261.22Z" fill="#FAFAFA"/>
<path d="M99.412 261.22H91.2224V269.41H99.412V261.22Z" fill="#FAFAFA"/>
<path d="M115.269 261.22H107.08V269.41H115.269V261.22Z" fill="#FAFAFA"/>
<path d="M67.6744 276.103H59.4848V284.293H67.6744V276.103Z" fill="#FAFAFA"/>
<path d="M83.5432 276.103H75.3536V284.293H83.5432V276.103Z" fill="#FAFAFA"/>
<path d="M99.412 276.103H91.2224V284.293H99.412V276.103Z" fill="#FAFAFA"/>
<path d="M115.269 276.103H107.08V284.293H115.269V276.103Z" fill="#E6E6E6"/>
<path d="M67.6744 290.986H59.4848V299.176H67.6744V290.986Z" fill="#E6E6E6"/>
<path d="M83.5432 290.986H75.3536V299.176H83.5432V290.986Z" fill="#E6E6E6"/>
<path d="M99.412 290.986H91.2224V299.176H99.412V290.986Z" fill="#FAFAFA"/>
<path d="M115.269 290.986H107.08V299.176H115.269V290.986Z" fill="#E6E6E6"/>
<path d="M119.364 307.539H55.39V361.224H119.364V307.539Z" fill="#E6E6E6"/>
<path d="M67.6744 314.232H59.4848V322.422H67.6744V314.232Z" fill="#FAFAFA"/>
<path d="M83.5432 314.232H75.3536V322.422H83.5432V314.232Z" fill="#FAFAFA"/>
<path d="M99.412 314.232H91.2224V322.422H99.412V314.232Z" fill="#FAFAFA"/>
<path d="M115.269 314.232H107.08V322.422H115.269V314.232Z" fill="#FAFAFA"/>
<path d="M67.6744 329.115H59.4848V337.305H67.6744V329.115Z" fill="#FAFAFA"/>
<path d="M83.5432 329.115H75.3536V337.305H83.5432V329.115Z" fill="#FAFAFA"/>
<path d="M99.412 329.115H91.2224V337.305H99.412V329.115Z" fill="#FAFAFA"/>
<path d="M115.269 329.115H107.08V337.305H115.269V329.115Z" fill="#E6E6E6"/>
<path d="M67.6744 343.998H59.4848V352.188H67.6744V343.998Z" fill="#E6E6E6"/>
<path d="M83.5432 343.998H75.3536V352.188H83.5432V343.998Z" fill="#E6E6E6"/>
<path d="M99.412 343.998H91.2224V352.188H99.412V343.998Z" fill="#FAFAFA"/>
<path d="M115.269 343.998H107.08V352.188H115.269V343.998Z" fill="#E6E6E6"/>
<path opacity="0.1" d="M130.732 82.7892H48.082V363.173H130.732V82.7892Z" fill="white"/>
<g opacity="0.3">
<path opacity="0.3" d="M123.575 82.7892H97.2312L68.4052 363.173H94.7488L123.575 82.7892Z" fill="white"/>
</g>
<path d="M132.53 79.2396H48.488V86.3504H132.53V79.2396Z" fill="#E0E0E0"/>
<path d="M132.53 360.725H48.488V367.836H132.53V360.725Z" fill="#EBEBEB"/>
<path d="M135.79 373.903H44.6832V72.3028H135.79V373.903ZM51.6316 366.943H128.841V79.2628H51.6316V366.943Z" fill="#EBEBEB"/>
<path d="M282.483 411.348L281.555 411.464C281.497 410.988 275.86 363.799 287.494 325.241C299.094 286.961 291.09 262.485 290.974 262.253L291.868 261.951C291.949 262.195 299.988 286.903 288.388 325.508C276.811 363.88 282.425 410.884 282.483 411.348Z" fill="#E0E0E0"/>
<path d="M292.668 267.508C290.642 265.095 287.892 263.398 284.826 262.67L285.047 261.754C288.309 262.529 291.234 264.335 293.387 266.904L292.668 267.508Z" fill="#E0E0E0"/>
<path d="M296.647 271.412L293.97 272.924L294.433 273.742L297.109 272.23L296.647 271.412Z" fill="#E0E0E0"/>
<path d="M291.659 293.167C289.325 287.847 285.004 283.651 279.618 281.474L279.966 280.616C285.576 282.88 290.08 287.246 292.517 292.784L291.659 293.167Z" fill="#E0E0E0"/>
<path d="M289.153 322.642H288.214C288.183 320.745 287.732 318.877 286.894 317.175C286.055 315.472 284.85 313.976 283.365 312.794L283.945 312.063C285.54 313.333 286.834 314.94 287.734 316.769C288.635 318.598 289.119 320.604 289.153 322.642Z" fill="#E0E0E0"/>
<path d="M287.065 330.182L286.184 329.846C286.665 328.65 287.387 327.565 288.305 326.659C289.223 325.753 290.317 325.045 291.52 324.58L291.844 325.461C290.766 325.877 289.785 326.511 288.962 327.323C288.14 328.136 287.494 329.109 287.065 330.182Z" fill="#E0E0E0"/>
<path d="M280.987 378.009L280.268 377.418C281.428 376.037 282.274 370.806 282.738 367.998C282.843 367.326 282.936 366.757 283.017 366.34L283.933 366.514C283.864 366.92 283.771 367.488 283.655 368.149C282.97 372.36 282.193 376.559 280.987 378.009Z" fill="#E0E0E0"/>
<path d="M280.453 393.031C279.8 391.193 278.585 389.608 276.979 388.5C275.374 387.392 273.46 386.818 271.51 386.86V385.92C273.666 385.869 275.783 386.501 277.559 387.726C279.334 388.951 280.676 390.707 281.393 392.741L280.453 393.031Z" fill="#E0E0E0"/>
<path d="M287.612 402.843L281.011 410.229L281.711 410.856L288.313 403.469L287.612 402.843Z" fill="#E0E0E0"/>
<path d="M292.32 354.67C293.816 359.507 283.388 368.729 283.388 368.729C283.388 368.729 269.572 367.001 268.076 362.152C266.58 357.303 270.083 349.392 276.776 347.327C283.469 345.262 290.777 349.833 292.32 354.67Z" fill="#F0F0F0"/>
<path d="M303.85 295.928C302.528 301.066 292.645 304.72 292.645 304.72C292.645 304.72 285.754 296.751 287.077 291.612C288.399 286.474 293.863 280.801 298.491 281.996C303.12 283.191 305.173 290.789 303.85 295.928Z" fill="#EBEBEB"/>
<path d="M264.213 372.743C270.408 375.167 274.212 386.129 274.212 386.129C274.212 386.129 263.993 391.639 257.787 389.226C251.581 386.814 245.027 379.946 246.79 375.457C248.553 370.968 258.007 370.33 264.213 372.743Z" fill="#F5F5F5"/>
<path d="M277.808 312.388C279.06 313.443 280.495 314.257 282.042 314.789C282.822 315.038 283.655 315.071 284.452 314.883C285.249 314.695 285.98 314.294 286.566 313.722C287.9 312.191 287.541 309.824 286.706 307.98C285.047 304.326 278.934 298.132 274.236 299.86C267.461 302.47 274.781 310.149 277.808 312.388Z" fill="#E6E6E6"/>
<path d="M291.682 321.703C290.789 322.805 289.849 324.185 290.336 325.519C290.612 326.085 291.069 326.543 291.634 326.82C292.199 327.098 292.84 327.179 293.457 327.05C294.683 326.764 295.829 326.205 296.809 325.415C299.199 323.744 304.106 320.264 300.974 317.005C297.842 313.745 293.55 319.371 291.682 321.703Z" fill="#EBEBEB"/>
<path d="M271.66 275.303C271.144 275.331 270.65 275.521 270.249 275.846C269.847 276.171 269.557 276.614 269.422 277.112C269.224 278.272 270.21 279.34 271.162 280.07C273.54 281.903 280.674 286.845 282.274 282.077C283.782 277.576 274.816 274.92 271.66 275.303Z" fill="#E0E0E0"/>
<path d="M284.826 259.62C283.353 259.759 281.88 259.225 280.407 259.318C278.934 259.411 277.286 260.594 277.623 262.044C277.959 263.494 279.583 263.819 280.94 263.912C283.272 264.051 285.611 263.887 287.9 263.424C288.441 263.376 288.943 263.123 289.304 262.717C289.907 261.835 288.956 260.652 287.935 260.397C286.884 260.262 285.85 260.017 284.85 259.666L284.826 259.62Z" fill="#E6E6E6"/>
<path d="M299.28 269.758C300.765 269.758 302.192 269.166 303.676 269.166C305.161 269.166 306.866 270.234 306.634 271.695C306.402 273.157 304.79 273.609 303.433 273.783C301.123 274.09 298.783 274.09 296.473 273.783C295.925 273.771 295.403 273.551 295.011 273.168C294.362 272.322 295.232 271.092 296.171 270.709C297.215 270.507 298.234 270.192 299.21 269.77L299.28 269.758Z" fill="#F0F0F0"/>
<path d="M297.76 378.752C298.096 378.402 298.543 378.181 299.025 378.125C299.341 378.161 299.636 378.302 299.863 378.525C300.09 378.747 300.236 379.04 300.278 379.355C300.345 379.987 300.266 380.626 300.046 381.222C299.036 384.575 287.784 408.877 285.186 404.515C283.655 401.928 287.425 393.391 288.538 390.966C290.68 386.268 293.828 382.098 297.76 378.752Z" fill="#F0F0F0"/>
<path d="M291.032 260.536C291.759 258.478 293.001 256.641 294.64 255.2C296.415 253.912 299.28 253.82 300.556 255.594C302.006 257.578 300.556 260.594 298.34 261.65C296.125 262.705 293.538 262.38 291.102 262.044C291.102 261.684 291.102 261.325 291.044 260.965L291.032 260.536Z" fill="#E6E6E6"/>
<path d="M298.897 443.758C286.843 445.811 274.528 445.811 262.473 443.758L248.31 401.998H313.072L298.897 443.758Z" fill="#F0F0F0"/>
<path d="M290.684 131.057C303.965 131.057 314.731 120.291 314.731 107.01C314.731 93.7293 303.965 82.9632 290.684 82.9632C277.404 82.9632 266.638 93.7293 266.638 107.01C266.638 120.291 277.404 131.057 290.684 131.057Z" fill="#E0E0E0"/>
<path d="M312.815 109.866C314.943 96.7572 306.041 84.4052 292.932 82.2773C279.823 80.1494 267.471 89.0514 265.343 102.16C263.215 115.27 272.117 127.622 285.226 129.75C298.335 131.877 310.687 122.975 312.815 109.866Z" fill="#EBEBEB"/>
<path opacity="0.8" d="M308.363 106.163C308.363 109.981 307.231 113.713 305.11 116.887C302.989 120.061 299.974 122.535 296.447 123.996C292.92 125.457 289.039 125.839 285.295 125.095C281.55 124.35 278.111 122.512 275.412 119.812C272.712 117.113 270.874 113.673 270.129 109.929C269.384 106.185 269.766 102.304 271.227 98.7765C272.688 95.2494 275.162 92.2348 278.337 90.1138C281.511 87.9929 285.243 86.8608 289.06 86.8608C294.18 86.8608 299.089 88.8944 302.709 92.5143C306.329 96.1342 308.363 101.044 308.363 106.163Z" fill="white"/>
<path d="M288.016 107.984C287.651 107.616 287.447 107.118 287.448 106.6C287.449 106.081 287.656 105.584 288.022 105.218C288.389 104.851 288.886 104.645 289.404 104.644C289.923 104.643 290.421 104.847 290.789 105.212C290.972 105.394 291.118 105.61 291.217 105.848C291.317 106.086 291.368 106.342 291.369 106.6C291.369 106.858 291.319 107.114 291.22 107.352C291.122 107.591 290.977 107.808 290.795 107.99C290.612 108.173 290.395 108.317 290.157 108.416C289.918 108.514 289.662 108.565 289.404 108.564C289.146 108.564 288.891 108.512 288.652 108.413C288.414 108.313 288.198 108.168 288.016 107.984Z" fill="#E0E0E0"/>
<path d="M289.06 105.931L300.452 105.583L300.486 106.766L290.162 107.08L289.049 125.036L287.877 124.967L289.06 105.931Z" fill="#E0E0E0"/>
<path d="M290 495.332C414.216 495.332 514.912 489.453 514.912 482.2C514.912 474.948 414.216 469.069 290 469.069C165.784 469.069 65.0876 474.948 65.0876 482.2C65.0876 489.453 165.784 495.332 290 495.332Z" fill="#F5F5F5"/>
<path d="M499.206 420.976L505.099 327.178C505.617 318.929 504.439 310.661 501.639 302.884C498.839 295.108 494.474 287.987 488.816 281.963C483.157 275.938 476.324 271.136 468.738 267.854C461.153 264.572 452.975 262.879 444.709 262.879C429.254 262.881 414.385 268.798 403.154 279.414C391.922 290.031 385.179 304.544 384.308 319.974L378.16 429.525H490.1C492.42 429.524 494.653 428.639 496.344 427.051C498.035 425.463 499.059 423.291 499.206 420.976Z" fill="url(#paint0_linear_1918_2305)"/>
<path opacity="0.1" d="M499.415 417.6L505.099 327.201C505.617 318.952 504.439 310.684 501.639 302.908C498.839 295.131 494.474 288.011 488.816 281.986C483.157 275.961 476.324 271.159 468.738 267.877C461.153 264.595 452.975 262.902 444.709 262.902C429.254 262.905 414.385 268.821 403.154 279.438C391.922 290.055 385.179 304.567 384.308 319.998L378.16 429.525H486.724C489.957 429.514 493.064 428.277 495.42 426.064C497.775 423.85 499.203 420.825 499.415 417.6Z" fill="black"/>
<path d="M481.04 429.525L487.467 327.178C487.983 318.929 486.805 310.662 484.003 302.886C481.202 295.11 476.838 287.991 471.18 281.966C465.522 275.942 458.689 271.14 451.104 267.857C443.519 264.575 435.342 262.88 427.077 262.879C411.621 262.878 396.751 268.794 385.519 279.411C374.287 290.029 367.544 304.543 366.676 319.974L360.493 429.525H481.04Z" fill="url(#paint1_linear_1918_2305)"/>
<path d="M482.966 447.145H484.509C484.925 447.123 485.319 446.953 485.621 446.666C485.923 446.379 486.112 445.993 486.156 445.579L488.476 429.536H479.08L481.4 445.579C481.443 445.98 481.622 446.354 481.906 446.639C482.191 446.924 482.565 447.102 482.966 447.145Z" fill="url(#paint2_linear_1918_2305)"/>
<path opacity="0.7" d="M482.966 447.145H484.509C484.925 447.123 485.319 446.953 485.621 446.666C485.923 446.379 486.112 445.993 486.156 445.579L488.476 429.536H479.08L481.4 445.579C481.443 445.98 481.622 446.354 481.906 446.639C482.191 446.924 482.565 447.102 482.966 447.145Z" fill="white"/>
<path d="M331.412 447.145H332.804C333.199 447.104 333.566 446.925 333.84 446.638C334.115 446.351 334.278 445.975 334.3 445.579L336.4 429.536H327.862L329.939 445.579C329.961 445.972 330.12 446.344 330.39 446.631C330.659 446.917 331.021 447.099 331.412 447.145Z" fill="url(#paint3_linear_1918_2305)"/>
<path opacity="0.5" d="M331.412 447.145H332.804C333.199 447.104 333.566 446.925 333.84 446.638C334.115 446.351 334.278 445.975 334.3 445.579L336.4 429.536H327.862L329.939 445.579C329.961 445.972 330.12 446.344 330.39 446.631C330.659 446.917 331.021 447.099 331.412 447.145Z" fill="white"/>
<path d="M375.04 447.145H376.443C376.838 447.104 377.205 446.925 377.48 446.638C377.754 446.351 377.917 445.975 377.94 445.579L380.004 429.536H371.478L373.52 445.579C373.543 445.979 373.71 446.357 373.989 446.645C374.268 446.932 374.641 447.11 375.04 447.145Z" fill="url(#paint4_linear_1918_2305)"/>
<path opacity="0.7" d="M375.04 447.145H376.443C376.838 447.104 377.205 446.925 377.48 446.638C377.754 446.351 377.917 445.975 377.94 445.579L380.004 429.536H371.478L373.52 445.579C373.543 445.979 373.71 446.357 373.989 446.645C374.268 446.932 374.641 447.11 375.04 447.145Z" fill="white"/>
<path d="M435.986 447.145H437.529C437.945 447.121 438.34 446.95 438.643 446.664C438.946 446.378 439.139 445.994 439.188 445.579L441.508 429.536H432.1L434.42 445.579C434.461 445.981 434.639 446.356 434.924 446.641C435.209 446.926 435.585 447.104 435.986 447.145Z" fill="url(#paint5_linear_1918_2305)"/>
<path opacity="0.5" d="M435.986 447.145H437.529C437.945 447.121 438.34 446.95 438.643 446.664C438.946 446.378 439.139 445.994 439.188 445.579L441.508 429.536H432.1L434.42 445.579C434.461 445.981 434.639 446.356 434.924 446.641C435.209 446.926 435.585 447.104 435.986 447.145Z" fill="white"/>
<path d="M384.911 390.92H343.662L340.936 351.155L340.344 342.618L340.077 338.685C340.003 337.653 339.867 336.627 339.671 335.611C339.671 335.391 339.578 335.147 339.532 334.927C339.507 334.76 339.465 334.597 339.404 334.44C338.293 330.387 336.128 326.7 333.129 323.756C329.669 320.338 325.094 318.279 320.241 317.956H359.043C359.461 317.956 359.89 317.956 360.319 317.956C365.58 317.979 370.622 320.061 374.367 323.756C377.369 326.7 379.538 330.386 380.654 334.44C380.714 334.597 380.757 334.76 380.782 334.927C381.054 336.165 381.236 337.421 381.327 338.685L381.594 342.618L384.911 390.92Z" fill="url(#paint6_linear_1918_2305)"/>
<path opacity="0.1" d="M384.911 390.92H343.662L340.936 351.155L340.344 342.618L340.077 338.685C340.003 337.653 339.867 336.627 339.671 335.611C339.671 335.391 339.578 335.147 339.532 334.927C339.507 334.76 339.465 334.597 339.404 334.44C338.293 330.387 336.128 326.7 333.129 323.756C329.669 320.338 325.094 318.279 320.241 317.956H359.043C359.461 317.956 359.89 317.956 360.319 317.956C365.58 317.979 370.622 320.061 374.367 323.756C377.369 326.7 379.538 330.386 380.654 334.44C380.714 334.597 380.757 334.76 380.782 334.927C381.054 336.165 381.236 337.421 381.327 338.685L381.594 342.618L384.911 390.92Z" fill="black"/>
<g opacity="0.1">
<path opacity="0.1" d="M417.6 369.692H434.165C438.202 369.692 441.461 372.244 441.461 375.388V385.178C441.461 388.333 438.202 390.874 434.165 390.874H417.6V369.692Z" fill="black"/>
</g>
<path d="M349.96 390.874H422.924C426.397 390.874 429.212 388.059 429.212 384.586V375.968C429.212 372.495 426.397 369.68 422.924 369.68H349.96C346.488 369.68 343.673 372.495 343.673 375.968V384.586C343.673 388.059 346.488 390.874 349.96 390.874Z" fill="url(#paint7_linear_1918_2305)"/>
<path d="M522 341.353C522.01 346.899 520.058 352.27 516.489 356.516C512.921 360.762 507.966 363.609 502.5 364.553L498.266 421.08C497.895 425.882 494.404 429.56 490.228 429.56H444.732C448.908 429.56 452.388 425.882 452.76 421.08L455.08 390.92L457.04 364.518C460.616 363.904 463.999 362.468 466.924 360.322C469.849 358.176 472.236 355.379 473.895 352.153C474.123 351.743 474.328 351.321 474.51 350.888C475.85 347.889 476.538 344.639 476.528 341.353C476.526 339.744 476.363 338.139 476.041 336.562C475.913 335.936 475.751 335.31 475.577 334.695C474.751 331.932 473.43 329.342 471.679 327.05C469.484 324.191 466.661 321.874 463.43 320.277C460.198 318.681 456.643 317.847 453.038 317.84H498.533C502.179 317.827 505.777 318.677 509.031 320.322C512.212 321.906 514.99 324.195 517.151 327.016C520.308 331.127 522.013 336.169 522 341.353Z" fill="url(#paint8_linear_1918_2305)"/>
<path opacity="0.1" d="M522 341.353C522.01 346.899 520.058 352.27 516.489 356.516C512.921 360.762 507.966 363.609 502.5 364.553L498.266 421.08C497.895 425.882 494.404 429.56 490.228 429.56H444.732C448.908 429.56 452.388 425.882 452.76 421.08L455.08 390.92L457.04 364.518C460.616 363.904 463.999 362.468 466.924 360.322C469.849 358.176 472.236 355.379 473.895 352.153C474.123 351.743 474.328 351.321 474.51 350.888C475.85 347.889 476.538 344.639 476.528 341.353C476.526 339.744 476.363 338.139 476.041 336.562C475.913 335.936 475.751 335.31 475.577 334.695C474.751 331.932 473.43 329.342 471.679 327.05C469.484 324.191 466.661 321.874 463.43 320.277C460.198 318.681 456.643 317.847 453.038 317.84H498.533C502.179 317.827 505.777 318.677 509.031 320.322C512.212 321.906 514.99 324.195 517.151 327.016C520.308 331.127 522.013 336.169 522 341.353Z" fill="black"/>
<path d="M476.54 341.365C476.54 352.965 468.895 362.628 458.861 364.565L454.987 421.08C454.65 425.882 451.507 429.571 447.702 429.571H326.204C322.422 429.571 319.244 425.882 318.919 421.08L315.033 364.46C305.196 362.396 297.76 352.86 297.76 341.4C297.737 336.588 299.103 331.871 301.693 327.816C303.652 324.724 306.351 322.168 309.546 320.38C312.454 318.745 315.734 317.886 319.07 317.886C324.332 317.918 329.375 319.998 333.129 323.686C336.127 326.627 338.293 330.309 339.404 334.358C339.465 334.524 339.507 334.695 339.532 334.869C339.806 336.103 339.989 337.355 340.077 338.616L340.356 342.548L343.662 390.92H430.244L433.828 338.72C434.339 331.342 437.935 325.194 442.923 322.283C446.075 319.76 449.926 318.266 453.954 318.002C454.378 317.96 454.804 317.94 455.23 317.944C458.469 317.926 461.661 318.724 464.51 320.264C464.599 320.304 464.684 320.35 464.766 320.404C467.707 322.037 470.232 324.328 472.143 327.097C475.023 331.297 476.556 336.273 476.54 341.365Z" fill="url(#paint9_linear_1918_2305)"/>
<path opacity="0.1" d="M428.237 429.536H326.157C322.376 429.536 319.197 425.848 318.872 421.045L314.986 364.426C305.15 362.361 297.714 352.826 297.714 341.365C297.691 336.553 299.056 331.836 301.646 327.781C303.606 324.689 306.305 322.133 309.5 320.346C312.407 318.71 315.687 317.852 319.023 317.852C324.286 317.883 329.329 319.963 333.082 323.652C336.081 326.592 338.246 330.274 339.358 334.324C339.418 334.489 339.461 334.66 339.486 334.834C339.76 336.068 339.942 337.32 340.031 338.581L340.309 342.513L343.662 390.92H430.244L428.237 429.536Z" fill="white"/>
<path d="M415.002 268.795C412.983 269.955 411.139 270.918 409.202 271.904C407.264 272.89 405.362 273.795 403.402 274.7C399.504 276.474 395.56 278.18 391.5 279.653C387.408 281.175 383.242 282.491 379.018 283.597C374.625 284.778 370.139 285.581 365.609 285.998L364.646 286.091H364.194C360.099 285.615 356.468 284.931 352.826 284.119C349.183 283.307 345.576 282.506 342.003 281.59C338.43 280.674 334.88 279.734 331.331 278.713C327.781 277.692 324.266 276.637 320.752 275.442L322.364 267.392C329.66 267.856 336.945 268.552 344.16 269.306L354.937 270.384C358.486 270.732 362.117 271.034 365.296 271.15H363.892C367.532 270.501 371.122 269.594 374.634 268.436C378.264 267.276 381.895 265.953 385.526 264.399C389.157 262.844 392.753 261.244 396.326 259.538C398.158 258.703 399.933 257.822 401.673 256.952C403.413 256.082 405.269 255.154 406.858 254.33L415.002 268.795Z" fill="#263238"/>
<path opacity="0.1" d="M415.002 268.795C412.983 269.955 411.139 270.918 409.202 271.904C407.264 272.89 405.362 273.795 403.402 274.7C399.504 276.474 395.56 278.18 391.5 279.653C387.408 281.175 383.242 282.491 379.018 283.597C374.625 284.778 370.139 285.581 365.609 285.998L364.646 286.091H364.194C360.099 285.615 356.468 284.931 352.826 284.119C349.183 283.307 345.576 282.506 342.003 281.59C338.43 280.674 334.88 279.734 331.331 278.713C327.781 277.692 324.266 276.637 320.752 275.442L322.364 267.392C329.66 267.856 336.945 268.552 344.16 269.306L354.937 270.384C358.486 270.732 362.117 271.034 365.296 271.15H363.892C367.532 270.501 371.122 269.594 374.634 268.436C378.264 267.276 381.895 265.953 385.526 264.399C389.157 262.844 392.753 261.244 396.326 259.538C398.158 258.703 399.933 257.822 401.673 256.952C403.413 256.082 405.269 255.154 406.858 254.33L415.002 268.795Z" fill="black"/>
<path d="M320.891 262.972C319.176 261.769 317.281 260.845 315.276 260.234L312.272 271.962L321.274 275.744L322.294 274.491C322.987 273.654 323.501 272.685 323.806 271.643C324.112 270.601 324.201 269.507 324.07 268.43C323.939 267.352 323.589 266.312 323.042 265.373C322.496 264.435 321.764 263.618 320.891 262.972Z" fill="url(#paint10_linear_1918_2305)"/>
<path d="M312.272 271.962L315.276 260.234L306.878 255.652L304.349 263.912L312.272 271.962Z" fill="url(#paint11_linear_1918_2305)"/>
<path opacity="0.2" d="M386.756 280.72H387.08H387.22C391.651 280.244 404.678 278.052 414.097 268.76C412.693 266.046 410.768 263.946 408.413 263.471C401.917 262.241 393.959 266.893 386.756 280.72Z" fill="black"/>
<path d="M394.4 341.353C405.513 311.344 398.205 283.748 399.597 268.47C399.939 264.704 401.498 261.153 404.039 258.352C406.58 255.552 409.964 253.655 413.679 252.95C421.266 251.488 430.65 249.841 439.594 248.634C442.093 248.289 444.637 248.489 447.052 249.22C449.467 249.951 451.695 251.195 453.583 252.868C455.472 254.54 456.976 256.602 457.994 258.91C459.011 261.219 459.516 263.721 459.476 266.243C458.699 311.483 444.199 341.353 444.199 341.353L420.767 341.249L394.4 341.353Z" fill="url(#paint12_linear_1918_2305)"/>
<path opacity="0.8" d="M394.4 341.353C405.513 311.344 398.205 283.748 399.597 268.47C399.939 264.704 401.498 261.153 404.039 258.352C406.58 255.552 409.964 253.655 413.679 252.95C421.266 251.488 430.65 249.841 439.594 248.634C442.093 248.289 444.637 248.489 447.052 249.22C449.467 249.951 451.695 251.195 453.583 252.868C455.472 254.54 456.976 256.602 457.994 258.91C459.011 261.219 459.516 263.721 459.476 266.243C458.699 311.483 444.199 341.353 444.199 341.353L420.767 341.249L394.4 341.353Z" fill="white"/>
<path d="M305.498 443.746L302.528 463.269H311.959L318.153 443.746H305.498Z" fill="url(#paint13_linear_1918_2305)"/>
<path d="M301.322 458.919L313.931 458.618C314.029 458.606 314.129 458.616 314.224 458.645C314.318 458.675 314.406 458.724 314.48 458.79C314.555 458.856 314.614 458.936 314.656 459.026C314.697 459.117 314.719 459.214 314.72 459.314V468.594C314.663 469.108 314.421 469.583 314.039 469.931C313.656 470.28 313.16 470.476 312.643 470.484C308.258 470.484 306.17 470.322 300.626 470.484C294.722 470.466 288.826 470.078 282.97 469.324C278.481 468.559 279.699 464.348 281.729 464.278C290.893 463.942 296.02 462.028 299.315 459.638C299.889 459.189 300.593 458.937 301.322 458.919Z" fill="#263238"/>
<path opacity="0.2" d="M304.303 451.576L305.498 443.746H318.153L315.114 453.514L304.303 451.576Z" fill="black"/>
<path d="M388.6 334.324C388.6 334.324 311.866 335.089 310.671 359.391C308.978 394.33 303.073 447.551 303.073 447.551L317.538 451.53C317.538 451.53 338.186 398.715 338.987 371.42C360.574 367.128 416.057 371.42 422.576 357.245C425.763 350.031 426.622 342.003 425.036 334.277L388.6 334.324Z" fill="url(#paint14_linear_1918_2305)"/>
<path opacity="0.6" d="M388.6 334.324C388.6 334.324 311.866 335.089 310.671 359.391C308.978 394.33 303.073 447.551 303.073 447.551L317.538 451.53C317.538 451.53 338.186 398.715 338.987 371.42C360.574 367.128 416.057 371.42 422.576 357.245C425.763 350.031 426.622 342.003 425.036 334.277L388.6 334.324Z" fill="black"/>
<path d="M373.01 451.298L378.125 464.545H388.472L384.911 450.614L373.01 451.298Z" fill="url(#paint15_linear_1918_2305)"/>
<path opacity="0.2" d="M385.874 454.372L383.867 444.176L370.794 445.8L374.146 454.662L385.874 454.372Z" fill="black"/>
<path d="M375.318 460.16H388.53C388.744 460.144 388.955 460.213 389.118 460.352C389.281 460.492 389.383 460.689 389.4 460.903L390.038 470.798C390.026 471.333 389.804 471.842 389.42 472.215C389.036 472.589 388.521 472.796 387.985 472.793C383.345 472.712 381.188 472.456 375.376 472.456C371.815 472.456 364.6 472.804 359.67 472.804C354.74 472.804 354.879 468.164 356.955 467.805C366.351 465.926 369.982 463.339 373.288 460.845C373.876 460.409 374.586 460.169 375.318 460.16Z" fill="#263238"/>
<path d="M409.236 334.324C409.236 334.324 339.636 339.045 341.353 363.324C343.221 389.911 371.096 451.565 371.096 451.565H385.12C385.12 451.565 375.84 395.63 371.571 368.532C391.198 368.532 436.682 371.49 443.224 357.28C446.397 350.062 447.249 342.035 445.66 334.312L409.236 334.324Z" fill="url(#paint16_linear_1918_2305)"/>
<path opacity="0.5" d="M409.236 334.324C409.236 334.324 339.636 339.045 341.353 363.324C343.221 389.911 371.096 451.565 371.096 451.565H385.12C385.12 451.565 375.84 395.63 371.571 368.532C391.198 368.532 436.682 371.49 443.224 357.28C446.397 350.062 447.249 342.035 445.66 334.312L409.236 334.324Z" fill="black"/>
<path d="M419.781 235.967C421.382 242.162 421.88 249.887 413.227 253.077C410.826 256.905 409.654 260.942 418.899 259.504C426.259 258.552 432.956 254.765 437.564 248.948C432.03 244.099 433.04 229.228 434.443 220.841L419.781 235.967Z" fill="url(#paint17_linear_1918_2305)"/>
<path d="M418.76 247.242C410.814 248.6 404.283 254.748 400.78 261.998C397.277 269.248 396.43 277.507 396.5 285.569C396.569 293.631 397.486 301.658 397.265 309.708C397.022 318.988 394.783 325.566 391.581 334.312C391.581 336.388 394.725 337.56 397.381 338.105C402.926 326.006 406.568 314.43 406.186 301.136C405.896 291.485 405.768 280.488 407.346 270.976C408.923 261.464 420.303 249.04 419.758 247.324L418.76 247.242Z" fill="#263238"/>
<path opacity="0.3" d="M426.532 240.514C425.699 241.133 424.75 241.577 423.741 241.82C422.733 242.063 421.686 242.1 420.662 241.93C420.681 240.423 420.573 238.917 420.338 237.429L429.942 229.541C430.152 230.566 430.288 231.605 430.348 232.65C430.452 234.179 430.155 235.71 429.485 237.089C428.816 238.469 427.798 239.649 426.532 240.514Z" fill="black"/>
<path d="M412.171 199.334C402.021 205.076 401.917 221.305 405.049 230.654C405.839 233.108 407.288 235.297 409.238 236.982C411.188 238.667 413.564 239.784 416.106 240.21C418.648 240.636 421.258 240.356 423.651 239.399C426.044 238.442 428.128 236.845 429.676 234.784C434.64 228.508 433.921 222.175 433.678 211.271C433.434 200.367 422.333 193.604 412.171 199.334Z" fill="url(#paint18_linear_1918_2305)"/>
<path opacity="0.2" d="M415.442 228.52C412.171 229.924 408.587 231.745 405.281 231.35C406.17 233.701 407.674 235.771 409.636 237.342C411.597 238.914 413.945 239.93 416.433 240.286C418.921 240.641 421.459 240.323 423.782 239.363C426.106 238.404 428.129 236.838 429.641 234.83C433.736 229.68 435 226.2 433.84 216.827C427.483 224.274 422.437 225.504 415.442 228.52Z" fill="black"/>
<path d="M425.256 203C424.202 204.712 423.733 206.721 423.919 208.723C424.106 210.725 424.937 212.612 426.288 214.101C427.205 215.064 428.33 215.806 429.212 216.792C430.587 218.339 431.303 220.363 431.207 222.43C431.413 221.1 432.076 219.883 433.081 218.988C434.086 218.092 435.372 217.575 436.717 217.523C435.34 221.784 433.964 226.038 432.587 230.283C435.312 229.012 437.667 227.067 439.429 224.631C441.191 222.194 442.302 219.349 442.656 216.363C443.538 208.127 433.376 190.484 425.256 203Z" fill="#263238"/>
<path d="M401.569 203.568C400.792 204.431 400.239 205.47 399.956 206.596C399.821 207.154 399.859 207.739 400.066 208.275C400.274 208.81 400.64 209.268 401.116 209.589C401.995 209.943 402.967 209.992 403.877 209.728L413.157 208.116C418.47 207.188 423.783 206.271 429.026 205.007C431.346 204.45 434.026 203.557 434.954 201.33C437.958 194.08 425.128 193.14 420.836 193.337C413.528 193.72 406.139 197.919 401.569 203.568Z" fill="#263238"/>
<path d="M435.325 215.667C432.286 216.352 430.986 220.725 431.068 223.532C431.068 226.722 433.388 228.798 436.079 226.873C438.077 225.387 439.437 223.198 439.884 220.748C440.429 217.744 438.376 214.983 435.325 215.667Z" fill="url(#paint19_linear_1918_2305)"/>
<path d="M413.853 226.745C413.393 227.052 412.87 227.254 412.323 227.336C411.775 227.418 411.217 227.379 410.686 227.221C411.846 224.599 411.707 225.191 412.067 220.736L413.853 226.745Z" fill="#9E7655"/>
<path d="M419.201 212.28C418.331 211.306 415.953 210.934 414.665 211.12C414.535 211.137 414.403 211.103 414.297 211.025C414.191 210.947 414.12 210.832 414.097 210.702C414.079 210.563 414.115 210.423 414.197 210.309C414.279 210.195 414.4 210.116 414.538 210.088C416.162 209.844 418.864 210.331 419.966 211.549C420.062 211.647 420.116 211.778 420.116 211.915C420.116 212.051 420.062 212.182 419.966 212.28C419.902 212.347 419.822 212.399 419.734 212.431C419.64 212.46 419.54 212.461 419.445 212.434C419.351 212.407 419.266 212.354 419.201 212.28Z" fill="#263238"/>
<path d="M404.19 214.449C404.081 214.374 404.006 214.259 403.98 214.129C403.954 213.999 403.98 213.865 404.051 213.753C404.457 213.021 405.028 212.394 405.719 211.921C406.41 211.448 407.201 211.142 408.03 211.027C408.093 211.026 408.157 211.037 408.216 211.06C408.275 211.083 408.328 211.118 408.374 211.162C408.419 211.207 408.455 211.26 408.48 211.318C408.505 211.377 408.517 211.439 408.517 211.503C408.524 211.644 408.475 211.782 408.382 211.888C408.289 211.994 408.159 212.059 408.018 212.071C407.364 212.176 406.743 212.427 406.2 212.807C405.658 213.187 405.208 213.685 404.886 214.264C404.844 214.339 404.784 214.403 404.711 214.45C404.638 214.496 404.555 214.524 404.469 214.53C404.369 214.539 404.27 214.51 404.19 214.449Z" fill="#263238"/>
<path d="M412.96 231.466C414.076 232.886 415.102 234.374 416.034 235.921L416.753 235.619C420.024 234.204 420.952 232.232 420.999 230.48C420.959 229.087 420.529 227.732 419.758 226.571C418.598 228.578 415.663 230.179 414.062 230.956C413.378 231.292 412.96 231.466 412.96 231.466Z" fill="#2E353A"/>
<path d="M414.039 230.956L414.514 231.606C414.645 231.78 414.83 231.906 415.04 231.962C415.251 232.019 415.474 232.004 415.674 231.919C418.087 230.759 419.688 229.599 420.314 228.288C420.372 228.164 420.401 228.03 420.401 227.894C420.401 227.757 420.372 227.623 420.314 227.499C420.159 227.177 419.981 226.867 419.781 226.571C418.563 228.578 415.64 230.179 414.039 230.956Z" fill="white"/>
<path d="M416.73 235.619C420.001 234.204 420.929 232.232 420.976 230.48C419.733 231.054 418.629 231.889 417.739 232.928C417.126 233.696 416.773 234.638 416.73 235.619Z" fill="#DE5753"/>
<path d="M407.914 218.08C407.346 218.184 407.032 218.996 407.195 219.866C407.357 220.736 407.972 221.363 408.54 221.247C409.109 221.131 409.422 220.342 409.26 219.472C409.097 218.602 408.482 218.08 407.914 218.08Z" fill="#263238"/>
<path d="M417.867 216.479C417.298 216.584 416.985 217.384 417.148 218.266C417.31 219.147 417.925 219.762 418.493 219.646C419.062 219.53 419.375 218.73 419.212 217.86C419.05 216.99 418.435 216.375 417.867 216.479Z" fill="#263238"/>
<path d="M408.227 340.019C408.227 340.019 421.44 345.135 424.467 346.132C427.948 347.495 431.61 348.335 435.336 348.626C437.226 348.753 439.12 348.477 440.894 347.815C442.669 347.153 444.281 346.12 445.626 344.787C448.781 341.423 449.767 336.319 450.59 331.528C453.003 317.461 455.424 303.394 457.852 289.327C459.012 282.367 462.063 271.927 461.808 267.995C461.332 260.687 456.68 252.056 444.837 247.312C440.197 245.468 435.684 246.152 431.81 250.792C429.49 253.553 422.739 260.211 421.08 271.939C419.758 281.335 417.693 293.503 417.82 303.05C417.971 315.601 412.96 331.424 408.227 340.019Z" fill="#263238"/>
<path d="M461.158 264.132C462.504 276.358 455.741 307.18 454.442 309.036C448.897 326.911 433.666 317.272 431.462 316.448C427.622 315.033 423.713 312.26 420.059 310.416C412.972 306.936 406.255 304.059 399.666 299.686L403.378 292.355C410.605 294.814 431.056 300.104 434.432 300.927C435.893 301.31 441.589 304.291 441.531 300.359C442.331 299.048 443.445 273.516 445.892 264.492C446.172 263.479 446.657 262.535 447.319 261.719L447.54 261.441C448.433 260.321 449.617 259.468 450.962 258.976C452.307 258.483 453.762 258.369 455.167 258.647C456.572 258.925 457.874 259.583 458.931 260.55C459.987 261.518 460.758 262.757 461.158 264.132Z" fill="#263238"/>
<path opacity="0.1" d="M461.158 264.132C462.504 276.358 455.741 307.18 454.442 309.036C448.897 326.911 433.666 317.272 431.462 316.448C427.622 315.033 423.713 312.26 420.059 310.416C412.972 306.936 406.255 304.059 399.666 299.686L403.378 292.355C410.605 294.814 431.056 300.104 434.432 300.927C435.893 301.31 441.589 304.291 441.531 300.359C442.331 299.048 443.445 273.516 445.892 264.492C446.172 263.479 446.657 262.535 447.319 261.719L447.54 261.441C448.433 260.321 449.617 259.468 450.962 258.976C452.307 258.483 453.762 258.369 455.167 258.647C456.572 258.925 457.874 259.583 458.931 260.55C459.987 261.518 460.758 262.757 461.158 264.132Z" fill="white"/>
<path d="M400.478 310.3H366.142L362.222 265.501H396.558L400.478 310.3Z" fill="#263238"/>
<path opacity="0.5" d="M400.478 310.3H366.142L362.222 265.501H396.558L400.478 310.3Z" fill="white"/>
<path d="M399.26 310.08H364.924L361.004 265.28H395.34L399.26 310.08Z" fill="url(#paint20_linear_1918_2305)"/>
<path opacity="0.8" d="M399.26 310.08H364.924L361.004 265.28H395.34L399.26 310.08Z" fill="white"/>
<path d="M385.642 268.076H371.2L370.713 262.473H385.143L385.642 268.076Z" fill="url(#paint21_linear_1918_2305)"/>
<path d="M370.713 262.473L372.128 261.986H387.08L387.289 264.364L386.176 265.652L386.106 267.6L385.642 268.076L385.143 262.473H370.713Z" fill="url(#paint22_linear_1918_2305)"/>
<path opacity="0.5" d="M370.713 262.473L372.128 261.986H387.08L387.289 264.364L386.176 265.652L386.106 267.6L385.642 268.076L385.143 262.473H370.713Z" fill="black"/>
<path d="M406.116 294.779L406.893 298.967C405.037 303.804 394.4 302.528 394.4 302.528V290.151L403.784 292.332C404.366 292.474 404.896 292.78 405.309 293.214C405.722 293.648 406.002 294.191 406.116 294.779Z" fill="url(#paint23_linear_1918_2305)"/>
<path d="M394.377 290.151L394.423 302.551L385.004 302.783L382.846 291.879L394.377 290.151Z" fill="url(#paint24_linear_1918_2305)"/>
<path d="M430.244 390.92L433.828 338.72C434.339 331.342 437.935 325.194 442.923 322.283C446.075 319.76 449.926 318.266 453.954 318.002C454.378 317.96 454.804 317.94 455.23 317.944C458.469 317.926 461.661 318.724 464.51 320.264C464.599 320.304 464.684 320.35 464.766 320.404C467.707 322.037 470.232 324.328 472.143 327.097C475.036 331.308 476.574 336.302 476.551 341.411C476.551 353.011 468.907 362.674 458.873 364.611L454.987 421.08C454.65 425.882 451.507 429.571 447.702 429.571H428.237L430.244 390.92Z" fill="url(#paint25_linear_1918_2305)"/>
<path opacity="0.1" d="M430.244 390.92L433.828 338.72C434.339 331.342 437.935 325.194 442.923 322.283C446.075 319.76 449.926 318.266 453.954 318.002C454.378 317.96 454.804 317.94 455.23 317.944C458.469 317.926 461.661 318.724 464.51 320.264C464.599 320.304 464.684 320.35 464.766 320.404C467.707 322.037 470.232 324.328 472.143 327.097C475.036 331.308 476.574 336.302 476.551 341.411C476.551 353.011 468.907 362.674 458.873 364.611L454.987 421.08C454.65 425.882 451.507 429.571 447.702 429.571H428.237L430.244 390.92Z" fill="white"/>
<path d="M253.228 148.016V196.516C253.228 197.746 252.739 198.926 251.869 199.797C250.999 200.667 249.819 201.156 248.588 201.156H198.917L181.169 214.878C180.665 215.259 180.066 215.491 179.437 215.549C178.809 215.606 178.177 215.487 177.612 215.205C177.048 214.923 176.574 214.489 176.243 213.951C175.912 213.414 175.738 212.795 175.74 212.164V201.156H172.968C171.737 201.156 170.557 200.667 169.687 199.797C168.816 198.926 168.328 197.746 168.328 196.516V148.004C168.331 147.4 168.453 146.803 168.689 146.246C168.924 145.69 169.267 145.186 169.699 144.763C170.13 144.34 170.642 144.007 171.203 143.783C171.764 143.559 172.364 143.448 172.968 143.457H248.669C249.878 143.457 251.038 143.938 251.893 144.792C252.748 145.647 253.228 146.807 253.228 148.016V148.016Z" stroke="url(#paint26_linear_1918_2305)" stroke-miterlimit="10"/>
<path d="M206.712 136.625H197.235V137.785H206.712V136.625Z" fill="url(#paint27_linear_1918_2305)"/>
<path d="M162.4 150.29H161.24V144.571C161.243 142.459 162.084 140.435 163.578 138.943C165.072 137.451 167.098 136.613 169.209 136.613H190.356V137.773H169.186C167.383 137.776 165.655 138.493 164.379 139.767C163.103 141.041 162.383 142.768 162.377 144.571L162.4 150.29Z" fill="url(#paint28_linear_1918_2305)"/>
<path d="M229.413 178.988C228.909 178.991 228.41 178.89 227.947 178.69C227.484 178.491 227.067 178.198 226.723 177.829C226.378 177.461 226.114 177.026 225.946 176.55C225.778 176.075 225.711 175.57 225.748 175.067C226.989 160.927 238.194 159.628 239.598 143.55C240.004 138.91 238.31 137.17 235.074 137.17C231.838 137.17 229.842 138.922 229.436 143.55L229.204 146.195C229.1 147.39 228.551 148.502 227.666 149.312C226.781 150.121 225.625 150.57 224.425 150.568C223.761 150.567 223.105 150.429 222.497 150.161C221.89 149.893 221.345 149.502 220.896 149.012C220.448 148.522 220.106 147.945 219.893 147.316C219.68 146.687 219.6 146.021 219.658 145.36L219.762 144.2C220.667 133.852 226.27 127.96 236.164 127.96C246.059 127.96 250.618 133.876 249.713 144.2C248.24 160.962 236.002 163.56 234.958 175.38C234.964 175.438 234.964 175.497 234.958 175.554C234.905 176.492 234.496 177.374 233.815 178.021C233.134 178.667 232.232 179.03 231.292 179.034L229.413 178.988ZM234.436 188.825C234.331 190.041 233.774 191.174 232.874 191.999C231.974 192.824 230.797 193.281 229.576 193.279C228.899 193.28 228.23 193.14 227.61 192.868C226.991 192.596 226.434 192.198 225.977 191.7C225.52 191.201 225.172 190.612 224.954 189.972C224.737 189.331 224.656 188.652 224.715 187.978C224.82 186.76 225.379 185.625 226.282 184.8C227.184 183.975 228.364 183.519 229.587 183.524C230.262 183.526 230.93 183.668 231.547 183.941C232.164 184.215 232.718 184.613 233.174 185.111C233.63 185.609 233.977 186.196 234.194 186.836C234.411 187.475 234.494 188.152 234.436 188.825Z" fill="url(#paint29_linear_1918_2305)"/>
<path d="M216.34 167.632H189.66C189.045 167.632 188.455 167.387 188.02 166.952C187.584 166.517 187.34 165.927 187.34 165.312C187.34 164.696 187.584 164.106 188.02 163.671C188.455 163.236 189.045 162.992 189.66 162.992H216.34C216.955 162.992 217.545 163.236 217.98 163.671C218.416 164.106 218.66 164.696 218.66 165.312C218.66 165.927 218.416 166.517 217.98 166.952C217.545 167.387 216.955 167.632 216.34 167.632Z" fill="url(#paint30_linear_1918_2305)"/>
<path d="M212.651 176.819H189.706C189.091 176.819 188.501 176.574 188.066 176.139C187.631 175.704 187.386 175.114 187.386 174.499C187.386 173.884 187.631 173.293 188.066 172.858C188.501 172.423 189.091 172.179 189.706 172.179H212.651C213.267 172.179 213.857 172.423 214.292 172.858C214.727 173.293 214.971 173.884 214.971 174.499C214.971 175.114 214.727 175.704 214.292 176.139C213.857 176.574 213.267 176.819 212.651 176.819Z" fill="url(#paint31_linear_1918_2305)"/>
<path d="M208.962 185.994H189.706C189.091 185.994 188.501 185.75 188.066 185.315C187.631 184.88 187.386 184.29 187.386 183.674C187.386 183.059 187.631 182.469 188.066 182.034C188.501 181.599 189.091 181.354 189.706 181.354H208.962C209.578 181.354 210.168 181.599 210.603 182.034C211.038 182.469 211.282 183.059 211.282 183.674C211.282 184.29 211.038 184.88 210.603 185.315C210.168 185.75 209.578 185.994 208.962 185.994Z" fill="url(#paint32_linear_1918_2305)"/>
<path d="M154.373 375.272H137.425C133.296 375.272 129.955 377.882 129.955 381.072V391.094C129.955 394.319 133.296 396.894 137.425 396.894H154.373V375.272Z" fill="url(#paint33_linear_1918_2305)"/>
<path d="M75.6088 422.472L69.716 328.674C69.1979 320.427 70.375 312.16 73.1749 304.385C75.9749 296.61 80.3381 289.491 85.9956 283.467C91.6531 277.443 98.4848 272.643 106.069 269.361C113.654 266.08 121.83 264.387 130.094 264.387C145.551 264.386 160.423 270.301 171.657 280.918C182.891 291.536 189.636 306.05 190.507 321.482L196.678 431.033H84.68C82.3642 431.023 80.1388 430.133 78.4545 428.543C76.7702 426.954 75.753 424.783 75.6088 422.472Z" fill="url(#paint34_linear_1918_2305)"/>
<path opacity="0.1" d="M75.4 419.073L69.716 328.674C69.1979 320.427 70.375 312.16 73.1749 304.385C75.9749 296.61 80.3381 289.491 85.9956 283.467C91.6531 277.443 98.4848 272.643 106.069 269.361C113.654 266.08 121.83 264.387 130.094 264.387C145.551 264.386 160.423 270.301 171.657 280.918C182.891 291.536 189.636 306.05 190.507 321.482L196.678 431.033H88.16C84.9101 431.039 81.7802 429.805 79.4089 427.583C77.0377 425.36 75.6039 422.317 75.4 419.073Z" fill="black"/>
<path d="M93.7744 431.033L87.348 328.674C86.8298 320.426 88.0073 312.158 90.8079 304.382C93.6085 296.606 97.9729 289.487 103.632 283.463C109.29 277.439 116.123 272.639 123.709 269.358C131.295 266.077 139.473 264.385 147.738 264.387C163.193 264.389 178.061 270.306 189.293 280.922C200.525 291.539 207.268 306.052 208.139 321.482L214.322 431.033H93.7744Z" fill="url(#paint35_linear_1918_2305)"/>
<path d="M91.8488 448.653H90.306C89.8885 448.626 89.4938 448.453 89.1907 448.165C88.8876 447.877 88.6952 447.491 88.6472 447.076L86.3272 431.033H95.7348L93.4148 447.076C93.3745 447.478 93.1969 447.855 92.9117 448.142C92.6266 448.43 92.2513 448.61 91.8488 448.653Z" fill="url(#paint36_linear_1918_2305)"/>
<path opacity="0.7" d="M91.8488 448.653H90.306C89.8885 448.626 89.4938 448.453 89.1907 448.165C88.8876 447.877 88.6952 447.491 88.6472 447.076L86.3272 431.033H95.7348L93.4148 447.076C93.3745 447.478 93.1969 447.855 92.9117 448.142C92.6266 448.43 92.2513 448.61 91.8488 448.653Z" fill="white"/>
<path d="M243.403 448.653H241.999C241.603 448.61 241.236 448.428 240.962 448.139C240.688 447.85 240.525 447.473 240.503 447.076L238.438 431.033H246.964L244.899 447.076C244.877 447.473 244.714 447.85 244.44 448.139C244.166 448.428 243.799 448.61 243.403 448.653Z" fill="url(#paint37_linear_1918_2305)"/>
<path opacity="0.5" d="M243.403 448.653H241.999C241.603 448.61 241.236 448.428 240.962 448.139C240.688 447.85 240.525 447.473 240.503 447.076L238.438 431.033H246.964L244.899 447.076C244.877 447.473 244.714 447.85 244.44 448.139C244.166 448.428 243.799 448.61 243.403 448.653Z" fill="white"/>
<path d="M199.775 448.653H198.36C197.964 448.61 197.597 448.428 197.323 448.139C197.049 447.85 196.886 447.473 196.864 447.076L194.787 431.033H203.325L201.26 447.076C201.236 447.471 201.074 447.845 200.803 448.133C200.532 448.421 200.168 448.605 199.775 448.653Z" fill="url(#paint38_linear_1918_2305)"/>
<path opacity="0.7" d="M199.775 448.653H198.36C197.964 448.61 197.597 448.428 197.323 448.139C197.049 447.85 196.886 447.473 196.864 447.076L194.787 431.033H203.325L201.26 447.076C201.236 447.471 201.074 447.845 200.803 448.133C200.532 448.421 200.168 448.605 199.775 448.653Z" fill="white"/>
<path d="M138.829 448.653H137.286C136.868 448.628 136.472 448.456 136.168 448.168C135.865 447.879 135.673 447.492 135.627 447.076L133.307 431.033H142.715L140.395 447.076C140.355 447.478 140.177 447.855 139.892 448.142C139.607 448.43 139.231 448.61 138.829 448.653Z" fill="url(#paint39_linear_1918_2305)"/>
<path opacity="0.5" d="M138.829 448.653H137.286C136.868 448.628 136.472 448.456 136.168 448.168C135.865 447.879 135.673 447.492 135.627 447.076L133.307 431.033H142.715L140.395 447.076C140.355 447.478 140.177 447.855 139.892 448.142C139.607 448.43 139.231 448.61 138.829 448.653Z" fill="white"/>
<path d="M189.904 392.37H231.153L233.879 352.64L234.459 344.102L234.738 340.17C234.809 339.139 234.941 338.112 235.132 337.096C235.132 336.876 235.236 336.644 235.283 336.423C235.308 336.253 235.35 336.086 235.41 335.924C236.522 331.875 238.688 328.193 241.686 325.252C245.143 321.836 249.713 319.777 254.562 319.452H215.76C215.331 319.452 214.913 319.452 214.484 319.452C209.221 319.479 204.176 321.56 200.425 325.252C197.427 328.193 195.261 331.875 194.149 335.924C194.089 336.086 194.046 336.253 194.022 336.423C193.749 337.657 193.567 338.909 193.476 340.17L193.21 344.102L189.904 392.37Z" fill="url(#paint40_linear_1918_2305)"/>
<path opacity="0.1" d="M189.904 392.37H231.153L233.879 352.64L234.459 344.102L234.738 340.17C234.809 339.139 234.941 338.112 235.132 337.096C235.132 336.876 235.236 336.644 235.283 336.423C235.308 336.253 235.35 336.086 235.41 335.924C236.522 331.875 238.688 328.193 241.686 325.252C245.143 321.836 249.713 319.777 254.562 319.452H215.76C215.331 319.452 214.913 319.452 214.484 319.452C209.221 319.479 204.176 321.56 200.425 325.252C197.427 328.193 195.261 331.875 194.149 335.924C194.089 336.086 194.046 336.253 194.022 336.423C193.749 337.657 193.567 338.909 193.476 340.17L193.21 344.102L189.904 392.37Z" fill="black"/>
<g opacity="0.1">
<path opacity="0.1" d="M157.215 371.2H140.638C136.613 371.2 133.354 373.752 133.354 376.896V386.698C133.354 389.841 136.613 392.393 140.638 392.393H157.215V371.2Z" fill="black"/>
</g>
<path d="M224.854 371.188H151.89C148.418 371.188 145.603 374.003 145.603 377.476V386.094C145.603 389.567 148.418 392.382 151.89 392.382H224.854C228.327 392.382 231.142 389.567 231.142 386.094V377.476C231.142 374.003 228.327 371.188 224.854 371.188Z" fill="url(#paint41_linear_1918_2305)"/>
<path d="M52.78 342.861C52.7702 348.407 54.7222 353.778 58.2907 358.024C61.8593 362.27 66.8144 365.117 72.2796 366.061L76.56 422.542C76.9312 427.344 80.4112 431.033 84.5872 431.033H130.094C125.918 431.033 122.438 427.344 122.067 422.542L119.747 392.382L117.752 366.038C114.181 365.413 110.804 363.971 107.884 361.824C104.964 359.676 102.58 356.883 100.92 353.661C100.7 353.243 100.502 352.814 100.317 352.385C98.971 349.391 98.279 346.144 98.2868 342.861C98.2872 341.247 98.4544 339.638 98.7856 338.059C98.9132 337.432 99.0756 336.806 99.238 336.203C100.07 333.437 101.395 330.843 103.147 328.547C105.315 325.733 108.091 323.445 111.267 321.854C114.507 320.225 118.081 319.375 121.707 319.371H76.2816C73.9217 319.37 71.5751 319.726 69.3216 320.427C64.6808 321.858 60.5991 324.696 57.6404 328.547C54.4841 332.651 52.7751 337.684 52.78 342.861Z" fill="url(#paint42_linear_1918_2305)"/>
<path opacity="0.1" d="M52.78 342.861C52.7702 348.407 54.7222 353.778 58.2907 358.024C61.8593 362.27 66.8144 365.117 72.2796 366.061L76.56 422.542C76.9312 427.344 80.4112 431.033 84.5872 431.033H130.094C125.918 431.033 122.438 427.344 122.067 422.542L119.747 392.382L117.752 366.038C114.181 365.413 110.804 363.971 107.884 361.824C104.964 359.676 102.58 356.883 100.92 353.661C100.7 353.243 100.502 352.814 100.317 352.385C98.971 349.391 98.279 346.144 98.2868 342.861C98.2872 341.247 98.4544 339.638 98.7856 338.059C98.9132 337.432 99.0756 336.806 99.238 336.203C100.07 333.437 101.395 330.843 103.147 328.547C105.315 325.733 108.091 323.445 111.267 321.854C114.507 320.225 118.081 319.375 121.707 319.371H76.2816C73.9217 319.37 71.5751 319.726 69.3216 320.427C64.6808 321.858 60.5991 324.696 57.6404 328.547C54.4841 332.651 52.7751 337.684 52.78 342.861Z" fill="black"/>
<path d="M98.2752 342.861C98.2752 354.461 105.92 364.136 115.954 366.061L119.828 422.588C120.164 427.402 123.308 431.079 127.113 431.079H248.611C252.393 431.079 255.571 427.402 255.896 422.588L259.782 365.98C269.607 363.915 277.043 354.38 277.043 342.908C277.07 338.097 275.708 333.381 273.122 329.324C271.157 326.232 268.454 323.677 265.257 321.888C262.35 320.264 259.076 319.409 255.745 319.406C250.481 319.43 245.436 321.511 241.686 325.206C238.686 328.147 236.517 331.828 235.399 335.878C235.348 336.041 235.309 336.208 235.283 336.377C235.005 337.61 234.822 338.862 234.738 340.124L234.459 344.056L231.153 392.358H144.571L140.986 340.158C140.464 332.781 136.88 326.633 131.892 323.721C128.734 321.208 124.887 319.715 120.86 319.441C120.431 319.441 120.014 319.441 119.584 319.441C116.345 319.423 113.154 320.221 110.304 321.761C110.211 321.794 110.122 321.837 110.038 321.888C107.103 323.532 104.58 325.82 102.66 328.582C99.7779 332.784 98.248 337.766 98.2752 342.861Z" fill="url(#paint43_linear_1918_2305)"/>
<path opacity="0.1" d="M146.566 431.033H248.646C252.428 431.033 255.606 427.356 255.931 422.542L259.817 365.934C269.642 363.869 277.078 354.334 277.078 342.861C277.104 338.051 275.743 333.334 273.157 329.278C271.192 326.186 268.489 323.631 265.292 321.842C262.385 320.217 259.11 319.363 255.78 319.36C250.516 319.383 245.47 321.465 241.721 325.16C238.72 328.1 236.551 331.782 235.434 335.832C235.383 335.995 235.344 336.162 235.318 336.33C235.04 337.563 234.857 338.816 234.772 340.077L234.494 344.01L231.188 392.312H144.571L146.566 431.033Z" fill="white"/>
<path d="M177.631 450.996L187.526 453.734L196.411 430.476L186.516 427.738L177.631 450.996Z" fill="url(#paint44_linear_1918_2305)"/>
<path d="M191.957 450.648C191.176 449.637 190.048 448.95 188.79 448.723L178.64 446.739C178.403 446.67 178.149 446.698 177.932 446.815C177.715 446.932 177.552 447.13 177.48 447.366L174.336 456.646C174.246 456.898 174.207 457.165 174.221 457.432C174.235 457.7 174.301 457.961 174.417 458.203C174.532 458.444 174.694 458.661 174.893 458.839C175.092 459.018 175.325 459.156 175.578 459.244H175.647C179.406 460.729 181.946 460.218 187.816 461.355C191.446 462.051 199.044 464.464 204.125 464.255C209.206 464.046 209.194 459.024 207.06 458.652C199.52 457.492 193.72 452.945 191.957 450.648Z" fill="#263238"/>
<g opacity="0.2">
<path opacity="0.2" d="M196.411 430.488L191.829 442.482L181.934 439.721L186.505 427.738L196.411 430.488Z" fill="black"/>
</g>
<path d="M163.386 342.2C163.386 342.2 222.964 341.875 221.108 361.827C219.855 375.306 213.382 389.47 208.348 403.146C201.028 422.971 194.683 440.266 194.683 440.266L181.111 435.568C181.111 435.568 193.302 378.241 201.515 372.372H151.136C134.467 372.372 127.264 354.067 143.492 332.723C153.41 332.758 163.386 342.2 163.386 342.2Z" fill="url(#paint45_linear_1918_2305)"/>
<path opacity="0.6" d="M163.386 342.2C163.386 342.2 222.964 341.875 221.108 361.827C222.024 374.228 194.671 440.243 194.671 440.243L181.099 435.545C181.099 435.545 193.291 378.218 201.504 372.348H151.136C134.467 372.348 127.264 354.044 143.492 332.7C153.41 332.758 163.386 342.2 163.386 342.2Z" fill="black"/>
<path d="M205.401 305.973C198.07 312.666 183.674 296.821 181.354 294.942C176.39 290.882 161.797 277.263 162.562 272.53C164.882 258.61 187.711 278.33 194.312 291.926L205.401 305.973Z" fill="#263238"/>
<path d="M141.242 264.086C137.564 264.863 133.586 263.54 130.999 266.266C128.412 268.992 127.333 272.82 126.962 276.556C126.635 281.774 126.908 287.013 127.774 292.169C128.547 298.456 129.355 304.74 130.198 311.019C130.721 316.191 130.522 321.411 129.607 326.528C129.51 327.072 129.597 327.632 129.853 328.121C130.109 328.611 130.52 329.001 131.022 329.231C131.022 329.231 159.546 330.206 167.84 329.892C172.248 329.73 169.221 318.13 170.578 311.332C170.88 309.824 173.826 303.63 174.267 302.052C176.308 294.57 174.951 289.42 173.107 281.903C171.726 276.44 171.158 268.563 168.374 267.983C163.363 266.951 151.473 261.905 141.242 264.086Z" fill="url(#paint46_linear_1918_2305)"/>
<path opacity="0.8" d="M141.242 264.086C137.564 264.863 133.586 263.54 130.999 266.266C128.412 268.992 127.333 272.82 126.962 276.556C126.635 281.774 126.908 287.013 127.774 292.169C128.547 298.456 129.355 304.74 130.198 311.019C130.721 316.191 130.522 321.411 129.607 326.528C129.51 327.072 129.597 327.632 129.853 328.121C130.109 328.611 130.52 329.001 131.022 329.231C131.022 329.231 159.546 330.206 167.84 329.892C172.248 329.73 169.221 318.13 170.578 311.332C170.88 309.824 173.826 303.63 174.267 302.052C176.308 294.57 174.951 289.42 173.107 281.903C171.726 276.44 171.158 268.563 168.374 267.983C163.363 266.951 151.473 261.905 141.242 264.086Z" fill="white"/>
<path d="M137.17 269.445C136.787 268.865 126.73 260.42 124.932 270.176C122.392 283.759 127.646 297.122 127.646 297.122C127.646 297.122 128.806 311.82 133.122 313.293C137.437 314.766 141.45 315.126 142.889 312.608C143.819 310.646 144.31 308.504 144.327 306.333C144.327 306.333 143.84 279.56 137.17 269.445Z" fill="#263238"/>
<path d="M144.118 245.444C145.151 251.697 146.021 263.123 141.555 267.148C141.555 267.148 152.47 272.867 159.639 282.843C161.231 281.655 162.408 279.996 163.004 278.101C163.599 276.206 163.583 274.172 162.957 272.287C162.597 271.097 162.001 269.993 161.204 269.04C160.406 268.087 159.424 267.305 158.317 266.742C154.083 264.422 154.489 260.037 155.649 255.931L144.118 245.444Z" fill="url(#paint47_linear_1918_2305)"/>
<path opacity="0.2" d="M145.545 256.058L149.617 257.624C151.36 258.298 153.225 258.599 155.092 258.506C154.802 259.781 154.802 261.105 155.092 262.38C153.632 262.78 152.088 262.747 150.647 262.285C149.205 261.824 147.929 260.955 146.972 259.782C146.314 258.619 145.833 257.364 145.545 256.058Z" fill="black"/>
<path d="M246.616 430.998H257.706L246.094 403.193L238.577 415.953L246.616 430.998Z" fill="url(#paint48_linear_1918_2305)"/>
<path d="M256.789 428.365L243.786 425.407C243.563 425.351 243.327 425.38 243.125 425.49C242.923 425.6 242.77 425.781 242.695 425.998L239.064 435.998C238.992 436.25 238.97 436.514 238.999 436.774C239.029 437.035 239.109 437.287 239.236 437.517C239.364 437.746 239.535 437.949 239.74 438.112C239.945 438.275 240.181 438.396 240.433 438.468C244.992 439.42 247.231 439.628 252.95 440.939C256.43 441.74 265.385 444.083 270.245 445.185C275.106 446.287 276.382 441.531 274.444 440.626C265.768 436.612 261.07 432.773 258.552 429.502C258.113 428.931 257.49 428.53 256.789 428.365Z" fill="#263238"/>
<g opacity="0.2">
<path opacity="0.2" d="M246.094 403.193L251.036 415.036L241.06 420.604L238.577 415.964L246.094 403.193Z" fill="black"/>
</g>
<path d="M129.386 329.359L128.226 333.14C128.076 333.43 128.412 333.732 128.899 333.755L171.819 335.054C172.214 335.054 172.527 334.892 172.562 334.648L173.06 330.844C173.06 330.588 172.759 330.356 172.353 330.333L130.129 329.057C129.989 329.035 129.847 329.052 129.716 329.105C129.585 329.158 129.471 329.246 129.386 329.359Z" fill="#263238"/>
<path d="M183.071 360.389C168.954 366.409 153.642 372.418 145.313 372.418C128.632 372.418 113.819 360.377 129.607 332.978C139.536 332.978 156.786 333.256 156.786 333.256C156.786 333.256 189.266 323.976 212.906 326.714C218.508 327.368 223.759 329.78 227.904 333.605C232.05 337.429 234.877 342.469 235.979 348C241.964 378.16 251.186 410.779 251.186 410.779L239.32 418.899C239.32 418.899 220.818 380.004 210.169 349.16C204.531 350.935 194.172 355.656 183.071 360.389Z" fill="url(#paint49_linear_1918_2305)"/>
<path opacity="0.5" d="M235.979 348C234.881 342.464 232.056 337.42 227.91 333.591C223.765 329.762 218.512 327.346 212.906 326.691C189.312 324 156.786 333.233 156.786 333.233C156.786 333.233 139.536 332.92 129.607 332.955C113.564 360.238 128.632 372.395 145.313 372.395C153.642 372.395 168.954 366.386 183.071 360.366C194.172 355.633 204.531 350.912 210.169 349.102C220.818 379.981 239.32 418.888 239.32 418.888L251.186 410.768C251.186 410.768 241.964 378.16 235.979 348Z" fill="black"/>
<path d="M221.108 361.92C220.73 365.795 220.15 369.648 219.368 373.462C219.31 373.334 219.263 373.218 219.217 373.091C219.17 372.963 219.217 373.033 219.217 372.998C219.179 372.87 219.128 372.745 219.066 372.627C215.911 364.785 212.825 356.746 210.215 349.172H210.296C217.048 352.037 221.653 356.12 221.108 361.92Z" fill="url(#paint50_linear_1918_2305)"/>
<path opacity="0.6" d="M221.108 361.92C220.73 365.795 220.15 369.648 219.368 373.462C219.31 373.334 219.263 373.218 219.217 373.091C219.17 372.963 219.217 373.033 219.217 372.998C219.179 372.87 219.128 372.745 219.066 372.627C215.911 364.785 212.825 356.746 210.215 349.172H210.296C217.048 352.037 221.653 356.12 221.108 361.92Z" fill="black"/>
<path d="M136.509 239.436C139.989 249.238 141.265 253.46 147.784 257.137C157.609 262.682 168.861 256.232 168.374 245.537C167.933 235.967 162.307 221.537 151.403 220.377C148.998 220.106 146.563 220.456 144.33 221.392C142.098 222.328 140.142 223.82 138.649 225.726C137.156 227.631 136.176 229.887 135.801 232.279C135.427 234.671 135.67 237.118 136.509 239.389V239.436Z" fill="url(#paint51_linear_1918_2305)"/>
<path d="M154.129 238.16C154.373 239.006 154.988 239.505 155.521 239.32C156.055 239.134 156.264 238.392 156.055 237.568C155.846 236.744 155.208 236.222 154.663 236.408C154.118 236.594 153.897 237.348 154.129 238.16Z" fill="#263238"/>
<path d="M163.235 235.283C163.479 236.141 164.094 236.64 164.627 236.443C165.161 236.246 165.37 235.515 165.161 234.691C164.952 233.868 164.302 233.346 163.78 233.531C163.258 233.717 163.003 234.482 163.235 235.283Z" fill="#263238"/>
<path d="M163.56 233.659L165.346 232.499C165.346 232.499 164.778 234.32 163.56 233.659Z" fill="#263238"/>
<path d="M159.976 237.139C161.231 238.786 162.706 240.254 164.36 241.5C164.028 241.911 163.61 242.243 163.135 242.474C162.659 242.704 162.139 242.828 161.611 242.834L159.976 237.139Z" fill="#ED847E"/>
<path d="M130.106 245.92C130.818 247.685 131.358 249.515 131.718 251.384C131.817 253.263 131.212 255.112 130.022 256.571C128.832 258.029 127.141 258.992 125.28 259.272C126.901 259.704 128.621 259.562 130.15 258.871C131.678 258.179 132.921 256.981 133.667 255.478C132.78 257.84 131.025 259.773 128.76 260.884C130.379 260.902 131.98 260.546 133.439 259.843C134.897 259.141 136.174 258.112 137.17 256.836C136.625 258.251 136.01 259.654 135.523 261.07C138.277 259.401 140.539 257.032 142.077 254.202C142.692 253.042 143.156 251.534 142.344 250.514C141.532 249.493 140.244 249.562 139.061 249.539C137.878 249.516 136.451 249.238 136.022 248.136C135.592 247.034 136.381 245.932 137.24 245.178C138.098 244.424 139.13 243.728 139.444 242.626C139.592 241.828 139.536 241.006 139.281 240.236C138.748 238.102 138.222 235.963 137.704 233.821C137.563 233.065 137.292 232.339 136.903 231.675C134.583 228.195 131.996 233.299 131.103 235.028C129.431 238.409 129.076 242.291 130.106 245.92Z" fill="#263238"/>
<path d="M135.824 249.04C137.138 250.748 139.072 251.869 141.207 252.161C144.049 252.509 145.046 249.841 143.91 247.416C142.877 245.189 140.163 242.347 137.483 243.101C134.804 243.855 134.224 246.906 135.824 249.04Z" fill="url(#paint52_linear_1918_2305)"/>
<path d="M154.28 231.153C154.261 231.261 154.21 231.361 154.134 231.44C154.057 231.519 153.958 231.572 153.851 231.594C151.531 232.035 150.185 234.83 150.185 234.854C150.127 234.98 150.022 235.079 149.892 235.129C149.761 235.179 149.617 235.176 149.489 235.12C149.366 235.062 149.27 234.958 149.222 234.83C149.174 234.702 149.179 234.561 149.234 234.436C149.338 234.332 150.777 231.118 153.654 230.562C153.788 230.541 153.926 230.573 154.038 230.65C154.151 230.728 154.229 230.846 154.257 230.979C154.282 231.034 154.29 231.094 154.28 231.153Z" fill="#263238"/>
<path d="M160.474 228.833C160.397 228.821 160.318 228.825 160.242 228.845C160.166 228.865 160.095 228.901 160.034 228.949C159.906 229.088 159.477 229.332 159.72 229.46C161.136 230.179 163.096 231.362 164.604 231.118C164.859 231.118 165.462 230.852 165.335 230.666C165.248 230.572 165.138 230.503 165.016 230.464C164.894 230.426 164.764 230.419 164.639 230.446C163.479 230.608 161.843 229.483 160.73 228.903C160.648 228.869 160.562 228.846 160.474 228.833Z" fill="#263238"/>
<path d="M154.442 236.524L156.24 235.364C156.24 235.364 155.672 237.208 154.442 236.524Z" fill="#263238"/>
<path d="M154.28 216.085C150.324 215.366 149.814 215.099 145.8 215.354C141.746 215.481 137.827 216.836 134.56 219.24C131.508 221.763 129.355 225.205 128.424 229.054C127.512 232.888 127.409 236.87 128.122 240.746C128.25 242.598 129.05 244.339 130.372 245.642C130.507 243.557 130.861 241.492 131.428 239.482C132.019 237.452 133.238 235.662 134.908 234.366C135.645 233.968 136.28 233.404 136.764 232.719C137.015 232.042 137.156 231.33 137.182 230.608C137.545 228.984 138.516 227.56 139.896 226.629C141.266 225.72 142.733 224.965 144.269 224.379C149.153 222.279 154.477 221.073 158.978 218.242C157.505 217.335 155.928 216.611 154.28 216.085Z" fill="#263238"/>
<path d="M134.038 231.606C135.1 232.895 136.554 233.804 138.179 234.192C140.105 234.633 144.919 234.517 145.209 234.018C145.499 233.52 143.782 228.114 141.833 227.789C143.178 229.087 144.783 230.084 146.543 230.712C148.534 231.111 150.584 231.111 152.575 230.712C153.596 230.48 151.31 226.258 149.652 225.052C154.651 226.096 159.941 227.29 163.572 230.852C167.202 234.413 168.768 240.05 168.583 245.305C169.434 244.62 170.117 243.75 170.581 242.761C171.046 241.772 171.279 240.69 171.262 239.598C172.138 242.315 172.459 245.181 172.206 248.024C171.953 250.868 171.131 253.631 169.789 256.151C175.102 251.79 177.086 244.168 175.694 237.44C174.302 230.712 169.894 224.854 164.546 220.551C159.906 216.874 154.384 214.124 148.503 213.985C140.789 213.753 126.498 222.523 134.038 231.606Z" fill="#263238"/>
<path d="M140.29 262.624C140.29 262.241 140.383 261.731 140.43 261.197C140.531 259.972 140.174 258.753 139.428 257.776C138.683 256.799 137.601 256.133 136.393 255.908C136.034 255.843 135.699 255.685 135.422 255.449C135.144 255.212 134.935 254.906 134.815 254.562C133.922 251.964 133.574 251.175 132.716 248.623C130.396 248.054 127.6 248.924 125.176 249.18C124.503 252.091 124.456 255.111 125.036 258.042C125.129 258.698 125.385 259.32 125.779 259.852C127.98 261.655 130.415 263.154 133.017 264.306C135.105 264.944 138.04 262.821 140.29 262.624Z" fill="url(#paint53_linear_1918_2305)"/>
<path d="M133.261 264.364C133.261 264.364 126.869 305.602 133.458 311.924C137.321 315.613 140.662 313.571 142.738 311.263C143.499 310.403 144.072 309.393 144.419 308.298C144.767 307.203 144.882 306.048 144.756 304.906L140.267 262.659C140.267 262.659 135.859 260.049 133.261 264.364Z" fill="url(#paint54_linear_1918_2305)"/>
<path d="M201.933 301.6C204.557 299.31 206.439 296.289 207.338 292.923C207.544 291.736 207.621 290.531 207.57 289.327C207.512 281.857 205.401 268.157 205.401 268.157L199.334 266.15C199.334 266.15 197.444 276.59 197.014 282.298C196.933 283.458 196.806 284.745 196.666 286.149C196.4 288.701 196.075 291.508 195.785 293.84L201.933 301.6Z" fill="url(#paint55_linear_1918_2305)"/>
<path d="M205.401 305.973C207.269 304.268 207.582 302.203 208.545 297.853C209.461 293.7 208.429 288.573 207.57 289.35C207.463 289.448 207.383 289.572 207.338 289.71C205.865 293.19 200.135 290.139 198.511 288.399C197.811 287.734 197.196 286.986 196.678 286.172C196.465 285.861 196.351 285.493 196.351 285.116C196.351 284.74 196.465 284.372 196.678 284.061C194.915 283.33 193.5 290.267 194.358 291.972L194.799 293.26C195.498 295.349 196.575 297.291 197.977 298.99L201.167 302.83L205.401 305.973Z" fill="#263238"/>
<path d="M199.172 267.02L198.453 256.418C200.329 257.311 202.267 258.067 204.253 258.68C207.199 259.689 211.213 257.914 210.285 259.84C208.805 262.705 207.155 265.478 205.343 268.146L199.172 267.02Z" fill="url(#paint56_linear_1918_2305)"/>
<path d="M198.453 256.418L203 245.804L208.939 249.435C210.575 252.984 210.378 259.875 210.378 259.875C210.378 259.875 202.118 260.2 198.453 256.418Z" fill="url(#paint57_linear_1918_2305)"/>
<path d="M159.28 248.24C159.43 248.994 159.976 249.528 160.44 249.4C160.904 249.272 161.194 248.6 161.031 247.846C160.869 247.092 160.335 246.558 159.871 246.686C159.407 246.813 159.117 247.532 159.28 248.24Z" fill="#263238"/>
<path d="M144.571 392.37L140.986 340.17C140.464 332.792 136.88 326.644 131.892 323.733C128.734 321.219 124.887 319.727 120.86 319.452C120.431 319.452 120.014 319.452 119.584 319.452C116.345 319.434 113.154 320.232 110.304 321.772C110.211 321.805 110.122 321.848 110.038 321.9C107.103 323.543 104.58 325.832 102.66 328.593C99.7629 332.802 98.2245 337.798 98.252 342.908C98.252 354.508 105.896 364.182 115.93 366.108L119.805 422.634C120.141 427.448 123.285 431.126 127.09 431.126H146.543L144.571 392.37Z" fill="url(#paint58_linear_1918_2305)"/>
<path opacity="0.1" d="M144.571 392.37L140.986 340.17C140.464 332.792 136.88 326.644 131.892 323.733C128.734 321.219 124.887 319.727 120.86 319.452C120.431 319.452 120.014 319.452 119.584 319.452C116.345 319.434 113.154 320.232 110.304 321.772C110.211 321.805 110.122 321.848 110.038 321.9C107.103 323.543 104.58 325.832 102.66 328.593C99.7629 332.802 98.2245 337.798 98.252 342.908C98.252 354.508 105.896 364.182 115.93 366.108L119.805 422.634C120.141 427.448 123.285 431.126 127.09 431.126H146.543L144.571 392.37Z" fill="white"/>
<path d="M283.226 487.745C304.713 487.745 322.132 483.289 322.132 477.792C322.132 472.296 304.713 467.84 283.226 467.84C261.738 467.84 244.319 472.296 244.319 477.792C244.319 483.289 261.738 487.745 283.226 487.745Z" fill="#263238"/>
<path opacity="0.3" d="M283.226 484.428C304.713 484.428 322.132 480.714 322.132 476.134C322.132 471.553 304.713 467.84 283.226 467.84C261.738 467.84 244.319 471.553 244.319 476.134C244.319 480.714 261.738 484.428 283.226 484.428Z" fill="white"/>
<path d="M286.439 476.122H280.012L272.588 396.059H293.863L286.439 476.122Z" fill="#263238"/>
<path d="M293.863 396.059C293.863 398.379 289.107 400.281 283.226 400.281C277.344 400.281 272.588 398.39 272.588 396.059C272.588 393.727 277.356 391.836 283.226 391.836C289.095 391.836 293.863 393.727 293.863 396.059Z" fill="#263238"/>
<path opacity="0.7" d="M293.863 396.059C293.863 398.379 289.107 400.281 283.226 400.281C277.344 400.281 272.588 398.39 272.588 396.059C272.588 393.727 277.356 391.836 283.226 391.836C289.095 391.836 293.863 393.727 293.863 396.059Z" fill="white"/>
<path opacity="0.7" d="M153.12 397.312C153.149 396.832 153.274 396.364 153.487 395.933C153.7 395.503 153.997 395.12 154.361 394.806C163.351 403.854 220.388 410.826 289.408 410.826C358.428 410.826 415.466 403.866 424.467 394.806C424.831 395.12 425.128 395.503 425.341 395.933C425.554 396.364 425.679 396.832 425.708 397.312C425.708 407.531 364.681 415.872 289.408 415.872C214.136 415.872 153.12 407.531 153.12 397.312Z" fill="white"/>
<path opacity="0.7" d="M154.408 399.62C163.398 390.572 220.435 383.612 289.455 383.612C358.475 383.612 415.512 390.572 424.514 399.62C415.512 408.668 358.475 415.64 289.455 415.64C220.435 415.64 163.398 408.668 154.408 399.62Z" fill="white"/>
<path opacity="0.7" d="M153.12 396.952C153.12 386.721 214.136 378.392 289.408 378.392C364.681 378.392 425.708 386.674 425.708 396.952C425.68 397.43 425.556 397.897 425.343 398.326C425.129 398.754 424.832 399.135 424.467 399.446C415.466 390.398 358.428 383.438 289.408 383.438C220.388 383.438 163.351 390.398 154.361 399.446C153.997 399.135 153.699 398.754 153.486 398.326C153.272 397.897 153.148 397.43 153.12 396.952Z" fill="white"/>
<path d="M342.026 387.939L285 386.86C284.847 386.844 284.697 386.798 284.562 386.724C284.426 386.649 284.307 386.549 284.211 386.428C284.114 386.307 284.043 386.168 284.002 386.019C283.96 385.87 283.949 385.714 283.968 385.561C283.955 385.407 283.974 385.251 284.022 385.104C284.07 384.957 284.147 384.821 284.249 384.705C284.351 384.588 284.475 384.493 284.614 384.424C284.753 384.356 284.904 384.317 285.058 384.308L342.084 385.387C342.239 385.401 342.389 385.446 342.526 385.52C342.663 385.594 342.784 385.694 342.881 385.815C342.979 385.936 343.051 386.076 343.093 386.226C343.135 386.375 343.147 386.532 343.128 386.686C343.141 386.841 343.122 386.997 343.073 387.145C343.024 387.293 342.946 387.429 342.843 387.546C342.74 387.663 342.615 387.758 342.474 387.826C342.334 387.893 342.182 387.932 342.026 387.939Z" fill="#263238"/>
<path opacity="0.2" d="M342.026 387.939L285 386.86C284.847 386.844 284.697 386.798 284.562 386.724C284.426 386.649 284.307 386.549 284.211 386.428C284.114 386.307 284.043 386.168 284.002 386.019C283.96 385.87 283.949 385.714 283.968 385.561C283.955 385.407 283.974 385.251 284.022 385.104C284.07 384.957 284.147 384.821 284.249 384.705C284.351 384.588 284.475 384.493 284.614 384.424C284.753 384.356 284.904 384.317 285.058 384.308L342.084 385.387C342.239 385.401 342.389 385.446 342.526 385.52C342.663 385.594 342.784 385.694 342.881 385.815C342.979 385.936 343.051 386.076 343.093 386.226C343.135 386.375 343.147 386.532 343.128 386.686C343.141 386.841 343.122 386.997 343.073 387.145C343.024 387.293 342.946 387.429 342.843 387.546C342.74 387.663 342.615 387.758 342.474 387.826C342.334 387.893 342.182 387.932 342.026 387.939Z" fill="white"/>
<path d="M369.715 383.774L342.455 387.892C342.157 387.893 341.871 387.778 341.655 387.573C341.439 387.368 341.31 387.088 341.295 386.79C341.248 386.478 341.317 386.16 341.491 385.897C341.664 385.633 341.929 385.443 342.235 385.364L369.495 381.246C369.793 381.245 370.079 381.359 370.295 381.565C370.511 381.77 370.64 382.05 370.655 382.348C370.702 382.659 370.632 382.978 370.459 383.241C370.285 383.505 370.02 383.695 369.715 383.774Z" fill="#263238"/>
<path d="M369.472 381.246H311.843L285.058 384.308L340.53 385.352L369.472 381.246Z" fill="#263238"/>
<path opacity="0.6" d="M369.472 381.246H311.843L285.058 384.308L340.53 385.352L369.472 381.246Z" fill="white"/>
<path opacity="0.5" d="M369.715 383.774L342.455 387.892C342.157 387.893 341.871 387.778 341.655 387.573C341.439 387.368 341.31 387.088 341.295 386.79C341.248 386.478 341.317 386.16 341.491 385.897C341.664 385.633 341.929 385.443 342.235 385.364L369.495 381.246C369.793 381.245 370.079 381.359 370.295 381.565C370.511 381.77 370.64 382.05 370.655 382.348C370.702 382.659 370.632 382.978 370.459 383.241C370.285 383.505 370.02 383.695 369.715 383.774Z" fill="white"/>
<path d="M340.53 385.352L287.355 384.354C286.353 384.227 285.432 383.736 284.767 382.975C284.102 382.214 283.739 381.235 283.748 380.225L282.147 348.116C282.031 345.877 283.481 344.079 285.348 344.114L338.523 345.123C339.527 345.246 340.451 345.735 341.117 346.498C341.783 347.26 342.144 348.241 342.13 349.253L343.743 381.35C343.847 383.589 342.409 385.387 340.53 385.352Z" fill="url(#paint59_linear_1918_2305)"/>
<path opacity="0.2" d="M340.53 385.352L287.355 384.354C286.353 384.227 285.432 383.736 284.767 382.975C284.102 382.214 283.739 381.235 283.748 380.225L282.147 348.116C282.031 345.877 283.481 344.079 285.348 344.114L338.523 345.123C339.527 345.246 340.451 345.735 341.117 346.498C341.783 347.26 342.144 348.241 342.13 349.253L343.743 381.35C343.847 383.589 342.409 385.387 340.53 385.352Z" fill="white"/>
<path d="M338.975 385.19L285.801 384.18C284.796 384.055 283.873 383.566 283.205 382.804C282.538 382.043 282.174 381.063 282.182 380.051L280.581 348C280.465 345.761 281.915 343.963 283.794 343.998L336.957 344.996C337.961 345.121 338.885 345.61 339.552 346.372C340.219 347.133 340.584 348.113 340.576 349.125L342.2 381.188C342.293 383.426 340.843 385.224 338.975 385.19Z" fill="url(#paint60_linear_1918_2305)"/>
<path opacity="0.6" d="M338.975 385.19L285.801 384.18C284.796 384.055 283.873 383.566 283.205 382.804C282.538 382.043 282.174 381.063 282.182 380.051L280.581 348C280.465 345.761 281.915 343.963 283.794 343.998L336.957 344.996C337.961 345.121 338.885 345.61 339.552 346.372C340.219 347.133 340.584 348.113 340.576 349.125L342.2 381.188C342.293 383.426 340.843 385.224 338.975 385.19Z" fill="white"/>
<path d="M304.338 364.043C304.493 365.571 305.204 366.988 306.335 368.027C307.466 369.066 308.939 369.654 310.474 369.68C311.196 369.693 311.912 369.551 312.576 369.266C313.239 368.98 313.834 368.557 314.321 368.024C314.808 367.49 315.176 366.86 315.401 366.173C315.626 365.487 315.702 364.761 315.624 364.043C315.456 362.523 314.74 361.117 313.611 360.086C312.482 359.055 311.017 358.47 309.488 358.44C308.769 358.428 308.056 358.569 307.395 358.852C306.735 359.136 306.142 359.556 305.655 360.085C305.169 360.615 304.8 361.241 304.573 361.923C304.346 362.605 304.265 363.328 304.338 364.043Z" fill="white"/>
<defs>
<linearGradient id="paint0_linear_1918_2305" x1="368010" y1="499517" x2="275133" y2="361231" gradientUnits="userSpaceOnUse">
<stop/>
<stop offset="1" stop-color="#5E88F3"/>
</linearGradient>
<linearGradient id="paint1_linear_1918_2305" x1="368091" y1="499517" x2="275224" y2="361208" gradientUnits="userSpaceOnUse">
<stop/>
<stop offset="1" stop-color="#5E88F3"/>
</linearGradient>
<linearGradient id="paint2_linear_1918_2305" x1="27665.6" y1="53183.5" x2="17073" y2="42145.7" gradientUnits="userSpaceOnUse">
<stop/>
<stop offset="1" stop-color="#5E88F3"/>
</linearGradient>
<linearGradient id="paint3_linear_1918_2305" x1="25030.8" y1="53183.5" x2="14445" y2="43160.5" gradientUnits="userSpaceOnUse">
<stop/>
<stop offset="1" stop-color="#5E88F3"/>
</linearGradient>
<linearGradient id="paint4_linear_1918_2305" x1="25040.7" y1="53183.5" x2="14455.7" y2="43174.9" gradientUnits="userSpaceOnUse">
<stop/>
<stop offset="1" stop-color="#5E88F3"/>
</linearGradient>
<linearGradient id="paint5_linear_1918_2305" x1="27652.2" y1="53183.5" x2="17060.1" y2="42132.6" gradientUnits="userSpaceOnUse">
<stop/>
<stop offset="1" stop-color="#5E88F3"/>
</linearGradient>
<linearGradient id="paint6_linear_1918_2305" x1="187438" y1="218911" x2="149381" y2="153040" gradientUnits="userSpaceOnUse">
<stop/>
<stop offset="1" stop-color="#5E88F3"/>
</linearGradient>
<linearGradient id="paint7_linear_1918_2305" x1="-247069" y1="-63101.9" x2="-243883" y2="-37986.7" gradientUnits="userSpaceOnUse">
<stop/>
<stop offset="1" stop-color="#5E88F3"/>
</linearGradient>
<linearGradient id="paint8_linear_1918_2305" x1="224013" y1="335019" x2="159678" y2="248127" gradientUnits="userSpaceOnUse">
<stop/>
<stop offset="1" stop-color="#5E88F3"/>
</linearGradient>
<linearGradient id="paint9_linear_1918_2305" x1="517582" y1="334914" x2="478555" y2="212916" gradientUnits="userSpaceOnUse">
<stop/>
<stop offset="1" stop-color="#5E88F3"/>
</linearGradient>
<linearGradient id="paint10_linear_1918_2305" x1="1302.11" y1="24924.6" x2="4810.17" y2="30110.1" gradientUnits="userSpaceOnUse">
<stop stop-color="#C6946A"/>
<stop offset="1" stop-color="#513E52"/>
</linearGradient>
<linearGradient id="paint11_linear_1918_2305" x1="1216.61" y1="26192.8" x2="5061.47" y2="31173.7" gradientUnits="userSpaceOnUse">
<stop stop-color="#C6946A"/>
<stop offset="1" stop-color="#513E52"/>
</linearGradient>
<linearGradient id="paint12_linear_1918_2305" x1="188693" y1="278517" x2="135412" y2="205614" gradientUnits="userSpaceOnUse">
<stop/>
<stop offset="1" stop-color="#5E88F3"/>
</linearGradient>
<linearGradient id="paint13_linear_1918_2305" x1="1607" y1="31490.9" x2="5944.29" y2="38203" gradientUnits="userSpaceOnUse">
<stop stop-color="#C6946A"/>
<stop offset="1" stop-color="#513E52"/>
</linearGradient>
<linearGradient id="paint14_linear_1918_2305" x1="355436" y1="351612" x2="299705" y2="237687" gradientUnits="userSpaceOnUse">
<stop/>
<stop offset="1" stop-color="#5E88F3"/>
</linearGradient>
<linearGradient id="paint15_linear_1918_2305" x1="1663.92" y1="22606.1" x2="4263.36" y2="28184.7" gradientUnits="userSpaceOnUse">
<stop stop-color="#C6946A"/>
<stop offset="1" stop-color="#513E52"/>
</linearGradient>
<linearGradient id="paint16_linear_1918_2305" x1="304492" y1="351612" x2="243686" y2="245156" gradientUnits="userSpaceOnUse">
<stop/>
<stop offset="1" stop-color="#5E88F3"/>
</linearGradient>
<linearGradient id="paint17_linear_1918_2305" x1="2585.5" y1="62179.9" x2="11775.7" y2="74057" gradientUnits="userSpaceOnUse">
<stop stop-color="#C6946A"/>
<stop offset="1" stop-color="#513E52"/>
</linearGradient>
<linearGradient id="paint18_linear_1918_2305" x1="2959.37" y1="68827.1" x2="12971.2" y2="82561.6" gradientUnits="userSpaceOnUse">
<stop stop-color="#C6946A"/>
<stop offset="1" stop-color="#513E52"/>
</linearGradient>
<linearGradient id="paint19_linear_1918_2305" x1="1174.68" y1="19382.6" x2="3934.02" y2="23325.6" gradientUnits="userSpaceOnUse">
<stop stop-color="#C6946A"/>
<stop offset="1" stop-color="#513E52"/>
</linearGradient>
<linearGradient id="paint20_linear_1918_2305" x1="111054" y1="134479" x2="87261.8" y2="94801.9" gradientUnits="userSpaceOnUse">
<stop/>
<stop offset="1" stop-color="#5E88F3"/>
</linearGradient>
<linearGradient id="paint21_linear_1918_2305" x1="43567.2" y1="17047.9" x2="42316.9" y2="10541.6" gradientUnits="userSpaceOnUse">
<stop/>
<stop offset="1" stop-color="#5E88F3"/>
</linearGradient>
<linearGradient id="paint22_linear_1918_2305" x1="48333.2" y1="18507" x2="47000.8" y2="11424.5" gradientUnits="userSpaceOnUse">
<stop/>
<stop offset="1" stop-color="#5E88F3"/>
</linearGradient>
<linearGradient id="paint23_linear_1918_2305" x1="1437.39" y1="20215.8" x2="3933.26" y2="25027.7" gradientUnits="userSpaceOnUse">
<stop stop-color="#C6946A"/>
<stop offset="1" stop-color="#513E52"/>
</linearGradient>
<linearGradient id="paint24_linear_1918_2305" x1="1349.33" y1="20379.4" x2="3984.52" y2="25049" gradientUnits="userSpaceOnUse">
<stop stop-color="#C6946A"/>
<stop offset="1" stop-color="#513E52"/>
</linearGradient>
<linearGradient id="paint25_linear_1918_2305" x1="140222" y1="334742" x2="73953.6" y2="278731" gradientUnits="userSpaceOnUse">
<stop/>
<stop offset="1" stop-color="#5E88F3"/>
</linearGradient>
<linearGradient id="paint26_linear_1918_2305" x1="245821" y1="216166" x2="214066" y2="143151" gradientUnits="userSpaceOnUse">
<stop/>
<stop offset="1" stop-color="#5E88F3"/>
</linearGradient>
<linearGradient id="paint27_linear_1918_2305" x1="27618.7" y1="3611.88" x2="27531.5" y2="2220.55" gradientUnits="userSpaceOnUse">
<stop/>
<stop offset="1" stop-color="#5E88F3"/>
</linearGradient>
<linearGradient id="paint28_linear_1918_2305" x1="84406.1" y1="41109.8" x2="80661.6" y2="25542.2" gradientUnits="userSpaceOnUse">
<stop/>
<stop offset="1" stop-color="#5E88F3"/>
</linearGradient>
<linearGradient id="paint29_linear_1918_2305" x1="87561.2" y1="195819" x2="48440.6" y2="160514" gradientUnits="userSpaceOnUse">
<stop/>
<stop offset="1" stop-color="#5E88F3"/>
</linearGradient>
<linearGradient id="paint30_linear_1918_2305" x1="90809.2" y1="14064" x2="90387.8" y2="8508.78" gradientUnits="userSpaceOnUse">
<stop/>
<stop offset="1" stop-color="#5E88F3"/>
</linearGradient>
<linearGradient id="paint31_linear_1918_2305" x1="80001.9" y1="14073.1" x2="79524.2" y2="8527.06" gradientUnits="userSpaceOnUse">
<stop/>
<stop offset="1" stop-color="#5E88F3"/>
</linearGradient>
<linearGradient id="paint32_linear_1918_2305" x1="69328.5" y1="14082.3" x2="68778.4" y2="8549.85" gradientUnits="userSpaceOnUse">
<stop/>
<stop offset="1" stop-color="#5E88F3"/>
</linearGradient>
<linearGradient id="paint33_linear_1918_2305" x1="70781.6" y1="65153.7" x2="60989" y2="43557.9" gradientUnits="userSpaceOnUse">
<stop/>
<stop offset="1" stop-color="#5E88F3"/>
</linearGradient>
<linearGradient id="paint34_linear_1918_2305" x1="367768" y1="499518" x2="274899" y2="361216" gradientUnits="userSpaceOnUse">
<stop/>
<stop offset="1" stop-color="#5E88F3"/>
</linearGradient>
<linearGradient id="paint35_linear_1918_2305" x1="367820" y1="499518" x2="274953" y2="361208" gradientUnits="userSpaceOnUse">
<stop/>
<stop offset="1" stop-color="#5E88F3"/>
</linearGradient>
<linearGradient id="paint36_linear_1918_2305" x1="27306.4" y1="53220" x2="16707" y2="42168.7" gradientUnits="userSpaceOnUse">
<stop/>
<stop offset="1" stop-color="#5E88F3"/>
</linearGradient>
<linearGradient id="paint37_linear_1918_2305" x1="24907.7" y1="53220" x2="14316.1" y2="43211.7" gradientUnits="userSpaceOnUse">
<stop/>
<stop offset="1" stop-color="#5E88F3"/>
</linearGradient>
<linearGradient id="paint38_linear_1918_2305" x1="24897.7" y1="53220" x2="14305.3" y2="43197.3" gradientUnits="userSpaceOnUse">
<stop/>
<stop offset="1" stop-color="#5E88F3"/>
</linearGradient>
<linearGradient id="paint39_linear_1918_2305" x1="27353.4" y1="53220" x2="16754" y2="42168.7" gradientUnits="userSpaceOnUse">
<stop/>
<stop offset="1" stop-color="#5E88F3"/>
</linearGradient>
<linearGradient id="paint40_linear_1918_2305" x1="187274" y1="218773" x2="149250" y2="152929" gradientUnits="userSpaceOnUse">
<stop/>
<stop offset="1" stop-color="#5E88F3"/>
</linearGradient>
<linearGradient id="paint41_linear_1918_2305" x1="247644" y1="63863.9" x2="244458" y2="38748.7" gradientUnits="userSpaceOnUse">
<stop/>
<stop offset="1" stop-color="#5E88F3"/>
</linearGradient>
<linearGradient id="paint42_linear_1918_2305" x1="223755" y1="334847" x2="159474" y2="247931" gradientUnits="userSpaceOnUse">
<stop/>
<stop offset="1" stop-color="#5E88F3"/>
</linearGradient>
<linearGradient id="paint43_linear_1918_2305" x1="517350" y1="334881" x2="478329" y2="212894" gradientUnits="userSpaceOnUse">
<stop/>
<stop offset="1" stop-color="#5E88F3"/>
</linearGradient>
<linearGradient id="paint44_linear_1918_2305" x1="1745.51" y1="41768.6" x2="7742.14" y2="50145.3" gradientUnits="userSpaceOnUse">
<stop stop-color="#C6946A"/>
<stop offset="1" stop-color="#513E52"/>
</linearGradient>
<linearGradient id="paint45_linear_1918_2305" x1="251231" y1="322523" x2="192646" y2="230203" gradientUnits="userSpaceOnUse">
<stop/>
<stop offset="1" stop-color="#5E88F3"/>
</linearGradient>
<linearGradient id="paint46_linear_1918_2305" x1="140336" y1="199222" x2="102735" y2="145642" gradientUnits="userSpaceOnUse">
<stop/>
<stop offset="1" stop-color="#5E88F3"/>
</linearGradient>
<linearGradient id="paint47_linear_1918_2305" x1="1968.52" y1="59720.2" x2="11012.9" y2="69953.4" gradientUnits="userSpaceOnUse">
<stop stop-color="#C6946A"/>
<stop offset="1" stop-color="#513E52"/>
</linearGradient>
<linearGradient id="paint48_linear_1918_2305" x1="1835.51" y1="44621.9" x2="8344.51" y2="53280.1" gradientUnits="userSpaceOnUse">
<stop stop-color="#C6946A"/>
<stop offset="1" stop-color="#513E52"/>
</linearGradient>
<linearGradient id="paint49_linear_1918_2305" x1="371354" y1="278018" x2="335035" y2="179842" gradientUnits="userSpaceOnUse">
<stop/>
<stop offset="1" stop-color="#5E88F3"/>
</linearGradient>
<linearGradient id="paint50_linear_1918_2305" x1="31853.1" y1="73120.8" x2="17349" y2="60368.5" gradientUnits="userSpaceOnUse">
<stop/>
<stop offset="1" stop-color="#5E88F3"/>
</linearGradient>
<linearGradient id="paint51_linear_1918_2305" x1="2870.5" y1="62051.4" x2="11318.7" y2="75814.8" gradientUnits="userSpaceOnUse">
<stop stop-color="#C6946A"/>
<stop offset="1" stop-color="#513E52"/>
</linearGradient>
<linearGradient id="paint52_linear_1918_2305" x1="922.227" y1="14896.5" x2="2729.94" y2="18473.7" gradientUnits="userSpaceOnUse">
<stop stop-color="#C6946A"/>
<stop offset="1" stop-color="#513E52"/>
</linearGradient>
<linearGradient id="paint53_linear_1918_2305" x1="1444.77" y1="25679.6" x2="4645.49" y2="31799.3" gradientUnits="userSpaceOnUse">
<stop stop-color="#C6946A"/>
<stop offset="1" stop-color="#513E52"/>
</linearGradient>
<linearGradient id="paint54_linear_1918_2305" x1="1326.65" y1="83073.8" x2="11850.2" y2="88672.6" gradientUnits="userSpaceOnUse">
<stop stop-color="#C6946A"/>
<stop offset="1" stop-color="#513E52"/>
</linearGradient>
<linearGradient id="paint55_linear_1918_2305" x1="1180.97" y1="56641.8" x2="9043.95" y2="61702.8" gradientUnits="userSpaceOnUse">
<stop stop-color="#C6946A"/>
<stop offset="1" stop-color="#513E52"/>
</linearGradient>
<linearGradient id="paint56_linear_1918_2305" x1="1197.61" y1="18906.8" x2="3502.31" y2="23454.5" gradientUnits="userSpaceOnUse">
<stop stop-color="#C6946A"/>
<stop offset="1" stop-color="#513E52"/>
</linearGradient>
<linearGradient id="paint57_linear_1918_2305" x1="1194.61" y1="22633.7" x2="4245.28" y2="27633.4" gradientUnits="userSpaceOnUse">
<stop stop-color="#C6946A"/>
<stop offset="1" stop-color="#513E52"/>
</linearGradient>
<linearGradient id="paint58_linear_1918_2305" x1="139825" y1="334882" x2="73539.4" y2="278906" gradientUnits="userSpaceOnUse">
<stop/>
<stop offset="1" stop-color="#5E88F3"/>
</linearGradient>
<linearGradient id="paint59_linear_1918_2305" x1="178539" y1="123892" x2="163308" y2="79455.7" gradientUnits="userSpaceOnUse">
<stop/>
<stop offset="1" stop-color="#5E88F3"/>
</linearGradient>
<linearGradient id="paint60_linear_1918_2305" x1="178602" y1="123753" x2="163405" y2="79352.9" gradientUnits="userSpaceOnUse">
<stop/>
<stop offset="1" stop-color="#5E88F3"/>
</linearGradient>
</defs>
</svg>
