<svg width="29" height="22" viewBox="0 0 29 22" fill="none" xmlns="http://www.w3.org/2000/svg">
<path d="M0.00012207 14.1812C0.00012207 11.3705 0.703626 8.73868 2.11063 6.28572C3.56975 3.78165 5.54999 1.68641 8.05134 0L12.3505 3.37282C11.0477 4.03717 9.79707 5.08479 8.59851 6.51568C7.39994 7.94658 6.61827 9.32637 6.25349 10.6551C6.46194 10.5017 6.98305 10.4251 7.81683 10.4251C9.32806 10.4251 10.5787 10.9361 11.5689 11.9582C12.6111 12.9803 13.1322 14.3089 13.1322 15.9443C13.1322 17.5796 12.5069 19.0105 11.2562 20.2369C10.0576 21.4123 8.62456 22 6.957 22C5.02887 22 3.38736 21.3101 2.03247 19.9303C0.67757 18.4994 0.00012207 16.583 0.00012207 14.1812ZM15.9462 14.1812C15.9462 11.3705 16.6497 8.73868 18.0567 6.28572C19.5158 3.78165 21.47 1.68641 23.9193 0L28.2966 3.37282C26.9938 4.03717 25.7171 5.08479 24.4664 6.51568C23.2679 7.94658 22.5123 9.32637 22.1996 10.6551C22.408 10.5017 22.9291 10.4251 23.7629 10.4251C25.222 10.4251 26.4467 10.9361 27.4368 11.9582C28.479 12.9803 29.0001 14.3089 29.0001 15.9443C29.0001 17.5796 28.4008 19.0105 27.2023 20.2369C26.0037 21.4123 24.5446 22 22.8249 22C20.8968 22 19.2553 21.3101 17.9004 19.9303C16.5976 18.4994 15.9462 16.583 15.9462 14.1812Z" fill="#5E88F3"/>
</svg>
