<svg width="40" height="40" viewBox="0 0 40 40" fill="none" xmlns="http://www.w3.org/2000/svg">
<g clip-path="url(#clip0_1918_581)">
<path d="M10.7001 25.1745C11.0737 24.9591 11.2015 24.4809 10.9861 24.1073C10.7703 23.7341 10.2924 23.6059 9.91887 23.8214C9.54533 24.0371 9.41716 24.5154 9.63292 24.8886C9.84837 25.2621 10.3266 25.3903 10.7001 25.1745Z" fill="#7D97F4"/>
<path d="M7.49895 30.5668L11.4333 37.3817C12.2823 38.8538 14.1921 39.3989 15.7024 38.5258C17.1968 37.6621 17.7104 35.7526 16.8459 34.257L14.5021 30.1969L16.5319 29.025C16.9054 28.809 17.0336 28.3314 16.8178 27.9578L15.8019 26.1982C15.923 26.1747 16.7195 26.0184 30.7659 23.263C32.5023 23.1687 33.5427 21.2696 32.6656 19.7513L30.0691 15.2543L31.7284 12.7411C31.8913 12.494 31.9011 12.1763 31.7531 11.9199L30.1906 9.21362C30.0426 8.95728 29.7615 8.80713 29.467 8.82452L26.4614 9.00488L23.579 4.01221C23.1615 3.28894 22.4135 2.85101 21.5785 2.84064C21.5685 2.84033 21.5587 2.84033 21.5486 2.84033C20.7418 2.84033 20.0093 3.24194 19.5754 3.92096L9.36968 16.9221L2.73485 20.7526C0.125293 22.2587 -0.778638 25.6064 0.733203 28.223C2.11443 30.6156 5.02642 31.5568 7.49895 30.5668ZM15.493 35.0385C15.9246 35.785 15.6691 36.7402 14.9205 37.1726C14.1695 37.6069 13.2131 37.3401 12.7864 36.6007L8.88018 29.834L11.5865 28.2715C16.1074 36.103 15.4204 34.9131 15.493 35.0385ZM13.7209 28.8434L12.9396 27.4903L14.2928 26.709L15.074 28.0622L13.7209 28.8434ZM29.0788 10.413L30.1586 12.2831L29.1957 13.7412L27.3348 10.5176L29.0788 10.413ZM20.8821 4.77759C21.0918 4.43457 21.4244 4.39917 21.5593 4.40283C21.6927 4.40436 22.025 4.44586 22.2255 4.79315L31.3124 20.5326C31.6084 21.045 31.2486 21.6892 30.6551 21.7039C30.5486 21.7063 30.4994 21.7255 30.2266 21.7765L20.6145 5.12762C20.8162 4.86823 20.8422 4.8432 20.8821 4.77759ZM19.5748 6.45209L28.6058 22.0945L14.9761 24.7678L10.8318 17.5898L19.5748 6.45209ZM2.08635 27.4418C1.74334 26.8482 1.56206 26.1744 1.56206 25.4926C1.56206 24.0992 2.31096 22.8016 3.5161 22.1058L9.60527 18.5901L13.5115 25.3559L7.42235 28.8718C5.55681 29.9485 3.16332 29.307 2.08635 27.4418Z" fill="#7D97F4"/>
<path d="M8.27983 25.6698C8.06407 25.2962 7.58617 25.1681 7.21263 25.3838L5.85948 26.1651C5.48656 26.3805 5.00774 26.2521 4.79228 25.8791C4.57652 25.5056 4.09862 25.3774 3.72508 25.5932C3.35155 25.8089 3.22337 26.2868 3.43913 26.6604C4.08214 27.7743 5.51646 28.167 6.64073 27.5182L7.99388 26.737C8.36742 26.5212 8.49559 26.0436 8.27983 25.6698Z" fill="#7D97F4"/>
<path d="M38.8392 4.51144L34.4859 6.93392C34.109 7.14388 33.9732 7.61965 34.1832 7.99654C34.3925 8.37313 34.868 8.50954 35.2458 8.29928L39.5988 5.87679C39.976 5.66683 40.1115 5.19106 39.9016 4.81417C39.6919 4.43697 39.2161 4.30147 38.8392 4.51144Z" fill="#7D97F4"/>
<path d="M38.3822 12.6029L35.3637 11.7942C34.9468 11.6825 34.5183 11.9297 34.4066 12.3465C34.2949 12.7634 34.5424 13.1916 34.9593 13.3033L37.9781 14.112C38.3974 14.2246 38.8238 13.9734 38.9348 13.5596C39.0465 13.1427 38.799 12.7143 38.3822 12.6029Z" fill="#7D97F4"/>
<path d="M30.7972 1.67295L29.9876 4.69175C29.8759 5.10862 30.1231 5.53678 30.54 5.64878C30.9565 5.76017 31.385 5.51359 31.497 5.09642L32.3063 2.07761C32.418 1.66074 32.1708 1.23228 31.7539 1.12058C31.3374 1.00889 30.9089 1.25608 30.7972 1.67295Z" fill="#7D97F4"/>
</g>
<defs>
<clipPath id="clip0_1918_581">
<rect width="40" height="40" fill="white"/>
</clipPath>
</defs>
</svg>
