<svg width="580" height="580" viewBox="0 0 580 580" fill="none" xmlns="http://www.w3.org/2000/svg">
<path d="M580 443.584H0V443.874H580V443.584Z" fill="#EBEBEB"/>
<path d="M200.935 450.985H174.046V451.275H200.935V450.985Z" fill="#EBEBEB"/>
<path d="M532.173 457.202H466.436V457.492H532.173V457.202Z" fill="#EBEBEB"/>
<path d="M115.292 457.202H49.5552V457.492H115.292V457.202Z" fill="#EBEBEB"/>
<path d="M274.92 391.848H50.9356C49.1809 391.845 47.4992 391.146 46.2595 389.904C45.0199 388.662 44.3236 386.979 44.3236 385.224V70.3656C44.3389 68.621 45.0419 66.9528 46.2799 65.7235C47.5179 64.4942 49.1909 63.803 50.9356 63.8H274.92C276.677 63.8 278.361 64.4978 279.604 65.74C280.846 66.9822 281.544 68.6669 281.544 70.4236V385.224C281.544 386.981 280.846 388.666 279.604 389.908C278.361 391.15 276.677 391.848 274.92 391.848ZM50.9356 64.032C49.2578 64.0351 47.6498 64.7037 46.4646 65.8912C45.2793 67.0786 44.6136 68.6878 44.6136 70.3656V385.224C44.6136 386.902 45.2793 388.511 46.4646 389.699C47.6498 390.886 49.2578 391.555 50.9356 391.558H274.92C276.598 391.552 278.205 390.883 279.392 389.696C280.578 388.51 281.248 386.902 281.254 385.224V70.3656C281.248 68.6877 280.578 67.0803 279.392 65.8938C278.205 64.7074 276.598 64.0381 274.92 64.032H50.9356Z" fill="#EBEBEB"/>
<path d="M525.84 391.848H301.844C300.089 391.842 298.408 391.142 297.167 389.901C295.926 388.66 295.226 386.979 295.22 385.224V70.3656C295.238 68.6199 295.944 66.9518 297.184 65.7228C298.424 64.4938 300.098 63.8029 301.844 63.8H525.84C527.582 63.806 529.252 64.4986 530.488 65.7276C531.723 66.9566 532.425 68.623 532.44 70.3656V385.224C532.442 386.093 532.272 386.953 531.941 387.756C531.61 388.558 531.124 389.288 530.512 389.903C529.899 390.518 529.171 391.007 528.369 391.34C527.567 391.674 526.708 391.846 525.84 391.848ZM301.844 64.032C300.166 64.0381 298.558 64.7074 297.372 65.8938C296.185 67.0803 295.516 68.6877 295.51 70.3656V385.224C295.516 386.902 296.185 388.51 297.372 389.696C298.558 390.883 300.166 391.552 301.844 391.558H525.84C527.517 391.552 529.125 390.883 530.311 389.696C531.498 388.51 532.167 386.902 532.173 385.224V70.3656C532.167 68.6877 531.498 67.0803 530.311 65.8938C529.125 64.7074 527.517 64.0381 525.84 64.032H301.844Z" fill="#EBEBEB"/>
<path d="M365.481 351.515H338.697V444.21H365.481V351.515Z" fill="#E6E6E6"/>
<path d="M346.515 351.515H319.731V444.21H346.515V351.515Z" fill="#E6E6E6"/>
<path d="M341.434 444.21H346.515V429.734H336.087L341.434 444.21Z" fill="#F0F0F0"/>
<path d="M211.874 351.515H185.09V444.21H211.874V351.515Z" fill="#E6E6E6"/>
<path d="M346.527 351.515H207.443V437.088H346.527V351.515Z" fill="#F0F0F0"/>
<path d="M337.862 417.832H283.342C281.938 417.826 280.593 417.265 279.6 416.273C278.607 415.28 278.047 413.935 278.04 412.531V360.435C278.044 359.031 278.603 357.686 279.597 356.694C280.591 355.703 281.938 355.146 283.342 355.146H337.804C339.208 355.146 340.554 355.703 341.548 356.694C342.542 357.686 343.102 359.031 343.105 360.435V412.531C343.099 413.925 342.546 415.261 341.566 416.252C340.586 417.244 339.256 417.811 337.862 417.832ZM283.342 356.352C282.25 356.352 281.204 356.784 280.43 357.553C279.656 358.323 279.218 359.367 279.212 360.458V412.554C279.206 413.096 279.307 413.635 279.509 414.138C279.71 414.641 280.01 415.1 280.389 415.488C280.768 415.875 281.22 416.185 281.718 416.398C282.217 416.611 282.753 416.724 283.295 416.73H337.815C338.909 416.736 339.96 416.309 340.738 415.541C341.517 414.773 341.959 413.728 341.968 412.635V360.435C341.968 359.895 341.861 359.36 341.654 358.861C341.447 358.362 341.144 357.909 340.761 357.527C340.379 357.146 339.925 356.844 339.425 356.638C338.926 356.432 338.39 356.327 337.85 356.329L283.342 356.352Z" fill="#E0E0E0"/>
<path d="M270.558 417.832H216.038C214.634 417.826 213.289 417.265 212.297 416.273C211.304 415.28 210.743 413.935 210.737 412.531V360.435C210.74 359.031 211.3 357.686 212.294 356.694C213.288 355.703 214.634 355.146 216.038 355.146H270.558C271.962 355.146 273.309 355.703 274.303 356.694C275.297 357.686 275.857 359.031 275.86 360.435V412.531C275.857 413.936 275.297 415.282 274.304 416.276C273.31 417.269 271.963 417.829 270.558 417.832ZM216.038 356.352C215.498 356.35 214.963 356.456 214.463 356.661C213.964 356.867 213.51 357.169 213.127 357.551C212.745 357.932 212.441 358.385 212.234 358.884C212.027 359.383 211.92 359.918 211.92 360.458V412.554C211.92 413.095 212.027 413.63 212.234 414.13C212.441 414.629 212.744 415.083 213.127 415.466C213.509 415.848 213.963 416.152 214.462 416.359C214.962 416.565 215.498 416.672 216.038 416.672H270.558C271.651 416.669 272.698 416.234 273.471 415.463C274.244 414.692 274.682 413.646 274.688 412.554V360.435C274.682 359.344 274.244 358.3 273.47 357.53C272.697 356.761 271.65 356.329 270.558 356.329L216.038 356.352Z" fill="#E0E0E0"/>
<path d="M265.501 371.606C264.489 371.606 263.501 371.306 262.66 370.745C261.819 370.183 261.163 369.385 260.776 368.451C260.388 367.517 260.286 366.489 260.483 365.497C260.679 364.505 261.165 363.593 261.879 362.877C262.594 362.161 263.504 361.673 264.496 361.475C265.487 361.276 266.515 361.375 267.45 361.761C268.385 362.146 269.185 362.8 269.749 363.64C270.312 364.48 270.614 365.468 270.616 366.479C270.616 367.837 270.078 369.139 269.119 370.1C268.16 371.061 266.859 371.603 265.501 371.606Z" fill="#FAFAFA"/>
<path d="M288.446 371.606C287.434 371.613 286.443 371.32 285.598 370.763C284.753 370.207 284.092 369.412 283.698 368.48C283.305 367.548 283.196 366.52 283.387 365.527C283.577 364.533 284.058 363.618 284.769 362.898C285.48 362.178 286.388 361.684 287.379 361.48C288.37 361.276 289.399 361.37 290.336 361.751C291.274 362.132 292.077 362.782 292.645 363.619C293.213 364.457 293.519 365.444 293.526 366.456V366.56C293.511 367.9 292.97 369.179 292.019 370.123C291.069 371.068 289.785 371.6 288.446 371.606Z" fill="#FAFAFA"/>
<path d="M212.524 444.21H207.431V429.734H217.86L212.524 444.21Z" fill="#F0F0F0"/>
<path d="M203.348 351.515H176.564V444.21H203.348V351.515Z" fill="#E6E6E6"/>
<path d="M198.256 444.21H203.348V429.734H192.92L198.256 444.21Z" fill="#F0F0F0"/>
<path d="M203.348 351.515H64.264V437.088H203.348V351.515Z" fill="#F0F0F0"/>
<path d="M194.683 417.832H140.163C138.757 417.832 137.408 417.273 136.414 416.279C135.42 415.285 134.862 413.937 134.862 412.531V360.435C134.865 359.031 135.425 357.686 136.418 356.694C137.412 355.703 138.759 355.146 140.163 355.146H194.625C196.029 355.146 197.375 355.703 198.369 356.694C199.363 357.686 199.923 359.031 199.926 360.435V412.531C199.926 413.927 199.376 415.266 198.394 416.259C197.412 417.251 196.079 417.817 194.683 417.832ZM140.163 356.352C139.623 356.35 139.087 356.456 138.588 356.661C138.088 356.867 137.634 357.169 137.252 357.551C136.869 357.932 136.566 358.385 136.358 358.884C136.151 359.383 136.045 359.918 136.045 360.458V412.554C136.039 413.096 136.139 413.635 136.341 414.138C136.543 414.641 136.842 415.1 137.221 415.488C137.601 415.875 138.052 416.185 138.551 416.398C139.05 416.611 139.586 416.724 140.128 416.73H194.648C195.742 416.736 196.795 416.309 197.575 415.542C198.355 414.774 198.8 413.729 198.812 412.635V360.435C198.806 359.346 198.37 358.303 197.599 357.534C196.827 356.765 195.784 356.332 194.694 356.329L140.163 356.352Z" fill="#E0E0E0"/>
<path d="M127.38 417.832H72.9292C71.5232 417.832 70.1748 417.273 69.1807 416.279C68.1865 415.285 67.628 413.937 67.628 412.531V360.435C67.628 359.74 67.7652 359.051 68.0317 358.408C68.2983 357.766 68.689 357.182 69.1814 356.691C69.6738 356.199 70.2583 355.81 70.9014 355.545C71.5445 355.28 72.2336 355.144 72.9292 355.146H127.38C128.075 355.144 128.764 355.28 129.407 355.545C130.05 355.81 130.635 356.199 131.127 356.691C131.62 357.182 132.01 357.766 132.277 358.408C132.544 359.051 132.681 359.74 132.681 360.435V412.531C132.678 413.936 132.118 415.282 131.125 416.276C130.131 417.269 128.785 417.829 127.38 417.832ZM72.9292 356.352C72.388 356.349 71.8515 356.453 71.3506 356.658C70.8497 356.863 70.3943 357.165 70.0105 357.547C69.6267 357.928 69.3222 358.382 69.1144 358.882C68.9066 359.381 68.7996 359.917 68.7996 360.458V412.554C68.7935 413.096 68.8942 413.635 69.0961 414.138C69.298 414.641 69.5971 415.1 69.9762 415.488C70.3554 415.876 70.8072 416.185 71.306 416.398C71.8047 416.611 72.3405 416.724 72.8828 416.73H127.403C127.945 416.732 128.481 416.626 128.982 416.42C129.483 416.214 129.939 415.911 130.322 415.528C130.706 415.145 131.01 414.691 131.218 414.191C131.425 413.69 131.532 413.154 131.532 412.612V360.412C131.532 359.871 131.425 359.335 131.218 358.835C131.01 358.335 130.705 357.882 130.321 357.5C129.938 357.119 129.482 356.817 128.981 356.612C128.48 356.407 127.944 356.303 127.403 356.306L72.9292 356.352Z" fill="#E0E0E0"/>
<path d="M122.334 371.606C121.322 371.608 120.332 371.311 119.49 370.75C118.647 370.19 117.99 369.393 117.6 368.459C117.211 367.525 117.107 366.497 117.302 365.504C117.498 364.511 117.983 363.598 118.697 362.881C119.41 362.164 120.321 361.675 121.313 361.475C122.305 361.276 123.333 361.375 124.269 361.76C125.205 362.145 126.005 362.799 126.569 363.639C127.133 364.479 127.435 365.467 127.438 366.479C127.441 367.151 127.311 367.817 127.056 368.439C126.801 369.061 126.425 369.626 125.951 370.103C125.477 370.579 124.913 370.957 124.292 371.215C123.671 371.473 123.006 371.606 122.334 371.606Z" fill="#FAFAFA"/>
<path d="M145.278 371.606C144.267 371.613 143.276 371.32 142.431 370.763C141.585 370.207 140.924 369.412 140.531 368.48C140.137 367.548 140.029 366.52 140.22 365.527C140.41 364.533 140.891 363.618 141.602 362.898C142.312 362.178 143.221 361.684 144.212 361.48C145.202 361.276 146.232 361.37 147.169 361.751C148.106 362.132 148.91 362.782 149.478 363.619C150.045 364.457 150.352 365.444 150.359 366.456V366.56C150.344 367.9 149.803 369.179 148.852 370.123C147.902 371.068 146.618 371.6 145.278 371.606Z" fill="#FAFAFA"/>
<path d="M69.3448 444.21H64.264V429.734H74.6808L69.3448 444.21Z" fill="#F0F0F0"/>
<path d="M310.045 94.5632H260.211V144.397H310.045V94.5632Z" fill="#EBEBEB"/>
<path d="M312.26 94.5748H310.056V144.408H312.26V94.5748Z" fill="#E0E0E0"/>
<path d="M303.305 101.326H266.974V137.657H303.305V101.326Z" fill="white"/>
<path d="M291.218 125.558C290.42 126.358 289.471 126.993 288.427 127.426C287.383 127.859 286.264 128.082 285.134 128.082C284.004 128.082 282.884 127.859 281.84 127.426C280.796 126.993 279.848 126.358 279.05 125.558C277.44 123.945 276.536 121.759 276.536 119.48C276.536 117.201 277.44 115.015 279.05 113.402C280.665 111.791 282.853 110.887 285.134 110.887C287.415 110.887 289.603 111.791 291.218 113.402C292.827 115.015 293.731 117.201 293.731 119.48C293.731 121.759 292.827 123.945 291.218 125.558Z" fill="#F5F5F5"/>
<path d="M261.232 158.642H202.803V217.071H261.232V158.642Z" fill="#EBEBEB"/>
<path d="M263.819 158.653H261.232V217.082H263.819V158.653Z" fill="#E0E0E0"/>
<path d="M253.321 166.564H210.726V209.16H253.321V166.564Z" fill="white"/>
<path d="M241.094 178.768H222.929V196.933H241.094V178.768Z" fill="#F5F5F5"/>
<path d="M522.58 139.85H490.947V147.239H522.58V139.85Z" fill="#E6E6E6"/>
<path d="M490.947 139.85H360.006V147.239H490.947V139.85Z" fill="#F5F5F5"/>
<path d="M434.408 100.618H397.544V139.861H434.408V100.618Z" fill="#E0E0E0"/>
<path d="M397.544 100.618H388.101V139.861H397.544V100.618Z" fill="#F0F0F0"/>
<path d="M444.071 94.5632H416.382V139.85H444.071V94.5632Z" fill="#E6E6E6"/>
<path d="M416.394 94.5632H408.39V139.85H416.394V94.5632Z" fill="#F0F0F0"/>
<path d="M447.899 100.618H424.548V139.861H447.899V100.618Z" fill="#F0F0F0"/>
<path d="M424.548 100.618H419.212V139.861H424.548V100.618Z" fill="#FAFAFA"/>
<path d="M474.278 107.254H443.654V139.85H474.278V107.254Z" fill="#E6E6E6"/>
<path d="M443.654 107.254H435.812V139.85H443.654V107.254Z" fill="#FAFAFA"/>
<path d="M482.305 102.231H459.302V139.861H482.305V102.231Z" fill="#E6E6E6"/>
<path d="M459.302 102.231H452.655V139.861H459.302V102.231Z" fill="#F0F0F0"/>
<path d="M488.418 107.254H466.076V139.85H488.418V107.254Z" fill="#F0F0F0"/>
<path d="M466.076 107.254H461.645V139.85H466.076V107.254Z" fill="#FAFAFA"/>
<path d="M472.224 358.927C482.131 345.982 505.714 341.168 513.868 333.001C524.54 322.294 524.494 306.228 515.4 300.428C507.512 295.394 481.342 329.428 478.407 333.256C468.257 346.353 465.322 356.062 463.42 365.47C463.64 357.477 463.849 350.123 464.023 344.462C464.568 325.983 465.253 320.032 465.578 318.211C466.738 317.306 467.967 316.274 468.71 315.717C475.043 310.996 489.079 305.37 496.097 298.514C506.352 288.492 504.693 276.474 497.501 272.032C489.996 267.392 476.702 278.4 469.661 289.339C462.62 300.278 465.624 310.764 463.652 319.777C463.234 321.564 462.805 328.326 462.411 337.711C460.741 328.463 455.625 320.193 448.096 314.569C438.387 306.82 430 297.378 421.996 298.596C413.992 299.814 418.342 312.307 424.63 321.076C430.267 328.883 458.096 336.678 462.19 342.954C461.703 355.714 461.274 371.78 460.972 386.79C458.78 379.042 460.288 378.392 451.298 366.49C445.962 359.438 424.038 350.714 421.44 355.586C418.841 360.458 422.797 369.599 431.068 376.014C437.738 381.188 452.481 381.176 455.973 384.389C456.773 385.132 459.453 388.008 460.914 389.667C460.555 407.972 460.404 424.131 460.578 429.652L462.016 429.71C461.947 428.284 462.109 418.969 462.399 406.638C465.995 400.084 490.239 396.198 497.675 389.424C505.493 382.29 511.108 373.961 507.755 368.381C504.96 363.741 482.954 370.052 473.941 377.754C467.979 382.881 464.336 388.368 462.666 395.722C462.863 387.324 463.107 378.322 463.327 369.796C465.16 367.72 469.255 362.813 472.224 358.927Z" fill="#E6E6E6"/>
<path d="M474.336 443.967H449.21C447.83 443.967 446.646 442.18 446.38 439.698L444.593 423.458H478.941L477.166 439.698C476.876 442.18 475.704 443.967 474.336 443.967Z" fill="#F0F0F0"/>
<path d="M479.66 429.734H443.874C443.016 429.734 442.296 428.574 442.204 426.973L441.473 414.955C441.357 413.111 442.134 411.475 443.143 411.475H480.402C481.4 411.475 482.177 413.088 482.061 414.955L481.33 426.973C481.249 428.55 480.518 429.734 479.66 429.734Z" fill="#F0F0F0"/>
<path d="M290 495.97C414.216 495.97 514.912 490.091 514.912 482.838C514.912 475.586 414.216 469.707 290 469.707C165.784 469.707 65.0876 475.586 65.0876 482.838C65.0876 490.091 165.784 495.97 290 495.97Z" fill="#F5F5F5"/>
<path d="M248.808 180.589C246.245 186.818 231.153 186.389 215.342 179.87C199.532 173.35 188.778 163.015 191.342 156.786C191.945 155.347 193.662 149.953 195.379 149.211C201.272 146.717 212.489 152.32 224.634 157.331C235.944 161.971 248.878 164.998 250.885 171.135C252.091 174.87 249.539 178.814 248.808 180.589Z" fill="url(#paint0_linear_1918_2147)"/>
<path opacity="0.2" d="M250.885 171.135C251.848 176.018 249.725 178.362 248.808 180.589C247.892 182.816 245.212 184.278 241.466 184.788C240.997 184.868 240.525 184.922 240.05 184.95C237.177 185.119 234.294 184.968 231.455 184.498C231.049 184.498 230.643 184.37 230.225 184.301C226.892 183.703 223.608 182.857 220.4 181.772L219.24 181.378C217.952 180.925 216.63 180.426 215.308 179.881C213.985 179.336 212.732 178.721 211.491 178.176L210.424 177.666C207.5 176.22 204.682 174.568 201.991 172.724L201.04 172.051C198.691 170.391 196.538 168.468 194.625 166.321C194.335 165.996 194.068 165.683 193.813 165.358C191.319 162.203 190.333 159.187 191.319 156.786C191.968 155.243 193.36 149.965 195.356 149.199C197.81 148.508 200.407 148.508 202.861 149.199L204.021 149.478C209.821 150.962 217.129 154.268 224.588 157.342C233.38 160.973 243.786 164.743 248.89 169.093C249.193 169.349 249.484 169.62 249.76 169.905C250.167 170.284 250.543 170.696 250.885 171.135Z" fill="black"/>
<g opacity="0.2">
<path opacity="0.2" d="M204.601 148.48L204.067 149.454L194.648 166.309C194.358 165.984 194.091 165.671 193.836 165.346L202.884 149.176L203.592 147.923L204.601 148.48Z" fill="black"/>
</g>
<g opacity="0.2">
<path opacity="0.2" d="M211.723 155.359L202.014 172.759L201.063 172.086L210.714 154.825L211.723 155.359Z" fill="black"/>
</g>
<g opacity="0.2">
<path opacity="0.2" d="M229.576 165.335L220.4 181.772L219.24 181.378L228.52 164.72L229.576 165.335Z" fill="black"/>
</g>
<g opacity="0.2">
<path opacity="0.2" d="M221.27 160.695L211.514 178.176L210.447 177.666L220.261 160.08L221.27 160.695Z" fill="black"/>
</g>
<g opacity="0.2">
<path opacity="0.2" d="M240.398 168.513L231.455 184.498C231.049 184.498 230.643 184.37 230.225 184.301L239.378 167.933L240.398 168.513Z" fill="black"/>
</g>
<path d="M250.815 175.16C248.252 181.389 233.346 181.146 217.523 174.615C201.701 168.084 190.959 157.76 193.534 151.531C196.11 145.302 211.004 145.557 226.826 152.076C242.649 158.595 253.379 168.896 250.815 175.16Z" fill="url(#paint1_linear_1918_2147)"/>
<path opacity="0.2" d="M245.433 172.898C243.623 177.294 232 176.68 219.484 171.518C206.967 166.356 198.29 158.595 200.1 154.199C201.91 149.802 213.533 150.417 226.061 155.579C238.589 160.741 247.254 168.502 245.433 172.898Z" fill="white"/>
<path d="M328.756 124.282C332.885 129.607 325.02 142.494 311.483 152.969C297.946 163.444 283.643 167.62 279.525 162.249C278.574 161.02 274.723 156.902 274.955 154.976C275.732 148.631 286.16 141.694 296.554 133.644C306.228 126.15 315.265 116.429 321.587 117.74C325.426 118.587 327.584 122.774 328.756 124.282Z" fill="url(#paint2_linear_1918_2147)"/>
<path opacity="0.2" d="M321.587 117.786C326.308 119.387 327.282 122.426 328.756 124.282C330.229 126.138 330.171 129.236 328.756 132.75C328.593 133.18 328.396 133.609 328.187 134.05C326.916 136.628 325.36 139.056 323.547 141.288C323.304 141.613 323.037 141.926 322.77 142.251C320.588 144.853 318.215 147.288 315.671 149.536L314.778 150.313C313.745 151.206 312.655 152.099 311.53 152.969C310.404 153.839 309.279 154.663 308.142 155.44C307.829 155.672 307.493 155.892 307.18 156.113C304.469 157.931 301.632 159.551 298.688 160.962C298.329 161.147 297.981 161.298 297.644 161.46C295.029 162.67 292.286 163.581 289.466 164.175C289.049 164.268 288.643 164.337 288.237 164.395C284.258 164.987 281.149 164.395 279.56 162.296C278.539 160.973 274.653 157.134 274.99 155.034C275.596 152.552 276.886 150.29 278.713 148.503C278.968 148.213 279.247 147.923 279.537 147.622C283.724 143.283 290.209 138.632 296.589 133.702C304.117 127.902 312.562 120.721 318.861 118.471C319.241 118.331 319.628 118.211 320.021 118.111C320.534 117.965 321.058 117.856 321.587 117.786Z" fill="black"/>
<g opacity="0.2">
<path opacity="0.2" d="M278.922 146.67L279.502 147.622L289.432 164.175C289.014 164.268 288.608 164.337 288.202 164.395L278.678 148.48L277.936 147.32L278.922 146.67Z" fill="black"/>
</g>
<g opacity="0.2">
<path opacity="0.2" d="M288.422 143.91L298.653 160.962C298.294 161.147 297.946 161.298 297.609 161.46L287.425 144.501L288.422 143.91Z" fill="black"/>
</g>
<g opacity="0.2">
<path opacity="0.2" d="M305.95 133.4L315.636 149.547L314.743 150.324L304.952 133.992L305.95 133.4Z" fill="black"/>
</g>
<g opacity="0.2">
<path opacity="0.2" d="M297.807 138.284L308.107 155.44C307.794 155.672 307.458 155.892 307.145 156.113L296.797 138.875L297.807 138.284Z" fill="black"/>
</g>
<g opacity="0.2">
<path opacity="0.2" d="M314.093 125.57L323.512 141.288C323.269 141.613 323.002 141.926 322.735 142.251L313.096 126.173L314.093 125.57Z" fill="black"/>
</g>
<path d="M307.971 148.417C321.5 137.938 329.124 125.129 325.001 119.805C320.878 114.482 306.568 118.661 293.04 129.14C279.512 139.618 271.887 152.428 276.011 157.751C280.134 163.074 294.443 158.895 307.971 148.417Z" fill="url(#paint3_linear_1918_2147)"/>
<path opacity="0.2" d="M306.293 145.188C317.001 136.895 323.318 127.121 320.403 123.358C317.488 119.595 306.445 123.267 295.738 131.56C285.031 139.854 278.714 149.628 281.629 153.391C284.544 157.154 295.586 153.482 306.293 145.188Z" fill="white"/>
<path d="M272.762 99.3424C271.44 106.975 254.318 110.2 234.923 106.72C215.528 103.24 200.9 94.2732 202.257 86.6404C202.571 84.8656 203.116 78.4044 204.937 77.1168C210.957 72.8712 224.947 76.4208 239.841 79.0656C253.761 81.5364 268.992 81.7336 272.762 88.1484C275.047 92.0924 273.145 97.1616 272.762 99.3424Z" fill="url(#paint4_linear_1918_2147)"/>
<path opacity="0.2" d="M272.762 88.16C275.082 93.4264 273.238 96.57 272.762 99.3076C272.287 102.045 269.63 104.33 265.547 105.838C265.048 106.036 264.526 106.198 263.993 106.36C260.799 107.258 257.515 107.799 254.202 107.973C253.727 107.973 253.263 107.973 252.776 108.054C248.873 108.198 244.965 108.054 241.083 107.625L239.726 107.451C238.16 107.254 236.547 107.022 234.935 106.732C233.322 106.442 231.756 106.117 230.214 105.757C229.773 105.664 229.332 105.548 228.891 105.444C225.247 104.544 221.672 103.381 218.196 101.964C217.767 101.802 217.361 101.616 216.955 101.454C213.904 100.155 211.009 98.5167 208.324 96.57C207.918 96.28 207.547 95.99 207.164 95.6884C203.568 92.7536 201.724 89.5984 202.246 86.6636C202.594 84.7612 202.872 78.5436 204.914 77.14C206.956 75.7364 209.879 75.2956 213.359 75.284H214.751C221.711 75.516 230.678 77.4532 239.83 79.0772C250.618 81.0028 263.25 82.6848 270.048 86.3272C270.447 86.5385 270.834 86.7708 271.208 87.0232C271.755 87.3611 272.275 87.7412 272.762 88.16Z" fill="black"/>
<g opacity="0.2">
<path opacity="0.2" d="M215.134 74.1008L214.762 75.3188L208.313 96.5932C207.907 96.3032 207.536 96.0132 207.153 95.7116L213.347 75.3072L213.834 73.718L215.134 74.1008Z" fill="black"/>
</g>
<g opacity="0.2">
<path opacity="0.2" d="M224.831 80.04L218.184 101.952C217.755 101.79 217.349 101.604 216.943 101.442L223.555 79.634L224.831 80.04Z" fill="black"/>
</g>
<g opacity="0.2">
<path opacity="0.2" d="M247.37 86.9072L241.071 107.66L239.714 107.486L246.082 86.5128L247.37 86.9072Z" fill="black"/>
</g>
<g opacity="0.2">
<path opacity="0.2" d="M236.895 83.7288L230.202 105.769C229.761 105.676 229.32 105.56 228.88 105.456L235.608 83.3112L236.895 83.7288Z" fill="black"/>
</g>
<g opacity="0.2">
<path opacity="0.2" d="M260.327 87.812L254.191 108.008C253.715 108.008 253.251 108.008 252.764 108.089L259.039 87.4292L260.327 87.812Z" fill="black"/>
</g>
<path d="M273.666 92.6782C275.024 85.0462 260.397 76.0605 240.995 72.608C221.593 69.1556 204.764 72.5438 203.406 80.1757C202.048 87.8077 216.675 96.7934 236.077 100.246C255.479 103.698 272.308 100.31 273.666 92.6782Z" fill="url(#paint5_linear_1918_2147)"/>
<path opacity="0.2" d="M267.063 91.5116C268.023 86.1187 256.355 79.5323 241.003 76.8004C225.651 74.0685 212.427 76.2257 211.468 81.6185C210.508 87.0114 222.175 93.5977 237.528 96.3296C252.88 99.0615 266.103 96.9044 267.063 91.5116Z" fill="white"/>
<path d="M374.03 294.211L254.655 301.171C250.438 301.419 246.3 302.425 242.44 304.14L112.775 362.14C110.5 363.141 108.637 364.891 107.497 367.099C106.357 369.308 106.009 371.84 106.511 374.274L127.936 475.6C128.299 477.232 129.029 478.759 130.072 480.065C131.115 481.371 132.443 482.421 133.954 483.135C135.465 483.849 137.12 484.209 138.791 484.185C140.462 484.162 142.106 483.757 143.596 483.001L271.579 419.108L389.76 415.152C391.214 415.114 392.644 414.765 393.953 414.131C395.262 413.497 396.421 412.591 397.353 411.474C398.285 410.356 398.968 409.053 399.357 407.652C399.746 406.25 399.831 404.781 399.608 403.344L383.798 306.321C382.974 301.31 379.169 294.06 374.03 294.211Z" fill="url(#paint6_linear_1918_2147)"/>
<path opacity="0.1" d="M374.03 294.211L254.655 301.171C250.438 301.419 246.3 302.425 242.44 304.14L112.775 362.14C110.5 363.141 108.637 364.891 107.497 367.099C106.357 369.308 106.009 371.84 106.511 374.274L127.936 475.6C128.299 477.232 129.029 478.759 130.072 480.065C131.115 481.371 132.443 482.421 133.954 483.135C135.465 483.849 137.12 484.209 138.791 484.185C140.462 484.162 142.106 483.757 143.596 483.001L271.579 419.108L389.76 415.152C391.214 415.114 392.644 414.765 393.953 414.131C395.262 413.497 396.421 412.591 397.353 411.474C398.285 410.356 398.968 409.053 399.357 407.652C399.746 406.25 399.831 404.781 399.608 403.344L383.798 306.321C382.974 301.31 379.169 294.06 374.03 294.211Z" fill="black"/>
<path d="M134.42 228.235L71.7731 285.983L184.194 407.941L246.841 350.193L134.42 228.235Z" fill="url(#paint7_linear_1918_2147)"/>
<path opacity="0.5" d="M246.825 350.204L184.173 407.949L71.7692 285.998L112.88 248.101L134.421 228.242L138.005 232.139L246.825 350.204Z" fill="#FAFAFA"/>
<path d="M134.822 235.691L79.5447 286.646L184.701 400.723L239.979 349.768L134.822 235.691Z" stroke="url(#paint8_linear_1918_2147)" stroke-miterlimit="10"/>
<path d="M172.2 331.713C178.54 325.868 177.738 314.684 170.409 306.733C163.079 298.782 151.997 297.074 145.657 302.918C139.317 308.763 140.119 319.947 147.448 327.898C154.778 335.849 165.859 337.557 172.2 331.713Z" fill="url(#paint9_linear_1918_2147)"/>
<path opacity="0.1" d="M183.512 358.452L161.252 366.142L112.88 248.101L134.421 228.242L138.005 232.139L183.512 358.452Z" fill="black"/>
<path d="M187.849 180.455L107.75 209.498L164.29 365.433L244.389 336.39L187.849 180.455Z" fill="url(#paint10_linear_1918_2147)"/>
<path opacity="0.5" d="M187.849 180.455L107.75 209.498L164.29 365.433L244.389 336.39L187.849 180.455Z" fill="#FAFAFA"/>
<path d="M185.331 187.487L114.654 213.114L167.541 358.972L238.218 333.345L185.331 187.487Z" stroke="url(#paint11_linear_1918_2147)" stroke-miterlimit="10"/>
<path d="M182.701 290.484C190.808 287.545 194.392 276.92 190.705 266.754C187.019 256.587 177.459 250.728 169.352 253.668C161.246 256.607 157.662 267.232 161.348 277.398C165.035 287.565 174.595 293.423 182.701 290.484Z" fill="url(#paint12_linear_1918_2147)"/>
<path d="M374.808 298.329L257.068 304.964C252.894 305.193 248.799 306.196 244.992 307.922L117.23 365.597C114.979 366.614 113.143 368.369 112.025 370.571C110.907 372.773 110.575 375.291 111.082 377.708L132.507 479.08C132.852 480.702 133.564 482.223 134.589 483.526C135.614 484.829 136.923 485.88 138.418 486.598C139.912 487.316 141.551 487.682 143.209 487.668C144.867 487.654 146.499 487.259 147.981 486.516L274.073 422.982L390.63 419.294C392.073 419.248 393.49 418.895 394.785 418.258C396.081 417.622 397.226 416.716 398.144 415.602C399.062 414.487 399.731 413.19 400.108 411.796C400.484 410.403 400.559 408.945 400.328 407.52L384.47 310.509C383.647 305.451 379.888 298.19 374.808 298.329Z" fill="url(#paint13_linear_1918_2147)"/>
<path opacity="0.2" d="M261.858 322.712L362.883 316.494" stroke="black" stroke-width="2" stroke-linecap="round" stroke-linejoin="round"/>
<path opacity="0.2" d="M249.76 325.322L268.215 410.095" stroke="black" stroke-width="2" stroke-linecap="round" stroke-linejoin="round"/>
<path opacity="0.2" d="M126.707 401.859L139.722 467.062C139.722 467.062 149.698 441.194 126.707 401.859Z" fill="#FAFAFA"/>
<path opacity="0.2" d="M128.412 402.624C128.864 403.784 244.018 354.368 244.018 354.368C244.33 365.572 241.528 376.642 235.926 386.349C230.323 396.056 222.137 404.019 212.28 409.352C177.619 428.782 128.412 402.624 128.412 402.624Z" fill="#FAFAFA"/>
<path d="M204.902 404.55C207.657 404.55 209.89 402.317 209.89 399.562C209.89 396.807 207.657 394.574 204.902 394.574C202.148 394.574 199.914 396.807 199.914 399.562C199.914 402.317 202.148 404.55 204.902 404.55Z" fill="url(#paint14_linear_1918_2147)"/>
<path opacity="0.2" d="M244.076 354.368C244.076 354.368 258.355 375.863 254.898 412.473L244.076 354.368Z" fill="black"/>
<g opacity="0.2">
<path opacity="0.2" d="M121.197 376.246L123.853 375.074" stroke="#FAFAFA" stroke-linecap="round" stroke-linejoin="round"/>
<path opacity="0.2" d="M129.363 372.638L236.895 325.102" stroke="#FAFAFA" stroke-linecap="round" stroke-linejoin="round" stroke-dasharray="5.2 5.2"/>
<path opacity="0.2" d="M239.656 323.884L242.301 322.712" stroke="#FAFAFA" stroke-linecap="round" stroke-linejoin="round"/>
</g>
<path opacity="0.2" d="M265.246 341.771L366.27 335.542" stroke="black" stroke-width="2" stroke-linecap="round" stroke-linejoin="round"/>
<path opacity="0.2" d="M269.793 365.539L370.817 359.31" stroke="black" stroke-width="2" stroke-linecap="round" stroke-linejoin="round"/>
<path d="M348.673 196.69C348.673 196.69 346.132 223.752 336.075 226.084C329.847 227.429 323.354 226.78 317.515 224.228L309.337 217.941L305.347 231.861C305.347 231.861 309.708 237.788 318.814 233.682C318.814 233.682 335.054 240.828 344.033 233.682C353.011 226.536 355.888 206.932 355.888 206.932L348.673 196.69Z" fill="url(#paint15_linear_1918_2147)"/>
<path d="M356.758 183.582C356.758 183.582 349.74 171.622 352.93 149.942C356.12 128.261 374.297 125.582 381.315 127.148C388.333 128.714 394.075 135.453 398.855 148.283C403.634 161.112 405.397 164.453 413.366 162.203C421.335 159.952 442.54 152.923 448.445 159.175C450.143 160.883 451.394 162.983 452.088 165.289C452.782 167.596 452.897 170.038 452.423 172.399C452.423 172.399 481.922 165.23 479.37 191.539C476.818 217.848 434.246 242.405 393.751 216.41C353.255 190.414 356.758 183.582 356.758 183.582Z" fill="#263238"/>
<path d="M356.433 247.254C356.433 247.254 348.418 316.193 348.684 348.522C348.951 380.851 360.435 457.04 360.435 457.04H374.599C374.599 457.04 372.731 396.117 372.998 375.272C373.265 354.426 377 319.94 377 319.94C377 319.94 381.536 350.935 386.883 361.885C392.231 372.836 421.892 411.591 442.471 423.62L452.087 414.793C452.087 414.793 430.708 388.345 422.693 375.248C414.677 362.152 407.473 358.44 404.527 334.08C401.581 309.72 406.673 270.756 398.124 247.242L356.433 247.254Z" fill="#263238"/>
<path opacity="0.2" d="M377 319.94L370.841 276.242C370.841 276.242 365.98 302.505 375.55 334.579L377 319.94Z" fill="black"/>
<path d="M363.347 460.903L363.822 474.44L373.323 475.229L373.798 473.964V459.952L363.347 460.903Z" fill="url(#paint16_linear_1918_2147)"/>
<path d="M358.835 455.752L359.705 460.822L376.014 461.216L377.047 455.126L358.835 455.752Z" fill="url(#paint17_linear_1918_2147)"/>
<path d="M438.005 424.56L453.119 410.478L456.449 415.779L443.468 427.657L438.005 424.56Z" fill="url(#paint18_linear_1918_2147)"/>
<path d="M445.289 424.56L455.265 432.958L461.668 425.43L453.479 416.962L445.289 424.56Z" fill="url(#paint19_linear_1918_2147)"/>
<path d="M463.606 424.85L469.638 428.562C469.913 428.731 470.147 428.959 470.325 429.228C470.503 429.498 470.619 429.803 470.667 430.122C470.714 430.441 470.692 430.767 470.6 431.077C470.508 431.387 470.35 431.672 470.137 431.914C465.763 436.856 454.592 449.407 453.479 450.289C452.099 451.449 450.428 449.5 449.999 447.76C449.999 447.76 453.166 443.561 453.479 440.87C453.611 438.791 453.611 436.707 453.479 434.629C453.454 434.109 453.629 433.599 453.966 433.202L460.706 425.291C461.054 424.879 461.54 424.607 462.073 424.526C462.606 424.444 463.151 424.56 463.606 424.85Z" fill="#263238"/>
<path d="M375.643 475.6L376.896 482.56C376.953 482.878 376.94 483.205 376.858 483.518C376.776 483.831 376.626 484.122 376.419 484.371C376.213 484.619 375.954 484.82 375.662 484.958C375.369 485.096 375.05 485.168 374.726 485.17C368.126 485.17 351.329 485.24 349.926 485.008C348.174 484.718 348.487 482.212 349.52 480.75C349.52 480.75 354.751 480.31 356.944 478.72C358.574 477.441 360.124 476.062 361.584 474.591C361.957 474.226 362.454 474.014 362.976 473.999L373.358 473.756C373.897 473.736 374.425 473.912 374.845 474.251C375.265 474.59 375.548 475.069 375.643 475.6Z" fill="#263238"/>
<path d="M399.643 209.02L414.12 198.859C414.12 198.859 410.269 183.454 404.562 182.688C398.855 181.923 370.527 176.529 352.513 182.688C352.513 182.688 346.04 184.533 344.045 202.71L351.747 205.169C351.747 205.169 354.508 239.204 356.213 244.447H397.323C397.323 244.447 397.787 215.18 399.643 209.02Z" fill="url(#paint20_linear_1918_2147)"/>
<path d="M402.764 206.828C402.764 206.828 408.25 222.488 409.225 230.91C409.225 230.91 396.186 225.713 392.822 223.335L390.27 214.171L381.64 209.96L379.076 216.92L386.28 225.852C386.28 225.852 405.919 244.226 415.872 240.027C425.824 235.828 411.939 200.425 411.939 200.425L402.764 206.828Z" fill="url(#paint21_linear_1918_2147)"/>
<path d="M365.934 138.26C365.934 138.26 360.911 148.283 361.294 156.438C361.676 164.592 365.794 167.922 373.624 169.07C373.624 169.07 376.965 179.51 368.196 180.566C367.523 180.647 367.291 183.303 367.337 183.732C367.569 185.426 369.251 186.354 370.817 186.748C372.467 187.114 374.151 187.3 375.84 187.305C377.614 187.366 379.379 187.023 381.001 186.302C382.622 185.58 384.059 184.499 385.201 183.141C385.387 182.92 387.15 180.67 387.15 180.67C387.15 180.67 382.962 178.594 384.436 164.998C386.434 163.697 387.969 161.797 388.82 159.57C389.621 159.145 390.328 158.565 390.902 157.864C391.475 157.163 391.903 156.355 392.161 155.486C392.788 152.772 390.386 149.014 386.002 152.772C386.002 152.772 377.742 148.596 374.61 133.968C372.288 136.341 369.229 137.854 365.934 138.26Z" fill="url(#paint22_linear_1918_2147)"/>
<path d="M368.288 154.21L368.996 148.851L365.203 153.05C365.594 153.467 366.076 153.788 366.611 153.989C367.146 154.19 367.72 154.266 368.288 154.21Z" fill="#A24E3F"/>
<path d="M370.493 158.131C370.493 158.131 374.495 158.746 376.42 156.182" stroke="#222221" stroke-width="0.75" stroke-linecap="round" stroke-linejoin="round"/>
<path d="M374.495 141.346C375.403 141.088 376.364 141.08 377.277 141.323C378.19 141.566 379.02 142.051 379.68 142.726" stroke="#222221" stroke-linecap="round" stroke-linejoin="round"/>
<path d="M367.569 140.186C367.569 140.186 365.249 139.826 364.217 141.137" stroke="#222221" stroke-linecap="round" stroke-linejoin="round"/>
<path d="M376.107 148.399C376.003 149.211 375.481 149.802 374.947 149.733C374.413 149.663 374.054 148.956 374.158 148.144C374.262 147.332 374.785 146.74 375.318 146.81C375.852 146.879 376.211 147.587 376.107 148.399Z" fill="#222221"/>
<path d="M366.847 146.603C366.951 145.797 366.599 145.086 366.059 145.015C365.519 144.945 364.996 145.543 364.891 146.349C364.786 147.156 365.139 147.867 365.679 147.937C366.219 148.007 366.742 147.41 366.847 146.603Z" fill="#222221"/>
<path d="M375.33 146.81L373.497 146.009C373.521 146.21 373.597 146.401 373.718 146.563C373.838 146.725 373.999 146.853 374.184 146.934C374.369 147.015 374.573 147.046 374.773 147.024C374.974 147.002 375.166 146.928 375.33 146.81Z" fill="#222221"/>
<path d="M366.235 145.093L364.402 144.292C364.427 144.493 364.503 144.684 364.623 144.846C364.744 145.008 364.905 145.136 365.09 145.217C365.275 145.298 365.478 145.329 365.679 145.307C365.88 145.285 366.072 145.211 366.235 145.093Z" fill="#222221"/>
<path d="M354.775 242.637V247.474L399.319 247.846L398.124 242.092L354.775 242.637Z" fill="url(#paint23_linear_1918_2147)"/>
<path opacity="0.4" d="M354.775 242.637V247.474L399.319 247.846L398.124 242.092L354.775 242.637Z" fill="white"/>
<path d="M355.32 219.159L330.82 304.372C330.006 307.226 328.355 309.77 326.08 311.677C323.806 313.583 321.013 314.764 318.06 315.068C316.181 315.247 314.285 315.074 312.469 314.557L265.64 301.09C261.854 299.997 258.656 297.448 256.747 294.002C254.838 290.555 254.373 286.492 255.455 282.704L279.966 197.467C281.061 193.686 283.609 190.494 287.053 188.589C290.498 186.684 294.556 186.223 298.34 187.305L345.204 200.761C348.981 201.865 352.167 204.422 354.063 207.87C355.959 211.319 356.411 215.378 355.32 219.159Z" fill="url(#paint24_linear_1918_2147)"/>
<path opacity="0.2" d="M355.32 219.159L330.82 304.372C330.006 307.226 328.355 309.77 326.08 311.677C323.806 313.583 321.013 314.764 318.06 315.068C316.181 315.247 314.285 315.074 312.469 314.557L265.64 301.09C261.854 299.997 258.656 297.448 256.747 294.002C254.838 290.555 254.373 286.492 255.455 282.704L279.966 197.467C281.061 193.686 283.609 190.494 287.053 188.589C290.498 186.684 294.556 186.223 298.34 187.305L345.204 200.761C348.981 201.865 352.167 204.422 354.063 207.87C355.959 211.319 356.411 215.378 355.32 219.159Z" fill="black"/>
<path d="M351.248 220.168L326.749 305.393C326.129 307.563 325.022 309.562 323.513 311.239C322.003 312.915 320.13 314.225 318.037 315.068C316.158 315.247 314.262 315.074 312.446 314.557L265.64 301.09C261.854 299.997 258.656 297.448 256.747 294.002C254.838 290.555 254.373 286.492 255.455 282.704L279.966 197.467C280.586 195.3 281.694 193.304 283.203 191.632C284.713 189.959 286.586 188.654 288.678 187.816C290.557 187.624 292.455 187.798 294.269 188.326L341.04 201.84C344.819 202.925 348.014 205.463 349.927 208.897C351.84 212.332 352.315 216.384 351.248 220.168Z" fill="url(#paint25_linear_1918_2147)"/>
<path opacity="0.5" d="M351.248 220.168L326.749 305.393C326.129 307.563 325.022 309.562 323.513 311.239C322.003 312.915 320.13 314.225 318.037 315.068C316.158 315.247 314.262 315.074 312.446 314.557L265.64 301.09C261.854 299.997 258.656 297.448 256.747 294.002C254.838 290.555 254.373 286.492 255.455 282.704L279.966 197.467C280.586 195.3 281.694 193.304 283.203 191.632C284.713 189.959 286.586 188.654 288.678 187.816C290.557 187.624 292.455 187.798 294.269 188.326L341.04 201.84C344.819 202.925 348.014 205.463 349.927 208.897C351.84 212.332 352.315 216.384 351.248 220.168Z" fill="#FAFAFA"/>
<path d="M285.384 227.415L280.371 226.002L262.328 290.022L267.341 291.435L285.384 227.415Z" fill="#FAFAFA"/>
<path d="M274.537 293.468L269.526 292.018L287.564 228.021L292.564 229.46L274.537 293.468Z" fill="#FAFAFA"/>
<path d="M281.822 295.556L276.811 294.118L294.849 230.121L299.86 231.559L281.822 295.556Z" fill="#FAFAFA"/>
<path opacity="0.5" d="M329.031 239.946L324.018 238.533L305.975 302.554L310.988 303.966L329.031 239.946Z" fill="black"/>
<path d="M328.396 221.85L325.96 230.538L322.99 229.703C321.552 229.295 320.334 228.333 319.603 227.029C318.873 225.724 318.689 224.183 319.093 222.743L320.717 216.943L326.714 218.66C327.36 218.86 327.899 219.309 328.215 219.907C328.53 220.505 328.595 221.204 328.396 221.85Z" fill="#FAFAFA"/>
<path d="M326.969 217.593L320.972 215.876L322.77 209.519C322.971 208.806 323.31 208.139 323.769 207.558C324.227 206.976 324.796 206.49 325.442 206.128C326.089 205.766 326.8 205.535 327.536 205.448C328.271 205.361 329.017 205.42 329.73 205.622L332.816 206.492L330.124 215.853C330.035 216.176 329.882 216.479 329.674 216.743C329.466 217.006 329.207 217.225 328.913 217.388C328.619 217.55 328.296 217.651 327.962 217.687C327.628 217.722 327.291 217.69 326.969 217.593Z" fill="#FAFAFA"/>
<path d="M332.653 220.4L338.685 222.128L337.084 227.801C336.886 228.516 336.549 229.184 336.091 229.768C335.633 230.351 335.064 230.838 334.417 231.201C333.77 231.563 333.057 231.794 332.32 231.879C331.584 231.965 330.837 231.903 330.124 231.698L326.992 230.817L329.486 222.14C329.578 221.817 329.734 221.515 329.943 221.252C330.152 220.989 330.412 220.771 330.706 220.609C331.001 220.447 331.325 220.345 331.659 220.309C331.993 220.274 332.331 220.304 332.653 220.4Z" fill="#FAFAFA"/>
<path d="M340.82 214.6L338.998 221.05L332.966 219.321C332.321 219.132 331.775 218.696 331.449 218.108C331.124 217.519 331.043 216.825 331.226 216.178L333.918 206.816L336.922 207.663C337.633 207.863 338.299 208.2 338.879 208.657C339.46 209.114 339.946 209.68 340.308 210.324C340.669 210.968 340.901 211.678 340.989 212.411C341.077 213.145 341.019 213.889 340.82 214.6Z" fill="#FAFAFA"/>
<defs>
<linearGradient id="paint0_linear_1918_2147" x1="174490" y1="109263" x2="162099" y2="69243.3" gradientUnits="userSpaceOnUse">
<stop/>
<stop offset="1" stop-color="#5E88F3"/>
</linearGradient>
<linearGradient id="paint1_linear_1918_2147" x1="168129" y1="97989.9" x2="157666" y2="61678.9" gradientUnits="userSpaceOnUse">
<stop/>
<stop offset="1" stop-color="#5E88F3"/>
</linearGradient>
<linearGradient id="paint2_linear_1918_2147" x1="159158" y1="140844" x2="138370" y2="93388.4" gradientUnits="userSpaceOnUse">
<stop/>
<stop offset="1" stop-color="#5E88F3"/>
</linearGradient>
<linearGradient id="paint3_linear_1918_2147" x1="186750" y1="-51893.6" x2="164978" y2="-70718.6" gradientUnits="userSpaceOnUse">
<stop/>
<stop offset="1" stop-color="#5E88F3"/>
</linearGradient>
<linearGradient id="paint4_linear_1918_2147" x1="207655" y1="98851.2" x2="198798" y2="61236.2" gradientUnits="userSpaceOnUse">
<stop/>
<stop offset="1" stop-color="#5E88F3"/>
</linearGradient>
<linearGradient id="paint5_linear_1918_2147" x1="224921" y1="-42417.8" x2="186252" y2="-7133.37" gradientUnits="userSpaceOnUse">
<stop/>
<stop offset="1" stop-color="#5E88F3"/>
</linearGradient>
<linearGradient id="paint6_linear_1918_2147" x1="849158" y1="569449" x2="780829" y2="363343" gradientUnits="userSpaceOnUse">
<stop/>
<stop offset="1" stop-color="#5E88F3"/>
</linearGradient>
<linearGradient id="paint7_linear_1918_2147" x1="518138" y1="198571" x2="376815" y2="192601" gradientUnits="userSpaceOnUse">
<stop/>
<stop offset="1" stop-color="#5E88F3"/>
</linearGradient>
<linearGradient id="paint8_linear_1918_2147" x1="475059" y1="194616" x2="346663" y2="192939" gradientUnits="userSpaceOnUse">
<stop/>
<stop offset="1" stop-color="#5E88F3"/>
</linearGradient>
<linearGradient id="paint9_linear_1918_2147" x1="146088" y1="25339.1" x2="107694" y2="15322.7" gradientUnits="userSpaceOnUse">
<stop/>
<stop offset="1" stop-color="#5E88F3"/>
</linearGradient>
<linearGradient id="paint10_linear_1918_2147" x1="401256" y1="383340" x2="273227" y2="323205" gradientUnits="userSpaceOnUse">
<stop/>
<stop offset="1" stop-color="#5E88F3"/>
</linearGradient>
<linearGradient id="paint11_linear_1918_2147" x1="363055" y1="363041" x2="245288" y2="311862" gradientUnits="userSpaceOnUse">
<stop/>
<stop offset="1" stop-color="#5E88F3"/>
</linearGradient>
<linearGradient id="paint12_linear_1918_2147" x1="125089" y1="79757.8" x2="93552.1" y2="55678.9" gradientUnits="userSpaceOnUse">
<stop/>
<stop offset="1" stop-color="#5E88F3"/>
</linearGradient>
<linearGradient id="paint13_linear_1918_2147" x1="838070" y1="567547" x2="769434" y2="362533" gradientUnits="userSpaceOnUse">
<stop/>
<stop offset="1" stop-color="#5E88F3"/>
</linearGradient>
<linearGradient id="paint14_linear_1918_2147" x1="29064.7" y1="30281.7" x2="24191.3" y2="20764.8" gradientUnits="userSpaceOnUse">
<stop/>
<stop offset="1" stop-color="#5E88F3"/>
</linearGradient>
<linearGradient id="paint15_linear_1918_2147" x1="4524.77" y1="64076.2" x2="11408.5" y2="80823.6" gradientUnits="userSpaceOnUse">
<stop stop-color="#C6946A"/>
<stop offset="1" stop-color="#513E52"/>
</linearGradient>
<linearGradient id="paint16_linear_1918_2147" x1="1235.9" y1="24755.3" x2="4817.65" y2="29493.3" gradientUnits="userSpaceOnUse">
<stop stop-color="#C6946A"/>
<stop offset="1" stop-color="#513E52"/>
</linearGradient>
<linearGradient id="paint17_linear_1918_2147" x1="53053.9" y1="18700.1" x2="51834" y2="11575.9" gradientUnits="userSpaceOnUse">
<stop/>
<stop offset="1" stop-color="#5E88F3"/>
</linearGradient>
<linearGradient id="paint18_linear_1918_2147" x1="53804.2" y1="51878.9" x2="45765.9" y2="35026.4" gradientUnits="userSpaceOnUse">
<stop/>
<stop offset="1" stop-color="#5E88F3"/>
</linearGradient>
<linearGradient id="paint19_linear_1918_2147" x1="1812.7" y1="25856" x2="4950.08" y2="32067.5" gradientUnits="userSpaceOnUse">
<stop stop-color="#C6946A"/>
<stop offset="1" stop-color="#513E52"/>
</linearGradient>
<linearGradient id="paint20_linear_1918_2147" x1="203102" y1="193937" x2="173017" y2="130279" gradientUnits="userSpaceOnUse">
<stop/>
<stop offset="1" stop-color="#5E88F3"/>
</linearGradient>
<linearGradient id="paint21_linear_1918_2147" x1="3750.83" y1="64172.3" x2="11731.9" y2="79666.3" gradientUnits="userSpaceOnUse">
<stop stop-color="#C6946A"/>
<stop offset="1" stop-color="#513E52"/>
</linearGradient>
<linearGradient id="paint22_linear_1918_2147" x1="2948.2" y1="84966.6" x2="15860.1" y2="99469.1" gradientUnits="userSpaceOnUse">
<stop stop-color="#C6946A"/>
<stop offset="1" stop-color="#513E52"/>
</linearGradient>
<linearGradient id="paint23_linear_1918_2147" x1="129239" y1="17479.3" x2="128783" y2="10581.4" gradientUnits="userSpaceOnUse">
<stop/>
<stop offset="1" stop-color="#5E88F3"/>
</linearGradient>
<linearGradient id="paint24_linear_1918_2147" x1="292547" y1="384874" x2="221857" y2="276269" gradientUnits="userSpaceOnUse">
<stop/>
<stop offset="1" stop-color="#5E88F3"/>
</linearGradient>
<linearGradient id="paint25_linear_1918_2147" x1="280693" y1="381854" x2="209634" y2="276280" gradientUnits="userSpaceOnUse">
<stop/>
<stop offset="1" stop-color="#5E88F3"/>
</linearGradient>
</defs>
</svg>
